SplineFontDB: 3.2
FontName: RoutedGothic
FullName: Routed Gothic
FamilyName: Routed Gothic
Weight: Medium

StartChar: exclam
Encoding: 33 33 0
Width: 288
VWidth: 32
Flags: HW
HStem: 48 48<121.906 166.094>
VStem: 120 48<49.9059 94.0941>
LayerCount: 2
Fore
SplineSet
144 280.001568716 m 0
 139.696401995 280.001568716 136.001568716 283.694253903 136.001568716 288 c 2
 136.001568716 688 l 2
 136.001568716 692.303598005 139.694253903 695.998431284 144 695.998431284 c 0
 148.303598005 695.998431284 151.998431284 692.305746097 151.998431284 688 c 2
 151.998431284 288 l 2
 151.998431284 283.696401995 148.305746097 280.001568716 144 280.001568716 c 0
152 103.998431284 m 0
 164.74001548 103.998431284 175.998431284 92.7335404473 175.998431284 80 c 0
 175.998431284 59.2599845204 156.733540447 40.0015687157 136 40.0015687157 c 0
 123.25998452 40.0015687157 112.001568716 51.2664595527 112.001568716 64 c 0
 112.001568716 84.7400154796 131.266459553 103.998431284 152 103.998431284 c 0
EndSplineSet
EndChar

StartChar: quotedbl
Encoding: 34 34 1
Width: 384
VWidth: 32
Flags: HW
LayerCount: 2
Fore
SplineSet
112 472.001568716 m 0
 107.696401995 472.001568716 104.001568716 475.694253903 104.001568716 480 c 2
 104.001568716 688 l 2
 104.001568716 692.303598005 107.694253903 695.998431284 112 695.998431284 c 0
 116.303598005 695.998431284 119.998431284 692.305746097 119.998431284 688 c 2
 119.998431284 480 l 2
 119.998431284 475.696401995 116.305746097 472.001568716 112 472.001568716 c 0
272 472.001568716 m 0
 267.696401995 472.001568716 264.001568716 475.694253903 264.001568716 480 c 2
 264.001568716 688 l 2
 264.001568716 692.303598005 267.694253903 695.998431284 272 695.998431284 c 0
 276.303598005 695.998431284 279.998431284 692.305746097 279.998431284 688 c 2
 279.998431284 480 l 2
 279.998431284 475.696401995 276.305746097 472.001568716 272 472.001568716 c 0
EndSplineSet
EndChar

StartChar: numbersign
Encoding: 35 35 2
Width: 672
VWidth: 32
Flags: HW
LayerCount: 2
Fore
SplineSet
512 695.998431284 m 0
 516.303598005 695.998431284 519.998431284 692.305746097 519.998431284 688 c 0
 519.998431284 687.282734325 519.9026834 686.565468649 519.711187631 685.8691204 c 2
 456.496748125 455.998431284 l 1
 560 455.998431284 l 2
 564.303598005 455.998431284 567.998431284 452.305746097 567.998431284 448 c 0
 567.998431284 443.696401995 564.305746097 440.001568716 560 440.001568716 c 2
 452.097610918 440.001568716 l 1
 412.496748125 295.998431284 l 1
 560 295.998431284 l 2
 564.303598005 295.998431284 567.998431284 292.305746097 567.998431284 288 c 0
 567.998431284 283.696401995 564.305746097 280.001568716 560 280.001568716 c 2
 408.097610918 280.001568716 l 1
 343.711187631 45.8691204001 l 2
 342.827140175 42.654402376 339.637466656 40.0015687157 336 40.0015687157 c 0
 331.696401995 40.0015687157 328.001568716 43.6942539034 328.001568716 48 c 0
 328.001568716 48.7172656753 328.0973166 49.4345313506 328.288812369 50.1308795999 c 2
 391.503251875 280.001568716 l 1
 232.097610918 280.001568716 l 1
 167.711187631 45.8691204001 l 2
 166.827140175 42.654402376 163.637466656 40.0015687157 160 40.0015687157 c 0
 155.696401995 40.0015687157 152.001568716 43.6942539034 152.001568716 48 c 0
 152.001568716 48.7172656753 152.0973166 49.4345313506 152.288812369 50.1308795999 c 2
 215.503251875 280.001568716 l 1
 112 280.001568716 l 2
 107.696401995 280.001568716 104.001568716 283.694253903 104.001568716 288 c 0
 104.001568716 292.303598005 107.694253903 295.998431284 112 295.998431284 c 2
 219.902389082 295.998431284 l 1
 259.503251875 440.001568716 l 1
 112 440.001568716 l 2
 107.696401995 440.001568716 104.001568716 443.694253903 104.001568716 448 c 0
 104.001568716 452.303598005 107.694253903 455.998431284 112 455.998431284 c 2
 263.902389082 455.998431284 l 1
 328.288812369 690.1308796 l 2
 329.172859825 693.345597624 332.362533344 695.998431284 336 695.998431284 c 0
 340.303598005 695.998431284 343.998431284 692.305746097 343.998431284 688 c 0
 343.998431284 687.282734325 343.9026834 686.565468649 343.711187631 685.8691204 c 2
 280.496748125 455.998431284 l 1
 439.902389082 455.998431284 l 1
 504.288812369 690.1308796 l 2
 505.172859825 693.345597624 508.362533344 695.998431284 512 695.998431284 c 0
276.097610918 440.001568716 m 1
 236.496748125 295.998431284 l 1
 395.902389082 295.998431284 l 1
 435.503251875 440.001568716 l 1
 276.097610918 440.001568716 l 1
EndSplineSet
EndChar

StartChar: dollar
Encoding: 36 36 3
Width: 504
VWidth: 32
Flags: HW
LayerCount: 2
Fore
SplineSet
104.001568716 216 m 0
 104.001568716 220.303598005 107.694253903 223.998431284 112 223.998431284 c 0
 114.416106082 223.998431284 116.862967552 222.779365891 118.320459132 220.905448236 c 2
 118.320459132 220.905448236 122.07199183 216.024118572 129.853828295 208.242282106 c 0
 149.608310259 188.487800143 192.51415821 153.670694117 248.001568716 152.056604885 c 1
 248.001568716 372.35928988 l 1
 197.63949904 377.634949371 164.398075064 393.904662217 143.347771897 414.954965383 c 0
 119.274817143 439.027920138 112.001568716 468.447199952 112.001568716 492 c 0
 112.001568716 516.636112433 123.075102443 539.681909255 141.35585835 557.962665162 c 0
 166.076827966 582.683634777 204.088845317 599.01848657 248.001568716 599.955830436 c 1
 248.001568716 688 l 2
 248.001568716 692.303598005 251.694253903 695.998431284 256 695.998431284 c 0
 260.303598005 695.998431284 263.998431284 692.305746097 263.998431284 688 c 2
 263.998431284 599.659902771 l 1
 328.888035572 595.970491235 368.783567364 563.081161543 383.59562976 548.269099147 c 0
 387.898528119 543.966200789 390.124692801 541.154762435 390.296194507 540.936487537 c 0
 391.431019025 539.492165424 391.998431284 537.746082712 391.998431284 536 c 0
 391.998431284 531.696401995 388.305746097 528.001568716 384 528.001568716 c 0
 381.599428099 528.001568716 379.165199904 529.203555942 377.703805493 531.063512463 c 2
 377.703805493 531.063512463 376.2069502 533.030361709 372.281921261 536.955390648 c 0
 359.214926951 550.022384958 323.149755359 579.978825538 263.998431284 583.633971677 c 1
 263.998431284 386.7500122 l 1
 316.330991379 380.348020328 349.822417597 365.236866564 370.651632232 344.407651929 c 0
 393.996629909 321.062654252 399.998431284 291.720442263 399.998431284 264 c 0
 399.998431284 231.323163917 388.072359694 200.351601208 364.770177107 177.049418621 c 0
 341.58086163 153.860103144 307.53757967 138.673187253 263.998431284 136.32119534 c 1
 263.998431284 48 l 2
 263.998431284 43.6964019947 260.305746097 40.0015687157 256 40.0015687157 c 0
 251.696401995 40.0015687157 248.001568716 43.6942539034 248.001568716 48 c 2
 248.001568716 136.052608473 l 1
 185.784688537 137.641469 139.527269369 175.941424035 118.540119796 196.928573607 c 0
 110.310305108 205.158388296 105.843767955 210.883402663 105.679540868 211.094551764 c 0
 104.560892767 212.532813541 104.001568716 214.26640677 104.001568716 216 c 0
263.998431284 152.340905715 m 1
 303.813651163 154.652528245 333.57994406 168.486602572 353.456468608 188.36312712 c 0
 373.598211992 208.504870504 384.001568716 235.263469603 384.001568716 264 c 0
 384.001568716 289.572726766 378.623364779 313.808502384 359.337923733 333.09394343 c 0
 342.221706266 350.210160897 313.033364087 364.346755321 263.998431284 370.626394187 c 1
 263.998431284 152.340905715 l 1
248.001568716 583.954589367 m 1
 208.012069332 583.013087798 174.026331205 568.005721019 152.669566849 546.648956663 c 0
 136.830411156 530.80980097 127.998431284 511.65740129 127.998431284 492 c 0
 127.998431284 471.634061417 134.231319091 446.698835188 154.661480396 426.268673882 c 0
 172.332593641 408.597560637 201.264659874 393.62051979 248.001568716 388.449074804 c 1
 248.001568716 583.954589367 l 1
EndSplineSet
EndChar

StartChar: percent
Encoding: 37 37 5
Width: 864
VWidth: 32
Flags: HW
HStem: 48 240<549.902 698.098> 448 240<165.902 314.098>
VStem: 112 256<500.907 635.093> 496 256<100.907 235.093>
LayerCount: 2
Fore
SplineSet
608 695.998431284 m 0
 612.303598005 695.998431284 615.998431284 692.305746097 615.998431284 688 c 0
 615.998431284 686.670440396 615.669439758 685.340880793 615.011456705 684.144547969 c 2
 263.011456705 44.144547969 l 2
 261.718997698 41.794622502 258.918940804 40.0015687157 256 40.0015687157 c 0
 251.696401995 40.0015687157 248.001568716 43.6942539034 248.001568716 48 c 0
 248.001568716 49.3295596035 248.330560242 50.6591192071 248.988543295 51.855452031 c 2
 600.988543295 691.855452031 l 2
 602.281002302 694.205377498 605.081059196 695.998431284 608 695.998431284 c 0
240 695.998431284 m 0
 312.812549656 695.998431284 375.998431284 640.997171666 375.998431284 568 c 0
 375.998431284 495.013059365 312.803109923 440.001568716 240 440.001568716 c 0
 167.187450344 440.001568716 104.001568716 495.002828334 104.001568716 568 c 0
 104.001568716 640.986940635 167.196890077 695.998431284 240 695.998431284 c 0
240 455.998431284 m 0
 304.120251992 455.998431284 360.001568716 504.02849186 360.001568716 568 c 0
 360.001568716 631.960287779 304.109957274 680.001568716 240 680.001568716 c 0
 175.879748008 680.001568716 119.998431284 631.97150814 119.998431284 568 c 0
 119.998431284 504.039712221 175.890042726 455.998431284 240 455.998431284 c 0
624 295.998431284 m 0
 696.812549656 295.998431284 759.998431284 240.997171666 759.998431284 168 c 0
 759.998431284 95.0130593647 696.803109923 40.0015687157 624 40.0015687157 c 0
 551.187450344 40.0015687157 488.001568716 95.0028283341 488.001568716 168 c 0
 488.001568716 240.986940635 551.196890077 295.998431284 624 295.998431284 c 0
624 55.9984312843 m 0
 688.120251992 55.9984312843 744.001568716 104.02849186 744.001568716 168 c 0
 744.001568716 231.960287779 688.109957274 280.001568716 624 280.001568716 c 0
 559.879748008 280.001568716 503.998431284 231.97150814 503.998431284 168 c 0
 503.998431284 104.039712221 559.890042726 55.9984312843 624 55.9984312843 c 0
EndSplineSet
EndChar

StartChar: ampersand
Encoding: 38 38 6
Width: 784
VWidth: 32
Flags: HW
LayerCount: 2
Fore
SplineSet
668 379.998431284 m 0
 666.481860642 379.998431284 664.963721285 379.569495411 663.643918596 378.711623666 c 0
 663.257510575 378.460458453 650.719088181 370.267364581 633.104462623 352.652739023 c 0
 621.757746753 341.306023154 608.309594398 326.048917366 594.675104683 306.505383491 c 1
 591.2432679 310.291059241 587.723993608 313.986459113 584.119316113 317.591136608 c 0
 542.544763603 359.165689118 489.910613192 388.434158414 429.664437681 405.198952782 c 1
 466.474759073 414.158737323 496.287372027 430.896958985 518.115553683 452.725140594 c 0
 545.443843435 480.053430346 559.998431284 515.17958224 559.998431284 552 c 0
 559.998431284 584.709287991 546.854130363 617.271287842 520.412824542 643.712593664 c 0
 484.456004094 679.669414111 424.475500612 703.998431284 340 703.998431284 c 0
 255.222821455 703.998431284 198.487795014 679.510070102 164.407545797 645.429820885 c 0
 136.291455276 617.313730364 124.001568716 583.065306953 124.001568716 552 c 0
 124.001568716 471.841863366 173.566768022 425.641599798 246.068759455 411.067518151 c 1
 214.003647453 400.223185193 181.473783299 381.56161627 155.141420011 355.229253032 c 0
 122.852970039 322.94080306 100.001568716 278.869033424 100.001568716 224 c 0
 100.001568716 174.844128318 118.136375867 127.524007252 153.543178818 92.117204301 c 0
 190.216764356 55.4436187631 245.03353069 32.0015687157 316 32.0015687157 c 0
 380.693458759 32.0015687157 449.864189043 43.3439727091 500.582029072 94.0618127379 c 0
 523.757862751 117.237646417 542.751413388 148.38188619 555.633508936 189.604591942 c 0
 566.898890459 225.653812816 581.380016826 255.522049743 596.284979719 279.778161518 c 1
 642.301865751 221.024735683 668.001568716 142.934250602 668.001568716 48 c 0
 668.001568716 43.6964019947 671.694253903 40.0015687157 676 40.0015687157 c 0
 680.303598005 40.0015687157 683.998431284 43.6942539034 683.998431284 48 c 0
 683.998431284 150.174824578 655.345372271 232.703868579 605.457689769 293.958899923 c 1
 619.309015176 314.312240626 633.034296142 329.955155544 644.418171122 341.339030524 c 0
 661.322680977 358.24354038 672.356081404 365.288376334 672.356081404 365.288376334 c 2
 674.47035259 366.662652602 675.998431284 369.318107071 675.998431284 372 c 0
 675.998431284 376.305746097 672.303598005 379.998431284 668 379.998431284 c 0
585.522303156 292.748063429 m 1
 568.967230439 266.644022833 552.769426172 234.084800402 540.366491064 194.395408058 c 0
 528.132155749 155.24553505 510.412136126 126.519336789 489.268320573 105.375521237 c 0
 443.140372837 59.2475735004 379.146667322 47.9984312843 316 47.9984312843 c 0
 248.615334611 47.9984312843 198.196946302 70.0908538145 164.856887317 103.4309128 c 0
 132.629664956 135.658135161 115.998431284 178.815496176 115.998431284 224 c 0
 115.998431284 274.178224931 136.656696808 314.11711283 166.45512851 343.915544533 c 0
 204.715045968 382.17546199 258.235803527 403.305153918 300.254060675 406.001512361 c 0
 421.700302425 405.946293374 520.893263999 366.294296769 585.522303156 292.748063429 c 1
387.290581666 414.717098048 m 0
 359.410763951 419.565754417 330.216822672 421.998428608 300 421.998431284 c 0
 243.411684805 421.998431284 200.176287814 437.194352756 173.23642131 464.13421926 c 0
 151.85079857 485.519842 139.998431284 514.787651192 139.998431284 552 c 0
 139.998431284 578.825159233 150.617863598 609.012721688 175.721254296 634.116112386 c 0
 206.093638884 664.488496974 258.267035739 688.001568716 340 688.001568716 c 0
 421.477610346 688.001568716 476.98067059 664.517330618 509.099116043 632.398885165 c 0
 532.722400007 608.7756012 544.001568716 580.314156531 544.001568716 552 c 0
 544.001568716 519.500666053 531.244179035 488.481182944 506.801845184 464.038849093 c 0
 480.472224406 437.709228315 440.283230032 418.80223274 387.380770389 414.724605242 c 0
 387.350673514 414.724605242 387.320610046 414.717098048 387.290581666 414.717098048 c 0
EndSplineSet
Substitution2: "'ss01' Style Set 1 in Latin lookup 0-1" ampersand_alt
EndChar

StartChar: quotesingle
Encoding: 39 39 7
Width: 224
VWidth: 0
Flags: HW
LayerCount: 2
Fore
SplineSet
112 472.001568716 m 0
 107.696401995 472.001568716 104.001568716 475.694253903 104.001568716 480 c 2
 104.001568716 688 l 2
 104.001568716 692.303598005 107.694253903 695.998431284 112 695.998431284 c 0
 116.303598005 695.998431284 119.998431284 692.305746097 119.998431284 688 c 2
 119.998431284 480 l 2
 119.998431284 475.696401995 116.305746097 472.001568716 112 472.001568716 c 0
EndSplineSet
EndChar

StartChar: parenleft
Encoding: 40 40 8
Width: 344
VWidth: 32
Flags: HW
LayerCount: 2
Fore
SplineSet
239.998431284 -32 m 0
 239.998431284 -36.3035980053 236.305746097 -39.9984312843 232 -39.9984312843 c 0
 229.457104241 -39.9984312843 226.903654778 -38.6306373644 225.484964682 -36.644471184 c 0
 225.06065302 -36.0504348434 104.001568716 133.254041805 104.001568716 368 c 0
 104.001568716 603.929286005 225.024909469 772.338617968 226.343145751 773.656854249 c 0
 227.904197107 775.217905606 229.952098554 775.998431284 232 775.998431284 c 0
 236.303598005 775.998431284 239.998431284 772.305746097 239.998431284 768 c 0
 239.998431284 766.370015848 239.503965945 764.740031696 238.515035268 763.355528746 c 2
 238.515035268 763.355528746 119.998431284 597.699960568 119.998431284 368 c 0
 119.998431284 138.300039508 238.515035318 -27.355528816 238.515035318 -27.355528816 c 2
 239.503965962 -28.7400317506 239.998431284 -30.3700158753 239.998431284 -32 c 0
EndSplineSet
EndChar

StartChar: parenright
Encoding: 41 41 9
Width: 344
VWidth: 32
Flags: HW
LayerCount: 2
Fore
SplineSet
80 -39.9984312843 m 0
 75.6964019947 -39.9984312843 72.0015687157 -36.3057460966 72.0015687157 -32 c 0
 72.0015687157 -30.3700158753 72.4960340378 -28.7400317506 73.4849646821 -27.355528816 c 2
 73.4849646821 -27.355528816 192.001568716 138.300039508 192.001568716 368 c 0
 192.001568716 597.699960568 73.4849647322 763.355528746 73.4849647322 763.355528746 c 2
 72.4960340545 764.740031696 72.0015687157 766.370015848 72.0015687157 768 c 0
 72.0015687157 772.303598005 75.6942539034 775.998431284 80 775.998431284 c 0
 82.5428957244 775.998431284 85.0963451633 774.630637402 86.5150352678 772.644471254 c 0
 86.9393470339 772.050434781 207.998431284 602.745958219 207.998431284 368 c 0
 207.998431284 132.070713929 86.9750904706 -36.3386180284 85.6568542495 -37.6568542495 c 0
 84.0958028929 -39.217905606 82.0479014465 -39.9984312843 80 -39.9984312843 c 0
EndSplineSet
EndChar

StartChar: asterisk
Encoding: 42 42 10
Width: 512
VWidth: 32
Flags: HW
LayerCount: 2
Fore
SplineSet
184 427.293560904 m 0
 179.696401995 427.293560904 176.001568716 430.986246091 176.001568716 435.291992188 c 0
 176.001568716 436.674932854 176.357508214 438.057873519 177.069387212 439.290887569 c 2
 242.142746854 552.001568716 l 1
 112 552.001568716 l 2
 107.696401995 552.001568716 104.001568716 555.694253903 104.001568716 560 c 0
 104.001568716 564.303598005 107.694253903 567.998431284 112 567.998431284 c 2
 242.142746854 567.998431284 l 1
 177.069387212 680.709112431 l 2
 176.357508214 681.942126481 176.001568716 683.325067146 176.001568716 684.708007812 c 0
 176.001568716 689.011605817 179.694253903 692.706439096 184 692.706439096 c 0
 186.853019581 692.706439096 189.609237235 690.995599204 190.930612788 688.706903193 c 2
 256 576.003102516 l 1
 321.069387212 688.706903193 l 2
 322.390149605 690.994537177 325.146842089 692.706439096 328 692.706439096 c 0
 332.303598005 692.706439096 335.998431284 689.013753909 335.998431284 684.708007812 c 0
 335.998431284 683.325067146 335.642491786 681.942126481 334.930612788 680.709112431 c 2
 269.857253146 567.998431284 l 1
 400 567.998431284 l 2
 404.303598005 567.998431284 407.998431284 564.305746097 407.998431284 560 c 0
 407.998431284 555.696401995 404.305746097 552.001568716 400 552.001568716 c 2
 269.857253146 552.001568716 l 1
 334.930612788 439.290887569 l 2
 335.642491786 438.057873519 335.998431284 436.674932854 335.998431284 435.291992188 c 0
 335.998431284 430.988394183 332.305746097 427.293560904 328 427.293560904 c 0
 325.146980419 427.293560904 322.390762765 429.004400796 321.069387212 431.293096807 c 2
 256 543.996897484 l 1
 190.930612788 431.293096807 l 2
 189.609850395 429.005462823 186.853157911 427.293560904 184 427.293560904 c 0
EndSplineSet
EndChar

StartChar: plus
Encoding: 43 43 11
Width: 640
VWidth: 192
Flags: HW
LayerCount: 2
Fore
SplineSet
96.0015687157 368 m 0
 96.0015687157 372.303598005 99.6942539034 375.998431284 104 375.998431284 c 2
 312.001568716 375.998431284 l 1
 312.001568716 584 l 2
 312.001568716 588.303598005 315.694253903 591.998431284 320 591.998431284 c 0
 324.303598005 591.998431284 327.998431284 588.305746097 327.998431284 584 c 2
 327.998431284 375.998431284 l 1
 536 375.998431284 l 2
 540.303598005 375.998431284 543.998431284 372.305746097 543.998431284 368 c 0
 543.998431284 363.696401995 540.305746097 360.001568716 536 360.001568716 c 2
 327.998431284 360.001568716 l 1
 327.998431284 152 l 2
 327.998431284 147.696401995 324.305746097 144.001568716 320 144.001568716 c 0
 315.696401995 144.001568716 312.001568716 147.694253903 312.001568716 152 c 2
 312.001568716 360.001568716 l 1
 104 360.001568716 l 2
 99.6964019947 360.001568716 96.0015687157 363.694253903 96.0015687157 368 c 0
EndSplineSet
EndChar

StartChar: comma
Encoding: 44 44 12
Width: 296
VWidth: 32
Flags: HW
LayerCount: 2
Fore
SplineSet
152 103.998431284 m 0
 131.25998452 103.998431284 112.001568716 84.7335404473 112.001568716 64 c 0
 112.001568716 51.2601200533 123.266927578 40.0015687157 136 40.0015687157 c 0
 148.299909078 40.0015687157 160.079007798 46.7773358859 167.6288524 56.6167750929 c 1
 163.972004265 17.3836027029 134.638386455 -52.8651146391 134.638386234 -52.8651144692 c 1
 134.213841222 -53.8640438911 134.001568716 -54.9320219456 134.001568716 -56 c 0
 134.001568716 -60.3035980053 137.694253903 -63.9984312843 142 -63.9984312843 c 0
 145.238065982 -63.9984312843 148.211627034 -61.8407366167 149.361613766 -59.1348855308 c 0
 149.485703867 -58.842908829 183.998431284 20.74714251 183.998431284 64 c 0
 183.998431284 77.8482920778 179.234885618 88.0788228806 172.656854249 94.6568542495 c 0
 166.160797002 101.152911497 158.442035586 103.998431284 152 103.998431284 c 0
EndSplineSet
EndChar

StartChar: hyphen
Encoding: 45 45 13
Width: 416
VWidth: 32
Flags: HW
LayerCount: 2
Fore
SplineSet
343.998431284 264 m 0
 343.998431284 259.696401995 340.305746097 256.001568716 336 256.001568716 c 2
 80 256.001568716 l 2
 75.6964019947 256.001568716 72.0015687157 259.694253903 72.0015687157 264 c 0
 72.0015687157 268.303598005 75.6942539034 271.998431284 80 271.998431284 c 2
 336 271.998431284 l 2
 340.303598005 271.998431284 343.998431284 268.305746097 343.998431284 264 c 0
EndSplineSet
EndChar

StartChar: period
Encoding: 46 46 14
Width: 288
VWidth: 32
Flags: HW
HStem: 48 48<121.906 166.094>
VStem: 120 48<49.9059 94.0941>
AnchorPoint: "above" 144 -48 mark 0
LayerCount: 2
Fore
SplineSet
152 103.998431284 m 0
 164.74001548 103.998431284 175.998431284 92.7335404473 175.998431284 80 c 0
 175.998431284 59.2599845204 156.733540447 40.0015687157 136 40.0015687157 c 0
 123.25998452 40.0015687157 112.001568716 51.2664595527 112.001568716 64 c 0
 112.001568716 84.7400154796 131.266459553 103.998431284 152 103.998431284 c 0
EndSplineSet
EndChar

StartChar: slash
Encoding: 47 47 15
Width: 576
VWidth: 32
Flags: HW
LayerCount: 2
Fore
SplineSet
464 695.998431284 m 0
 468.303598005 695.998431284 471.998431284 692.305746097 471.998431284 688 c 0
 471.998431284 686.670440396 471.669439758 685.340880793 471.011456705 684.144547969 c 2
 119.011456705 44.144547969 l 2
 117.718997698 41.794622502 114.918940804 40.0015687157 112 40.0015687157 c 0
 107.696401995 40.0015687157 104.001568716 43.6942539034 104.001568716 48 c 0
 104.001568716 49.3295596035 104.330560242 50.6591192071 104.988543295 51.855452031 c 2
 456.988543295 691.855452031 l 2
 458.281002302 694.205377498 461.081059196 695.998431284 464 695.998431284 c 0
EndSplineSet
EndChar

StartChar: zero
Encoding: 48 48 16
Width: 672
VWidth: 32
Flags: HW
HStem: 40 656<250.729 421.271>
VStem: 88 496<233.016 502.984>
LayerCount: 2
Fore
SplineSet
591.998431284 368 m 0
 591.998431284 259.161180346 552.716424715 162.176540497 491.086943087 100.547058869 c 0
 448.303981699 57.7640974806 394.562292953 32.0015687157 336 32.0015687157 c 0
 277.437707047 32.0015687157 223.696018301 57.7640974806 180.913056913 100.547058869 c 0
 119.283575285 162.176540497 80.0015687157 259.161180346 80.0015687157 368 c 0
 80.0015687157 476.838819654 119.283575285 573.823459503 180.913056913 635.452941131 c 0
 223.696018301 678.235902519 277.437707047 703.998431284 336 703.998431284 c 0
 394.562292953 703.998431284 448.303981699 678.235902519 491.086943087 635.452941131 c 0
 552.716424715 573.823459503 591.998431284 476.838819654 591.998431284 368 c 0
576.001568716 368 m 0
 576.001568716 473.031342194 537.899891172 566.012576048 479.773234588 624.139232632 c 0
 439.443882786 664.468584434 389.664396212 688.001568716 336 688.001568716 c 0
 282.335603788 688.001568716 232.556117214 664.468584434 192.226765412 624.139232632 c 0
 134.100108828 566.012576048 95.9984312843 473.031342194 95.9984312843 368 c 0
 95.9984312843 262.968657806 134.100108828 169.987423952 192.226765412 111.860767368 c 0
 232.556117214 71.5314155664 282.335603788 47.9984312843 336 47.9984312843 c 0
 389.664396212 47.9984312843 439.443882786 71.5314155664 479.773234588 111.860767368 c 0
 537.899891172 169.987423952 576.001568716 262.968657806 576.001568716 368 c 0
EndSplineSet
EndChar

StartChar: one
Encoding: 49 49 17
Width: 352
VWidth: 0
Flags: HW
LayerCount: 2
Fore
SplineSet
176 40.0015687157 m 0
 171.696401995 40.0015687157 168.001568716 43.6942539034 168.001568716 48 c 2
 168.001568716 688 l 2
 168.001568716 692.303598005 171.694253903 695.998431284 176 695.998431284 c 0
 180.303598005 695.998431284 183.998431284 692.305746097 183.998431284 688 c 2
 183.998431284 48 l 2
 183.998431284 43.6964019947 180.305746097 40.0015687157 176 40.0015687157 c 0
EndSplineSet
EndChar

StartChar: two
Encoding: 50 50 18
Width: 672
VWidth: 32
Flags: HW
LayerCount: 2
Fore
SplineSet
128 528.001568716 m 0
 132.303598005 528.001568716 135.998431284 531.694253903 135.998431284 536 c 0
 135.998431284 579.354033314 150.668012264 612.758981853 175.16827689 637.259246478 c 0
 208.56586331 670.656832898 261.318560158 688.001568716 322 688.001568716 c 0
 380.971181968 688.001568716 430.863755657 667.406346824 463.974222314 634.295880167 c 0
 491.80636901 606.463733471 508.001568716 569.692363421 508.001568716 528 c 0
 508.001568716 493.198597795 499.605681781 470.205325447 475.146765018 445.746408684 c 0
 457.926911999 428.526555664 432.295602333 410.629390245 395.896957708 388.8694221 c 0
 388.524405734 384.461918203 381.316436465 380.165382427 374.271085506 375.965782645 c 0
 298.717131685 330.929506966 241.720656382 297.116223836 201.255390588 256.650958042 c 0
 151.170012571 206.565580025 128.001568716 146.743909991 128.001568716 48 c 0
 128.001568716 43.6964019947 131.694253903 40.0015687157 136 40.0015687157 c 2
 544 40.0015687157 l 2
 548.303598005 40.0015687157 551.998431284 43.6942539034 551.998431284 48 c 0
 551.998431284 52.3035980053 548.305746097 55.9984312843 544 55.9984312843 c 2
 136 55.9984312843 l 1
 143.998431284 48 l 1
 143.998431284 144.193143828 165.726555189 198.494705645 212.569099087 245.337249543 c 0
 250.818029047 283.586179504 306.849915689 317.146954389 382.459634473 362.216470502 c 0
 389.504986979 366.416071207 396.71907941 370.716252264 404.103042292 375.1305779 c 0
 440.943533126 397.154692128 467.554057962 415.52628463 486.460473517 434.432700185 c 0
 513.698534942 461.67076161 523.998431284 490.082680073 523.998431284 528 c 0
 523.998431284 574.006845627 505.977354735 614.920164744 475.287930813 645.609588666 c 0
 438.798612371 682.098907108 384.713074143 703.998431284 322 703.998431284 c 0
 212.251659317 703.998431284 120.001568716 648.984356176 120.001568716 536 c 0
 120.001568716 531.696401995 123.694253903 528.001568716 128 528.001568716 c 0
EndSplineSet
EndChar

StartChar: three
Encoding: 51 51 19
Width: 672
VWidth: 32
Flags: HW
LayerCount: 2
Fore
SplineSet
484 695.998431284 m 2
 488.303598005 695.998431284 491.998431284 692.305746097 491.998431284 688 c 0
 491.998431284 685.622876522 479.453687059 596.950446483 393.715425078 511.212184502 c 0
 372.474444478 489.971203902 346.759579779 469.034832014 315.692032319 449.846337449 c 1
 325.371711157 451.215960553 334.929688075 451.998431284 344 451.998431284 c 0
 411.167370359 451.998431284 465.861514062 428.385452226 503.900162378 390.346803911 c 0
 542.800052352 351.446913936 563.998431284 297.833891944 563.998431284 240 c 0
 563.998431284 186.355899144 541.308173355 137.571053217 504.564123725 100.827003587 c 0
 462.215013433 58.4778932952 401.189503865 32.0015687157 334 32.0015687157 c 0
 267.343183277 32.0015687157 207.29278006 58.0695914699 165.512174066 99.8501974638 c 0
 150.61481968 114.74755185 138.05495289 131.629359171 128.363188325 150.039810987 c 0
 127.751014835 151.202694222 127.444928091 152.485136173 127.444928091 153.767578125 c 0
 127.444928091 158.07117613 131.137613278 161.766009409 135.443359375 161.766009409 c 0
 138.420557863 161.766009409 141.25253567 159.909723732 142.523530425 157.495345263 c 0
 175.669134471 94.532038421 248.319701669 47.9984312843 334 47.9984312843 c 0
 396.929961257 47.9984312843 453.978509301 72.8688061609 493.250415226 112.140712086 c 0
 527.317463747 146.207760607 548.001568716 191.020271045 548.001568716 240 c 0
 548.001568716 293.884310462 528.281312763 343.338236527 492.586453879 379.033095412 c 0
 457.714532702 413.905016589 407.325486178 436.001568716 344 436.001568716 c 0
 313.433404172 436.001568716 273.802453709 425.584003858 247.045382886 414.600990707 c 2
 247.044200135 414.60050516 l 2
 246.071453523 414.201214197 245.035726761 414.001568716 244 414.001568716 c 0
 239.696401995 414.001568716 236.001568716 417.694253903 236.001568716 422 c 0
 236.001568716 423.628626515 236.545714314 425.187429832 237.43112623 426.482148041 c 0
 238.311184697 427.770164485 239.528000252 428.796821623 240.88117276 429.368417747 c 0
 302.859119498 455.548616603 348.612206378 488.7363828 382.401716579 522.525893001 c 0
 448.392351577 588.516527999 468.815658469 656.014369204 474.295146023 680.001568716 c 1
 116 680.001568716 l 2
 111.696401995 680.001568716 108.001568716 683.694253903 108.001568716 688 c 0
 108.001568716 692.303598005 111.694253903 695.998431284 116 695.998431284 c 2
 484 695.998431284 l 2
EndSplineSet
EndChar

StartChar: four
Encoding: 52 52 20
Width: 672
VWidth: 32
Flags: HW
LayerCount: 2
Fore
SplineSet
599.998431284 270 m 0
 599.998431284 274.303598005 596.305746097 277.998431284 592 277.998431284 c 2
 487.998431284 277.998431284 l 1
 487.998431284 686 l 2
 487.998431284 690.303598005 484.305746097 693.998431284 480 693.998431284 c 2
 418 693.998431284 l 2
 415.741097506 693.998431284 413.445648728 692.964997507 411.942768959 691.226371892 c 2
 105.942768959 337.226371892 l 2
 104.648635463 335.729237064 104.001568716 333.864618532 104.001568716 332 c 2
 104.001568716 270 l 2
 104.001568716 265.696401995 107.694253903 262.001568716 112 262.001568716 c 2
 472.001568716 262.001568716 l 1
 472.001568716 46 l 2
 472.001568716 41.6964019947 475.694253903 38.0015687157 480 38.0015687157 c 0
 484.303598005 38.0015687157 487.998431284 41.6942539034 487.998431284 46 c 2
 487.998431284 262.001568716 l 1
 592 262.001568716 l 2
 596.303598005 262.001568716 599.998431284 265.694253903 599.998431284 270 c 0
472.001568716 678.001568716 m 1
 472.001568716 277.998431284 l 1
 119.998431284 277.998431284 l 1
 119.998431284 329.01933035 l 1
 421.661044109 678.001568716 l 1
 472.001568716 678.001568716 l 1
EndSplineSet
EndChar

StartChar: five
Encoding: 53 53 21
Width: 672
VWidth: 0
Flags: HW
LayerCount: 2
Fore
SplineSet
128 163.702532846 m 0
 123.696401995 163.702532846 120.001568716 160.009847659 120.001568716 155.704101562 c 0
 120.001568716 154.377674373 120.329011874 153.051247184 120.983898191 151.857107353 c 0
 131.675547981 132.361624628 145.038364999 114.584228487 160.600110302 99.0224831837 c 0
 202.021280998 57.6013124874 258.94323168 32.0015687157 322 32.0015687157 c 0
 449.597173823 32.0015687157 551.998431284 136.434336316 551.998431284 264 c 0
 551.998431284 391.568325085 449.599559864 495.998431284 322 495.998431284 c 0
 255.428708895 495.998431284 194.125802671 469.638893847 146.609785843 423.055923009 c 1
 175.159302032 680.001568716 l 1
 488 680.001568716 l 2
 492.303598005 680.001568716 495.998431284 683.694253903 495.998431284 688 c 0
 495.998431284 692.303598005 492.305746097 695.998431284 488 695.998431284 c 2
 168 695.998431284 l 2
 163.947528455 695.998431284 160.478942442 692.742631554 160.050823986 688.889565452 c 2
 128.050823986 400.889565452 l 2
 128.017987139 400.594033829 128.001568716 400.297016914 128.001568716 400 c 0
 128.001568716 395.696401995 131.694253903 392.001568716 136 392.001568716 c 0
 138.271593184 392.001568716 140.579488249 393.049487218 142.079132637 394.799072338 c 0
 146.559163186 400.025774645 151.195312193 405.033224244 155.976883873 409.814795924 c 0
 200.959863626 454.797775677 258.93827385 480.001568716 322 480.001568716 c 0
 440.725484512 480.001568716 536.001568716 382.740269734 536.001568716 264 c 0
 536.001568716 145.257071408 440.72812311 47.9984312843 322 47.9984312843 c 0
 263.388593208 47.9984312843 210.472480005 71.7775304781 171.913818801 110.336191683 c 0
 157.442549621 124.807460863 144.982535075 141.377995138 135.016101809 159.551095771 c 0
 133.72505214 161.905235404 130.922866891 163.702532846 128 163.702532846 c 0
EndSplineSet
EndChar

StartChar: six
Encoding: 54 54 22
Width: 672
VWidth: 0
Flags: HW
LayerCount: 2
Fore
SplineSet
518 616.001568716 m 0
 522.303598005 616.001568716 525.998431284 619.694253903 525.998431284 624 c 0
 525.998431284 625.547825458 525.552556347 627.095650916 524.660806474 628.433275725 c 0
 524.423661339 628.788993427 519.794071875 635.679636624 510.264854249 645.208854249 c 0
 488.058203186 667.415505313 438.983710102 703.998431284 358 703.998431284 c 0
 315.767154101 703.998431284 253.855138783 685.366678638 202.225686297 633.737226152 c 0
 150.60725828 582.118798135 110.001568716 497.868005259 110.001568716 368 c 0
 110.001568716 234.148044627 148.59193365 150.006511427 199.211745488 99.3866995894 c 0
 250.392316859 48.2061282184 312.922205074 32.0015687157 358 32.0015687157 c 0
 425.861779569 32.0015687157 479.288011005 56.0772131788 515.51252144 92.3017236131 c 0
 551.154777659 127.943979832 569.998431284 175.078462919 569.998431284 222 c 0
 569.998431284 268.402156072 549.640276291 312.236803292 515.860330201 346.016749381 c 0
 475.914478194 385.962601389 417.114930423 411.998431284 350 411.998431284 c 0
 286.537733543 411.998431284 232.401178437 394.417480948 194.946944012 356.963246523 c 0
 165.675144321 327.691446832 147.255069412 286.858182928 142.155770579 234.662702671 c 1
 131.977536924 271.728538106 125.998431284 315.77434627 125.998431284 368 c 0
 125.998431284 494.45842992 165.267481063 574.15160392 213.539394796 622.423517653 c 0
 261.956872091 670.840994948 320.170191036 688.001568716 358 688.001568716 c 0
 433.816289898 688.001568716 478.821796814 654.024494687 498.951145751 633.895145751 c 0
 509.265671136 623.580620365 510.430655546 620.255635955 512.343145751 618.343145751 c 0
 513.904197107 616.782094394 515.952098554 616.001568716 518 616.001568716 c 0
154.275883229 198.342250558 m 0
 155.763102276 199.807359397 156.705462537 201.825499685 156.705462534 204 c 0
 156.705462534 268.015009452 175.096342908 314.485228421 206.260652511 345.649538024 c 0
 239.858777298 379.24766281 289.388773228 396.001568716 350 396.001568716 c 0
 412.908325517 396.001568716 467.69559902 371.554063565 504.546621702 334.703040883 c 0
 535.723287961 303.526374623 554.001568716 263.579239176 554.001568716 222 c 0
 554.001568716 179.39642622 536.818917962 136.235537134 504.198812941 103.615432112 c 0
 471.104659996 70.5212791669 421.970801014 47.9984312843 358 47.9984312843 c 0
 316.561010285 47.9984312843 258.17134438 63.0545176953 210.525453987 110.700408088 c 0
 188.831338684 132.394523391 169.167343262 160.992255293 154.275883229 198.342250558 c 0
EndSplineSet
EndChar

StartChar: seven
Encoding: 55 55 23
Width: 672
VWidth: 0
Flags: HW
LayerCount: 2
Fore
SplineSet
96.0015687157 688 m 0
 96.0015687157 683.696401995 99.6942539034 680.001568716 104 680.001568716 c 2
 552 680.001568716 l 1
 544.001568716 688 l 1
 544.001568716 630 l 1
 548.136707011 637.007138414 l 1
 547.645076081 636.736018416 507.989143029 614.81614191 458.792743082 565.619741963 c 0
 378.144390385 484.971389266 272.001568716 330.875155314 272.001568716 80 c 2
 272.001568716 48 l 2
 272.001568716 43.6964019947 275.694253903 40.0015687157 280 40.0015687157 c 0
 284.303598005 40.0015687157 287.998431284 43.6942539034 287.998431284 48 c 2
 287.998431284 80 l 2
 287.998431284 326.019254624 391.724056048 475.923637932 470.106451581 554.306033464 c 0
 520.265802962 604.465384846 555.105896009 621.79218751 557.656854249 624.343145751 c 0
 559.217905606 625.904197107 559.998431284 627.952098554 559.998431284 630 c 2
 559.998431284 688 l 2
 559.998431284 692.303598005 556.305746097 695.998431284 552 695.998431284 c 2
 104 695.998431284 l 2
 99.6964019947 695.998431284 96.0015687157 692.305746097 96.0015687157 688 c 0
EndSplineSet
EndChar

StartChar: eight
Encoding: 56 56 24
Width: 672
VWidth: 0
Flags: HW
LayerCount: 2
Fore
SplineSet
415.197840617 386.321760833 m 1
 394.343010488 391.278569312 371.280887301 393.998431183 346 393.998431284 c 0
 273.883347014 393.998431284 215.116526837 417.60302633 179.260763312 453.458789855 c 0
 154.025772209 478.693780957 139.998431284 509.945387732 139.998431284 544 c 0
 139.998431284 576.570208491 153.606252677 606.60031868 177.891792969 630.885858973 c 0
 212.292352186 665.28641819 268.325697784 688.001568716 336 688.001568716 c 0
 400.2422826 688.001568716 458.340846672 664.40390879 494.126300432 628.61845503 c 0
 518.087714296 604.657041166 532.001568716 575.46152805 532.001568716 544 c 0
 532.001568716 502.383552902 505.10251776 463.807018535 476.366255211 435.070755986 c 0
 446.860384596 405.564885371 420.518866903 390.067912065 415.197840617 386.321760833 c 1
248.428727235 393.479897504 m 1
 277.378146039 383.5013617 310.284892079 378.001568713 346 378.001568716 c 0
 418.690344377 378.001568716 470.3079044 354.598736762 503.133283395 321.773357767 c 0
 533.421433994 291.485207168 548.001568716 252.804138496 548.001568716 216 c 0
 548.001568716 176.356915267 532.389938267 137.801332226 502.200514933 107.611908893 c 0
 466.798542336 72.209936296 410.982212581 47.9984312843 336 47.9984312843 c 0
 268.543339399 47.9984312843 213.25043573 73.8211141714 176.072213638 110.999336264 c 0
 142.672274699 144.399275202 123.998431284 186.92581985 123.998431284 228 c 0
 123.998431284 279.553261493 147.09472032 317.172799164 173.55301838 343.631097224 c 0
 208.294551374 378.372630219 241.078056626 389.237541271 248.428727235 393.479897504 c 1
227.909275655 401.592643791 m 1
 212.584749994 394.079612666 186.386646068 379.09214191 162.239309881 354.944805723 c 0
 133.708294955 326.413790798 108.001568716 284.728428648 108.001568716 228 c 0
 108.001568716 182.036204962 128.709436252 135.734696651 164.758505139 99.6856277649 c 0
 204.94785054 59.4962823635 264.337233697 32.0015687157 336 32.0015687157 c 0
 414.463870898 32.0015687157 474.649398531 57.4333754925 513.514223432 96.2982003936 c 0
 546.629170928 129.413147889 563.998431284 172.052643848 563.998431284 216 c 0
 563.998431284 257.043326273 547.782701256 299.751356903 514.446991894 333.087066266 c 0
 494.302965895 353.231092264 468.013427298 369.818064308 435.524237535 380.568830033 c 1
 447.635747857 388.874219501 467.736106701 403.813190478 487.67996371 423.757047487 c 0
 517.565087571 453.642171348 547.998431284 495.447166 547.998431284 544 c 0
 547.998431284 580.41807852 531.804309842 613.567862618 505.440008931 639.932163529 c 0
 466.113231025 679.258941435 404.062090805 703.998431284 336 703.998431284 c 0
 264.808648545 703.998431284 204.609971963 680.231454965 166.57808447 642.199567472 c 0
 139.703151219 615.324634221 124.001568716 581.247975368 124.001568716 544 c 0
 124.001568716 505.330154375 140.08818764 470.003948528 167.947054813 442.145081356 c 0
 184.219062155 425.873074013 204.458949321 412.131223422 227.909275655 401.592643791 c 1
EndSplineSet
EndChar

StartChar: nine
Encoding: 57 57 25
Width: 672
VWidth: 0
Flags: HW
LayerCount: 2
Fore
SplineSet
154 119.998431284 m 0
 149.696401995 119.998431284 146.001568716 116.305746097 146.001568716 112 c 0
 146.001568716 110.452174542 146.447443653 108.904349084 147.339193526 107.566724275 c 0
 147.576338661 107.211006573 152.205928125 100.320363376 161.735145751 90.7911457505 c 0
 183.941796814 68.5844946875 233.016289898 32.0015687157 314 32.0015687157 c 0
 356.232845899 32.0015687157 418.144861217 50.633321362 469.774313703 102.262773848 c 0
 521.39274172 153.881201865 561.998431284 238.131994741 561.998431284 368 c 0
 561.998431284 501.851955373 523.40806635 585.993488573 472.788254512 636.613300411 c 0
 421.607683141 687.793871782 359.077794926 703.998431284 314 703.998431284 c 0
 246.138220431 703.998431284 192.711988995 679.922786821 156.48747856 643.698276387 c 0
 120.845222341 608.056020168 102.001568716 560.921537081 102.001568716 514 c 0
 102.001568716 467.597843928 122.359723709 423.763196708 156.139669799 389.983250619 c 0
 196.085521806 350.037398611 254.885069577 324.001568716 322 324.001568716 c 0
 385.462266457 324.001568716 439.598821563 341.582519052 477.053055988 379.036753477 c 0
 506.324855679 408.308553168 524.744930588 449.141817072 529.844229421 501.337297329 c 1
 540.022463076 464.271461894 546.001568716 420.22565373 546.001568716 368 c 0
 546.001568716 241.54157008 506.732518937 161.84839608 458.460605204 113.576482347 c 0
 410.043127909 65.159005052 351.829808964 47.9984312843 314 47.9984312843 c 0
 238.183710102 47.9984312843 193.178203186 81.9755053125 173.048854249 102.104854249 c 0
 162.734328864 112.419379635 161.569344454 115.744364045 159.656854249 117.656854249 c 0
 158.095802893 119.217905606 156.047901446 119.998431284 154 119.998431284 c 0
517.724116771 537.657749442 m 0
 516.236897724 536.192640603 515.294537463 534.174500315 515.294537466 532 c 0
 515.294537466 467.984990548 496.903657092 421.514771579 465.739347489 390.350461976 c 0
 432.141222702 356.75233719 382.611226772 339.998431284 322 339.998431284 c 0
 259.091674483 339.998431284 204.30440098 364.445936435 167.453378298 401.296959117 c 0
 136.276712039 432.473625377 117.998431284 472.420760824 117.998431284 514 c 0
 117.998431284 556.60357378 135.181082038 599.764462866 167.801187059 632.384567888 c 0
 200.895340004 665.478720833 250.029198986 688.001568716 314 688.001568716 c 0
 355.438989715 688.001568716 413.82865562 672.945482305 461.474546013 625.299591912 c 0
 483.168661316 603.605476609 502.832656738 575.007744707 517.724116771 537.657749442 c 0
EndSplineSet
EndChar

StartChar: colon
Encoding: 58 58 26
Width: 288
VWidth: 0
Flags: HW
HStem: 48 48<121.906 166.094> 432 48<121.906 166.094>
VStem: 120 48<49.9059 94.0941 433.906 478.094>
LayerCount: 2
Fore
SplineSet
152 103.998431284 m 0
 164.74001548 103.998431284 175.998431284 92.7335404473 175.998431284 80 c 0
 175.998431284 59.2599845204 156.733540447 40.0015687157 136 40.0015687157 c 0
 123.25998452 40.0015687157 112.001568716 51.2664595527 112.001568716 64 c 0
 112.001568716 84.7400154796 131.266459553 103.998431284 152 103.998431284 c 0
152 487.998431284 m 0
 164.74001548 487.998431284 175.998431284 476.733540447 175.998431284 464 c 0
 175.998431284 443.25998452 156.733540447 424.001568716 136 424.001568716 c 0
 123.25998452 424.001568716 112.001568716 435.266459553 112.001568716 448 c 0
 112.001568716 468.74001548 131.266459553 487.998431284 152 487.998431284 c 0
EndSplineSet
EndChar

StartChar: semicolon
Encoding: 59 59 27
Width: 296
VWidth: 0
Flags: HW
HStem: 432 48<121.906 166.094>
VStem: 120 48<433.906 478.094>
LayerCount: 2
Fore
SplineSet
152 487.998431284 m 0
 164.74001548 487.998431284 175.998431284 476.733540447 175.998431284 464 c 0
 175.998431284 443.25998452 156.733540447 424.001568716 136 424.001568716 c 0
 123.25998452 424.001568716 112.001568716 435.266459553 112.001568716 448 c 0
 112.001568716 468.74001548 131.266459553 487.998431284 152 487.998431284 c 0
152 103.998431284 m 0
 131.25998452 103.998431284 112.001568716 84.7335404473 112.001568716 64 c 0
 112.001568716 51.2601200533 123.266927578 40.0015687157 136 40.0015687157 c 0
 148.299909078 40.0015687157 160.079007798 46.7773358859 167.6288524 56.6167750929 c 1
 163.972004265 17.3836027029 134.638386455 -52.8651146391 134.638386234 -52.8651144692 c 1
 134.213841222 -53.8640438911 134.001568716 -54.9320219456 134.001568716 -56 c 0
 134.001568716 -60.3035980053 137.694253903 -63.9984312843 142 -63.9984312843 c 0
 145.238065982 -63.9984312843 148.211627034 -61.8407366167 149.361613766 -59.1348855308 c 0
 149.485703867 -58.842908829 183.998431284 20.74714251 183.998431284 64 c 0
 183.998431284 77.8482920778 179.234885618 88.0788228806 172.656854249 94.6568542495 c 0
 166.160797002 101.152911497 158.442035586 103.998431284 152 103.998431284 c 0
EndSplineSet
EndChar

StartChar: less
Encoding: 60 60 28
Width: 640
VWidth: 0
Flags: HW
LayerCount: 2
Fore
SplineSet
121.891990247 368 m 1
 539.580113747 159.15593825 l 2
 542.068184031 157.911903108 543.998431284 155.044525322 543.998431284 152 c 0
 543.998431284 147.696401995 540.305746097 144.001568716 536 144.001568716 c 0
 534.77160515 144.001568716 533.543210299 144.282399727 532.419886253 144.84406175 c 2
 100.419886253 360.84406175 l 2
 99.0071203536 361.5504447 97.7742049166 362.780217524 96.9723937044 364.268622415 c 0
 96.3557004188 365.392735305 96.0015678361 366.666987893 96.0015687157 368 c 0
 96.0015687157 369.327999491 96.353189636 370.598031838 96.9659432398 371.719418089 c 0
 97.7674751966 373.213031939 99.0030712146 374.44753165 100.419886253 375.15593825 c 2
 532.419886253 591.15593825 l 2
 533.543210299 591.717600273 534.77160515 591.998431284 536 591.998431284 c 0
 540.303598005 591.998431284 543.998431284 588.305746097 543.998431284 584 c 0
 543.998431284 580.956083603 542.068851201 578.088430477 539.580113747 576.84406175 c 2
 121.891990247 368 l 1
EndSplineSet
EndChar

StartChar: equal
Encoding: 61 61 29
Width: 640
VWidth: 0
Flags: HW
AnchorPoint: "middle" 320 368 basechar 0
LayerCount: 2
Fore
SplineSet
543.998431284 488 m 0
 543.998431284 483.696401995 540.305746097 480.001568716 536 480.001568716 c 2
 104 480.001568716 l 2
 99.6964019947 480.001568716 96.0015687157 483.694253903 96.0015687157 488 c 0
 96.0015687157 492.303598005 99.6942539034 495.998431284 104 495.998431284 c 2
 536 495.998431284 l 2
 540.303598005 495.998431284 543.998431284 492.305746097 543.998431284 488 c 0
543.998431284 248 m 0
 543.998431284 243.696401995 540.305746097 240.001568716 536 240.001568716 c 2
 104 240.001568716 l 2
 99.6964019947 240.001568716 96.0015687157 243.694253903 96.0015687157 248 c 0
 96.0015687157 252.303598005 99.6942539034 255.998431284 104 255.998431284 c 2
 536 255.998431284 l 2
 540.303598005 255.998431284 543.998431284 252.305746097 543.998431284 248 c 0
EndSplineSet
EndChar

StartChar: greater
Encoding: 62 62 30
Width: 640
VWidth: 0
Flags: HW
LayerCount: 2
Fore
SplineSet
543.027606296 371.731377585 m 0
 543.644299581 370.607264695 543.998432164 369.333012107 543.998431284 368 c 0
 543.998431284 366.672000509 543.646810364 365.401968162 543.03405676 364.280581911 c 0
 542.232524803 362.786968061 540.996928785 361.55246835 539.580113747 360.84406175 c 2
 107.580113747 144.84406175 l 2
 106.456789701 144.282399727 105.22839485 144.001568716 104 144.001568716 c 0
 99.6964019947 144.001568716 96.0015687157 147.694253903 96.0015687157 152 c 0
 96.0015687157 155.043916397 97.9311487987 157.911569523 100.419886253 159.15593825 c 2
 518.108009753 368 l 1
 100.419886253 576.84406175 l 2
 97.931815969 578.088096892 96.0015687157 580.955474678 96.0015687157 584 c 0
 96.0015687157 588.303598005 99.6942539034 591.998431284 104 591.998431284 c 0
 105.22839485 591.998431284 106.456789701 591.717600273 107.580113747 591.15593825 c 2
 539.580113747 375.15593825 l 2
 540.992879646 374.4495553 542.225795083 373.219782476 543.027606296 371.731377585 c 0
EndSplineSet
EndChar

StartChar: question
Encoding: 63 63 31
Width: 640
VWidth: 0
Flags: HW
HStem: 48 48<281.906 326.094>
VStem: 280 48<49.9059 94.0941>
LayerCount: 2
Fore
SplineSet
304 232.001568716 m 0
 299.696401995 232.001568716 296.001568716 235.694253903 296.001568716 240 c 0
 296.001568716 313.677455351 306.366197358 356.401493266 340.780029959 390.815325867 c 0
 355.142317267 405.177613175 373.287422912 417.816926374 396.00111076 430.930616333 c 0
 420.167473147 444.882997529 439.836892742 458.012251192 454.505787997 472.681146447 c 0
 476.330346369 494.505704819 488.001568716 519.920267614 488.001568716 560 c 0
 488.001568716 592.525431209 476.569891024 618.694843849 456.302138267 638.962596606 c 0
 424.817868069 670.446866805 370.804528473 688.001568716 304 688.001568716 c 0
 243.780660068 688.001568716 192.057821441 670.927862294 159.191189247 638.061230101 c 0
 134.643917597 613.513958451 119.998431284 579.850312095 119.998431284 536 c 0
 119.998431284 531.696401995 116.305746097 528.001568716 112 528.001568716 c 0
 107.696401995 528.001568716 104.001568716 531.694253903 104.001568716 536 c 0
 104.001568716 648.753211525 194.098898186 703.998431284 304 703.998431284 c 0
 373.316007033 703.998431284 431.789529236 686.102622635 467.615846766 650.276305105 c 0
 490.803832573 627.088319298 503.998431284 596.522719464 503.998431284 560 c 0
 503.998431284 516.416452508 490.455294699 486.003236151 465.819496496 461.367437948 c 0
 449.461311503 445.009252955 428.628331202 431.289122549 403.99888924 417.069383667 c 0
 381.928340484 404.327008427 364.964593269 392.372472179 352.093738458 379.501617368 c 0
 321.924064665 349.331943575 311.998431284 312.629010281 311.998431284 240 c 0
 311.998431284 235.696401995 308.305746097 232.001568716 304 232.001568716 c 0
312 103.998431284 m 0
 324.74001548 103.998431284 335.998431284 92.7335404473 335.998431284 80 c 0
 335.998431284 59.2599845204 316.733540447 40.0015687157 296 40.0015687157 c 0
 283.25998452 40.0015687157 272.001568716 51.2664595527 272.001568716 64 c 0
 272.001568716 84.7400154796 291.266459553 103.998431284 312 103.998431284 c 0
EndSplineSet
EndChar

StartChar: at
Encoding: 64 64 32
Width: 880
VWidth: 0
Flags: HW
LayerCount: 2
Fore
SplineSet
119.998431284 368 m 0
 119.998431284 191.274744953 263.274678239 47.9984312843 440 47.9984312843 c 0
 488.199591025 47.9984312843 533.876181956 58.6446504362 574.86628691 77.7233103651 c 0
 575.934545232 78.2205263946 577.090319491 78.4691344093 578.24609375 78.4691344093 c 0
 582.549691755 78.4691344093 586.244525034 74.7764492216 586.244525034 70.470703125 c 0
 586.244525034 67.3379895867 584.206763299 64.4193468211 581.62590059 63.2180958849 c 0
 538.594521168 43.1893339388 490.585565225 32.0015687157 440 32.0015687157 c 0
 254.426426923 32.0015687157 104.001568716 182.426493637 104.001568716 368 c 0
 104.001568716 553.573573077 254.426493637 703.998431284 440 703.998431284 c 0
 625.573573077 703.998431284 775.998431284 553.573506363 775.998431284 368 c 0
 775.998431284 324.842248379 773.870072161 280.859046496 751.62190017 242.32511749 c 0
 748.091594357 236.210854384 743.680076386 230.633845308 738.644998382 225.598767304 c 0
 717.087945044 204.041713966 684.138882281 192.001568716 656 192.001568716 c 0
 623.767985723 192.001568716 591.163329019 204.771641241 570.43520241 225.499767849 c 0
 560.665906974 235.269063286 553.424984358 247.03794568 550.651842484 260.169666054 c 1
 526.335450536 217.689361631 484.719995797 182.119732778 430.352539062 182.119732778 c 0
 395.371063378 182.119732778 363.427641501 197.380141384 338.41651034 222.391272545 c 0
 304.146157312 256.661625573 282.589459341 309.247459346 282.589459341 368 c 0
 282.589459341 426.752540654 304.146157312 479.338374427 338.41651034 513.608727455 c 0
 363.427641501 538.619858616 395.371063378 553.880267222 430.352539062 553.880267222 c 0
 465.343158636 553.880267222 497.291621327 538.629713524 522.303736981 513.61759787 c 0
 532.571192857 503.350141994 541.68145503 491.448264414 549.413678091 478.235125923 c 1
 549.413678091 539.529296875 l 2
 549.413678091 543.83289488 553.106363278 547.527728159 557.412109375 547.527728159 c 0
 561.71570738 547.527728159 565.410540659 543.835042972 565.410540659 539.529296875 c 2
 565.410540659 272 l 2
 565.410540659 259.323348904 571.323480979 247.238906278 581.748910909 236.813476348 c 0
 598.940440287 219.621946971 627.895929857 207.998431284 656 207.998431284 c 0
 685.845029226 207.998431284 723.30336649 225.283778445 737.76091233 250.32332001 c 0
 757.542037215 284.58431288 760.001568716 325.173376621 760.001568716 368 c 0
 760.001568716 544.725255047 616.725321761 688.001568716 440 688.001568716 c 0
 263.274744953 688.001568716 119.998431284 544.725321761 119.998431284 368 c 0
549.413678091 440.909143532 m 2
 549.306409889 441.126108665 549.210399727 441.347319928 549.126432592 441.571937312 c 0
 531.06591694 489.884955973 488.960625823 537.883404654 430.352539062 537.883404654 c 0
 400.214114549 537.883404654 372.238294206 524.803094324 349.730218839 502.295018956 c 0
 318.866609282 471.431409399 298.586321909 422.851062605 298.586321909 368 c 0
 298.586321909 313.148937395 318.866609282 264.568590601 349.730218839 233.704981044 c 0
 372.238294206 211.196905676 400.214114549 198.116595346 430.352539062 198.116595346 c 0
 488.898445409 198.116595346 531.074508232 246.190646205 549.122299692 294.430067929 c 0
 549.207355987 294.657412448 549.30475336 294.881271266 549.413678091 295.100771552 c 2
 549.413678091 440.909143532 l 2
EndSplineSet
EndChar

StartChar: A
Encoding: 65 65 33
Width: 688
VWidth: 0
Flags: HW
AnchorPoint: "above" 344 784 basechar 0
LayerCount: 2
Fore
SplineSet
88.0015687157 48 m 0
 88.0015687157 43.6964019947 91.6942539034 40.0015687157 96 40.0015687157 c 0
 99.454871177 40.0015687157 102.543383197 42.423552942 103.563380645 45.390818246 c 2
 151.210826119 184.001568716 l 1
 536.789173881 184.001568716 l 1
 584.436619355 45.390818246 l 2
 585.456511593 42.4238590084 588.543637183 40.0015687157 592 40.0015687157 c 0
 596.303598005 40.0015687157 599.998431284 43.6942539034 599.998431284 48 c 0
 599.998431284 48.8827235906 599.853414405 49.7654471813 599.563380645 50.609181754 c 2
 379.563380645 690.609181754 l 2
 378.543488407 693.576140992 375.456362817 695.998431284 372 695.998431284 c 2
 316 695.998431284 l 2
 312.545128823 695.998431284 309.456616803 693.576447058 308.436619355 690.609181754 c 2
 88.4366193547 50.609181754 l 2
 88.1465855954 49.7654471813 88.0015687157 48.8827235906 88.0015687157 48 c 0
531.290252373 199.998431284 m 1
 156.709747627 199.998431284 l 1
 321.710826119 680.001568716 l 1
 366.289173881 680.001568716 l 1
 531.290252373 199.998431284 l 1
EndSplineSet
EndChar

StartChar: B
Encoding: 66 66 34
Width: 696
VWidth: 0
Flags: HW
AnchorPoint: "above" 348 784 basechar 0
LayerCount: 2
Fore
SplineSet
460.958860894 390.150675923 m 1
 523.993201515 412.192346254 567.998431284 468.123173246 567.998431284 538 c 0
 567.998431284 628.736795092 493.724254067 695.998431284 400 695.998431284 c 2
 144 695.998431284 l 2
 139.696401995 695.998431284 136.001568716 692.305746097 136.001568716 688 c 2
 136.001568716 48 l 2
 136.001568716 43.6964019947 139.694253903 40.0015687157 144 40.0015687157 c 2
 416 40.0015687157 l 2
 464.104434812 40.0015687157 502.810402323 58.529105488 530.720512274 86.4392154385 c 0
 565.912930994 121.631634158 583.998431284 171.333432461 583.998431284 218 c 0
 583.998431284 264.666567539 565.912930994 314.368365842 530.720512274 349.560784562 c 0
 512.12247821 368.158818625 488.730774199 382.590721483 460.958860894 390.150675923 c 1
151.998431284 395.998051467 m 1
 151.998431284 680.001568716 l 1
 400 680.001568716 l 2
 446.524133323 680.001568716 484.791733524 662.903085848 511.293892537 636.400926834 c 0
 537.213862376 610.480956995 552.001568716 575.39721164 552.001568716 538 c 0
 552.001568716 500.60278836 537.213862376 465.519043005 511.293892537 439.599073166 c 0
 484.791733524 413.096914152 446.524133323 395.998431284 400 395.998431284 c 0
 317.332810428 395.998431284 234.665620856 395.998051467 151.998431284 395.998051467 c 1
151.998431284 380.001948533 m 1
 234.665620856 380.001948533 317.332810428 380.001568716 400 380.001568716 c 0
 404.511145414 380.001568716 408.977121775 380.157232209 413.391831526 380.463690364 c 0
 414.214937662 380.165196119 415.093893988 380.001568716 416 380.001568716 c 0
 459.811786674 380.001568716 494.275165413 363.378714424 519.406803775 338.247076063 c 0
 551.202414628 306.45146521 568.001568716 260.628646703 568.001568716 218 c 0
 568.001568716 175.371353297 551.202414628 129.54853479 519.406803775 97.7529239375 c 0
 494.275165413 72.621285576 459.811786674 55.9984312843 416 55.9984312843 c 2
 151.998431284 55.9984312843 l 1
 151.998431284 380.001948533 l 1
EndSplineSet
EndChar

StartChar: C
Encoding: 67 67 35
Width: 684
VWidth: 0
Flags: HW
AnchorPoint: "bottom" 368 40 basechar 0
AnchorPoint: "above" 368 784 basechar 0
LayerCount: 2
Fore
SplineSet
555.998431284 576 m 0
 555.998431284 571.696401995 552.305746097 568.001568716 548 568.001568716 c 0
 544.608645092 568.001568716 541.553372499 570.340336936 540.490871482 573.238066439 c 2
 540.490871482 573.238066439 529.144975463 604.711069125 498.51804287 635.338001718 c 0
 471.425680522 662.430364065 429.827288566 688.001568716 368 688.001568716 c 0
 314.335603788 688.001568716 264.556117214 664.468584434 224.226765412 624.139232632 c 0
 166.100108828 566.012576048 127.998431284 473.031342194 127.998431284 368 c 0
 127.998431284 263.060366626 166.371079912 170.130443269 224.51700091 111.984522271 c 0
 264.929479827 71.5720433535 314.694079091 47.9984312843 368 47.9984312843 c 0
 425.702146376 47.9984312843 468.998514715 73.4308702553 499.708158931 104.140514471 c 0
 521.152047143 125.584402683 536.350441277 149.628020408 545.502607554 168.78859797 c 0
 552.806979206 184.080713012 556.001568716 196.660151239 556.001568716 200 c 0
 556.001568716 204.303598005 559.694253903 207.998431284 564 207.998431284 c 0
 568.303598005 207.998431284 571.998431284 204.305746097 571.998431284 200 c 0
 571.998431284 191.454683946 567.835877945 178.415624039 559.940181371 161.885536841 c 0
 550.092262364 141.2683616 534.036000312 115.840938854 511.02186743 92.8268059724 c 0
 478.115702594 59.920641136 430.762002226 32.0015687157 368 32.0015687157 c 0
 309.760824246 32.0015687157 256.05275889 57.8213472932 213.203292411 100.670813772 c 0
 151.578933944 162.295172239 112.001568716 259.216753059 112.001568716 368 c 0
 112.001568716 476.838819654 151.283575285 573.823459503 212.913056913 635.452941131 c 0
 255.696018301 678.235902519 309.437707047 703.998431284 368 703.998431284 c 0
 434.617155879 703.998431284 480.432344169 676.051117416 509.831751369 646.651710217 c 0
 542.664674206 613.818787379 555.278960052 579.389665623 555.509128518 578.761933561 c 0
 555.835330362 577.872292334 555.998431284 576.936146167 555.998431284 576 c 0
EndSplineSet
EndChar

StartChar: D
Encoding: 68 68 36
Width: 696
VWidth: 0
Flags: HW
HStem: 48 21G<144 384> 668 20G<144 384>
VStem: 144 432<226.215 509.777>
AnchorPoint: "above" 348 784 basechar 0
LayerCount: 2
Fore
SplineSet
144 40.0015687157 m 2
 139.696401995 40.0015687157 136.001568716 43.6942539034 136.001568716 48 c 2
 136.001568716 688 l 2
 136.001568716 692.303598005 139.694253903 695.998431284 144 695.998431284 c 2
 352 695.998431284 l 2
 386.345693681 695.998431284 444.077083274 679.236625225 493.656854249 629.656854249 c 0
 543.316684384 579.997024115 583.998431284 497.714086689 583.998431284 368 c 0
 583.998431284 238.2802788 543.31927498 155.99824215 493.66124841 106.34021558 c 0
 444.080221823 56.7591889934 386.346072551 40.0015687157 352 40.0015687157 c 2
 144 40.0015687157 l 2
352 55.9984312843 m 2
 381.655880419 55.9984312843 435.926613617 71.2329977854 482.347539911 117.653924079 c 0
 528.685607371 163.991991539 568.001568716 241.708002426 568.001568716 368 c 0
 568.001568716 494.285913311 528.683315616 572.002975885 482.343145751 618.343145751 c 0
 435.922916726 664.763374775 381.654306319 680.001568716 352 680.001568716 c 2
 144 680.001568716 l 1
 151.998431284 688 l 1
 151.998431284 48 l 1
 144 55.9984312843 l 1
 352 55.9984312843 l 2
EndSplineSet
EndChar

StartChar: E
Encoding: 69 69 37
Width: 696
VWidth: 0
Flags: HW
AnchorPoint: "bottom" 348 48 basechar 0
AnchorPoint: "above" 348 784 basechar 0
LayerCount: 2
Fore
SplineSet
439.998431284 388 m 0
 439.998431284 392.305746097 436.303598005 395.998431284 432 395.998431284 c 2
 151.998431284 395.998431284 l 1
 151.998431284 680.001568716 l 1
 560 680.001568716 l 2
 564.303598005 680.001568716 567.998431284 683.694253903 567.998431284 688 c 0
 567.998431284 692.303598005 564.305746097 695.998431284 560 695.998431284 c 2
 144 695.998431284 l 2
 139.696401995 695.998431284 136.001568716 692.305746097 136.001568716 688 c 2
 136.001568716 48 l 2
 136.001568716 43.6964019947 139.694253903 40.0015687157 144 40.0015687157 c 2
 576 40.0015687157 l 2
 580.303598005 40.0015687157 583.998431284 43.6942539034 583.998431284 48 c 0
 583.998431284 52.3035980053 580.305746097 55.9984312843 576 55.9984312843 c 2
 151.998431284 55.9984312843 l 1
 151.998431284 380.001568716 l 1
 432 380.001568716 l 2
 436.305746097 380.001568716 439.998431284 383.696401995 439.998431284 388 c 0
EndSplineSet
EndChar

StartChar: F
Encoding: 70 70 38
Width: 664
VWidth: 0
Flags: HW
AnchorPoint: "above" 332 784 basechar 0
LayerCount: 2
Fore
SplineSet
447.998431284 388 m 0
 447.998431284 392.305746097 444.303598005 395.998431284 440 395.998431284 c 2
 151.998431284 395.998431284 l 1
 151.998431284 680.001568716 l 1
 544 680.001568716 l 2
 548.303598005 680.001568716 551.998431284 683.694253903 551.998431284 688 c 0
 551.998431284 692.303598005 548.305746097 695.998431284 544 695.998431284 c 2
 144 695.998431284 l 2
 139.696401995 695.998431284 136.001568716 692.305746097 136.001568716 688 c 2
 136.001568716 48 l 2
 136.001568716 43.6964019947 139.694253903 40.0015687157 144 40.0015687157 c 0
 148.303598005 40.0015687157 151.998431284 43.6942539034 151.998431284 48 c 2
 151.998431284 380.001568716 l 1
 440 380.001568716 l 2
 444.305746097 380.001568716 447.998431284 383.696401995 447.998431284 388 c 0
EndSplineSet
EndChar

StartChar: G
Encoding: 71 71 39
Width: 672
VWidth: 0
Flags: HW
AnchorPoint: "above" 368 784 basechar 0
LayerCount: 2
Fore
SplineSet
548 568.001568716 m 0
 552.303598005 568.001568716 555.998431284 571.694253903 555.998431284 576 c 0
 555.998431284 576.936146009 555.835330417 577.872292019 555.509128682 578.761933112 c 0
 555.278959915 579.389666114 542.66467434 613.818787246 509.831751369 646.651710217 c 0
 480.432344169 676.051117416 434.617155879 703.998431284 368 703.998431284 c 0
 309.437707047 703.998431284 255.696018301 678.235902519 212.913056913 635.452941131 c 0
 151.283575285 573.823459503 112.001568716 476.838819654 112.001568716 368 c 0
 112.001568716 259.216753059 151.578933944 162.295172239 213.203292411 100.670813772 c 0
 256.05275889 57.8213472932 309.760824246 32.0015687157 368 32.0015687157 c 0
 438.940829605 32.0015687157 488.724421387 65.215157332 519.444113509 95.9348494542 c 0
 546.351039257 122.841775202 558.907089631 147.922189017 559.155938249 148.419886251 c 0
 559.717600272 149.543210297 559.998431284 150.771605149 559.998431284 152 c 2
 559.998431284 344 l 2
 559.998431284 348.303598005 556.305746097 351.998431284 552 351.998431284 c 2
 384 351.998431284 l 2
 379.696401995 351.998431284 376.001568716 348.305746097 376.001568716 344 c 0
 376.001568716 339.696401995 379.694253903 336.001568716 384 336.001568716 c 2
 552 336.001568716 l 1
 544.001568716 344 l 1
 544.001568716 152 l 1
 544.844061751 155.580113749 l 1
 544.844061751 155.580113749 533.538050289 132.656203232 508.13040501 107.248557953 c 0
 479.38224528 78.5003982236 433.592503728 47.9984312843 368 47.9984312843 c 0
 314.694079091 47.9984312843 264.929479827 71.5720433535 224.51700091 111.984522271 c 0
 166.371079912 170.130443269 127.998431284 263.060366626 127.998431284 368 c 0
 127.998431284 473.031342194 166.100108828 566.012576048 224.226765412 624.139232632 c 0
 264.556117214 664.468584434 314.335603788 688.001568716 368 688.001568716 c 0
 429.827288566 688.001568716 471.425680522 662.430364065 498.51804287 635.338001718 c 0
 532.202060152 601.653984435 538.57515953 574.111131971 542.343145751 570.343145751 c 0
 543.904197107 568.782094394 545.952098554 568.001568716 548 568.001568716 c 0
EndSplineSet
EndChar

StartChar: H
Encoding: 72 72 40
Width: 712
VWidth: 0
Flags: HW
AnchorPoint: "above" 356 784 basechar 0
LayerCount: 2
Fore
SplineSet
568 40.0015687157 m 0
 563.696401995 40.0015687157 560.001568716 43.6942539034 560.001568716 48 c 2
 560.001568716 380.001568716 l 1
 151.998431284 380.001568716 l 1
 151.998431284 48 l 2
 151.998431284 43.6964019947 148.305746097 40.0015687157 144 40.0015687157 c 0
 139.696401995 40.0015687157 136.001568716 43.6942539034 136.001568716 48 c 2
 136.001568716 688 l 2
 136.001568716 692.303598005 139.694253903 695.998431284 144 695.998431284 c 0
 148.303598005 695.998431284 151.998431284 692.305746097 151.998431284 688 c 2
 151.998431284 395.998431284 l 1
 560.001568716 395.998431284 l 1
 560.001568716 688 l 2
 560.001568716 692.303598005 563.694253903 695.998431284 568 695.998431284 c 0
 572.303598005 695.998431284 575.998431284 692.305746097 575.998431284 688 c 2
 575.998431284 48 l 2
 575.998431284 43.6964019947 572.305746097 40.0015687157 568 40.0015687157 c 0
EndSplineSet
EndChar

StartChar: I
Encoding: 73 73 41
Width: 336
VWidth: 0
Flags: HW
AnchorPoint: "above" 168 784 basechar 0
LayerCount: 2
Fore
SplineSet
168 40.0015687157 m 0
 163.696401995 40.0015687157 160.001568716 43.6942539034 160.001568716 48 c 2
 160.001568716 688 l 2
 160.001568716 692.303598005 163.694253903 695.998431284 168 695.998431284 c 0
 172.303598005 695.998431284 175.998431284 692.305746097 175.998431284 688 c 2
 175.998431284 48 l 2
 175.998431284 43.6964019947 172.305746097 40.0015687157 168 40.0015687157 c 0
EndSplineSet
EndChar

StartChar: J
Encoding: 74 74 42
Width: 544
VWidth: 0
Flags: HW
AnchorPoint: "above" 272 784 basechar 0
LayerCount: 2
Fore
SplineSet
400 695.998431284 m 0
 404.303598005 695.998431284 407.998431284 692.305746097 407.998431284 688 c 2
 407.998431284 240 l 2
 407.998431284 173.064223995 383.81712685 113.284732603 345.544413342 75.012019096 c 0
 318.793544189 48.2611499425 284.973164102 32.0015687157 248 32.0015687157 c 0
 207.695223241 32.0015687157 170.997510878 49.1338828674 143.042101067 77.0892926785 c 0
 109.175408048 110.955985698 88.0015687157 160.687109052 88.0015687157 216 c 2
 88.0015687157 280 l 2
 88.0015687157 284.303598005 91.6942539034 287.998431284 96 287.998431284 c 0
 100.303598005 287.998431284 103.998431284 284.305746097 103.998431284 280 c 2
 103.998431284 216 l 2
 103.998431284 164.809112387 123.674763818 119.084046925 154.355809566 88.4030011775 c 0
 179.673436358 63.0853743857 212.390732902 47.9984312843 248 47.9984312843 c 0
 280.082442771 47.9984312843 309.939895992 62.0349187432 334.230704843 86.325727595 c 0
 369.013674731 121.108697483 392.001568716 176.884438689 392.001568716 240 c 2
 392.001568716 688 l 2
 392.001568716 692.303598005 395.694253903 695.998431284 400 695.998431284 c 0
EndSplineSet
EndChar

StartChar: K
Encoding: 75 75 43
Width: 672
VWidth: 0
Flags: HW
AnchorPoint: "above" 336 784 basechar 0
LayerCount: 2
Fore
SplineSet
144 40.0015687157 m 0
 139.696401995 40.0015687157 136.001568716 43.6942539034 136.001568716 48 c 2
 136.001568716 688 l 2
 136.001568716 692.303598005 139.694253903 695.998431284 144 695.998431284 c 0
 148.303598005 695.998431284 151.998431284 692.305746097 151.998431284 688 c 2
 151.998431284 299.087460207 l 1
 554.399633635 693.712793913 l 2
 555.953416675 695.236552161 557.976708338 695.998431284 560 695.998431284 c 0
 564.303598005 695.998431284 567.998431284 692.305746097 567.998431284 688 c 0
 567.998431284 685.952098554 567.233332003 683.888616834 565.600366365 682.287206087 c 2
 312.061824335 433.647959555 l 1
 582.528651708 52.6253487288 l 2
 583.508504759 51.2449718035 583.998431284 49.6224859017 583.998431284 48 c 0
 583.998431284 43.6964019947 580.305746097 40.0015687157 576 40.0015687157 c 0
 573.447614276 40.0015687157 570.887554277 41.3795581675 569.471348292 43.3746512712 c 2
 300.492023296 422.30172955 l 1
 151.998431284 276.67757893 l 1
 151.998431284 48 l 2
 151.998431284 43.6964019947 148.305746097 40.0015687157 144 40.0015687157 c 0
EndSplineSet
EndChar

StartChar: L
Encoding: 76 76 44
Width: 656
VWidth: 0
Flags: HW
AnchorPoint: "above" 328 784 basechar 0
LayerCount: 2
Fore
SplineSet
144 695.998431284 m 0
 139.696401995 695.998431284 136.001568716 692.305746097 136.001568716 688 c 2
 136.001568716 48 l 2
 136.001568716 43.6964019947 139.694253903 40.0015687157 144 40.0015687157 c 2
 560 40.0015687157 l 2
 564.303598005 40.0015687157 567.998431284 43.6942539034 567.998431284 48 c 0
 567.998431284 52.3035980053 564.305746097 55.9984312843 560 55.9984312843 c 2
 151.998431284 55.9984312843 l 1
 151.998431284 688 l 2
 151.998431284 692.303598005 148.305746097 695.998431284 144 695.998431284 c 0
EndSplineSet
EndChar

StartChar: M
Encoding: 77 77 45
Width: 830
VWidth: 0
Flags: HW
AnchorPoint: "above" 415 784 basechar 0
LayerCount: 2
Fore
SplineSet
144 40.0015687157 m 0
 148.303598005 40.0015687157 151.998431284 43.6942539034 151.998431284 48 c 2
 151.998431284 680.001568716 l 1
 178.389044621 680.001568716 l 1
 408.480839625 45.2655824975 l 2
 409.536197947 42.3542491967 412.596588443 40.0015687157 416 40.0015687157 c 0
 419.402327465 40.0015687157 422.463579135 42.353634249 423.519160375 45.2655824975 c 2
 653.610955379 680.001568716 l 1
 680.001568716 680.001568716 l 1
 680.001568716 48 l 2
 680.001568716 43.6964019947 683.694253903 40.0015687157 688 40.0015687157 c 0
 692.303598005 40.0015687157 695.998431284 43.6942539034 695.998431284 48 c 2
 695.998431284 688 l 2
 695.998431284 692.303598005 692.305746097 695.998431284 688 695.998431284 c 2
 648 695.998431284 l 2
 644.597672535 695.998431284 641.536420865 693.646365751 640.480839625 690.734417503 c 2
 416 71.4769288817 l 1
 191.519160375 690.734417503 l 2
 190.463802053 693.645750803 187.403411557 695.998431284 184 695.998431284 c 2
 144 695.998431284 l 2
 139.696401995 695.998431284 136.001568716 692.305746097 136.001568716 688 c 2
 136.001568716 48 l 2
 136.001568716 43.6964019947 139.694253903 40.0015687157 144 40.0015687157 c 0
EndSplineSet
EndChar

StartChar: N
Encoding: 78 78 46
Width: 720
VWidth: 0
Flags: HW
AnchorPoint: "above" 360 784 basechar 0
LayerCount: 2
Fore
SplineSet
144 40.0015687157 m 0
 148.303598005 40.0015687157 151.998431284 43.6942539034 151.998431284 48 c 2
 151.998431284 680.001568716 l 1
 179.31855438 680.001568716 l 1
 537.025357093 44.0783638937 l 2
 538.328681864 41.7613420777 541.111927709 40.0015687157 544 40.0015687157 c 2
 576 40.0015687157 l 2
 580.303598005 40.0015687157 583.998431284 43.6942539034 583.998431284 48 c 2
 583.998431284 688 l 2
 583.998431284 692.303598005 580.305746097 695.998431284 576 695.998431284 c 0
 571.696401995 695.998431284 568.001568716 692.305746097 568.001568716 688 c 2
 568.001568716 55.9984312843 l 1
 548.68144562 55.9984312843 l 1
 190.974642907 691.921636106 l 2
 189.671318136 694.238657922 186.888072291 695.998431284 184 695.998431284 c 2
 144 695.998431284 l 2
 139.696401995 695.998431284 136.001568716 692.305746097 136.001568716 688 c 2
 136.001568716 48 l 2
 136.001568716 43.6964019947 139.694253903 40.0015687157 144 40.0015687157 c 0
EndSplineSet
EndChar

StartChar: O
Encoding: 79 79 47
Width: 736
VWidth: 0
Flags: HW
HStem: 40 656<282.729 453.271>
VStem: 120 496<233.016 502.984>
AnchorPoint: "middle" 368 368 basechar 0
AnchorPoint: "above" 368 784 basechar 0
LayerCount: 2
Fore
SplineSet
623.998431284 368 m 0
 623.998431284 259.161180346 584.716424715 162.176540497 523.086943087 100.547058869 c 0
 480.303981699 57.7640974806 426.562292953 32.0015687157 368 32.0015687157 c 0
 309.437707047 32.0015687157 255.696018301 57.7640974806 212.913056913 100.547058869 c 0
 151.283575285 162.176540497 112.001568716 259.161180346 112.001568716 368 c 0
 112.001568716 476.838819654 151.283575285 573.823459503 212.913056913 635.452941131 c 0
 255.696018301 678.235902519 309.437707047 703.998431284 368 703.998431284 c 0
 426.562292953 703.998431284 480.303981699 678.235902519 523.086943087 635.452941131 c 0
 584.716424715 573.823459503 623.998431284 476.838819654 623.998431284 368 c 0
608.001568716 368 m 0
 608.001568716 473.031342194 569.899891172 566.012576048 511.773234588 624.139232632 c 0
 471.443882786 664.468584434 421.664396212 688.001568716 368 688.001568716 c 0
 314.335603788 688.001568716 264.556117214 664.468584434 224.226765412 624.139232632 c 0
 166.100108828 566.012576048 127.998431284 473.031342194 127.998431284 368 c 0
 127.998431284 262.968657806 166.100108828 169.987423952 224.226765412 111.860767368 c 0
 264.556117214 71.5314155664 314.335603788 47.9984312843 368 47.9984312843 c 0
 421.664396212 47.9984312843 471.443882786 71.5314155664 511.773234588 111.860767368 c 0
 569.899891172 169.987423952 608.001568716 262.968657806 608.001568716 368 c 0
EndSplineSet
EndChar

StartChar: P
Encoding: 80 80 48
Width: 680
VWidth: 0
Flags: HW
AnchorPoint: "above" 340 784 basechar 0
LayerCount: 2
Fore
SplineSet
151.998431284 680.001568716 m 1
 384 680.001568716 l 2
 481.728398449 680.001568716 552.001568716 622.195216702 552.001568716 520 c 0
 552.001568716 417.782327858 481.752111846 359.998431284 384 359.998431284 c 2
 151.998431284 359.998431284 l 1
 151.998431284 680.001568716 l 1
144 40.0015687157 m 0
 148.303598005 40.0015687157 151.998431284 43.6942539034 151.998431284 48 c 2
 151.998431284 344.001568716 l 1
 384 344.001568716 l 2
 437.286057059 344.001568716 486.482134217 360.710465436 520.744450163 394.972781381 c 0
 550.196168959 424.424500177 567.998431284 466.444037442 567.998431284 520 c 0
 567.998431284 573.555962558 550.196168959 615.575499823 520.744450163 645.027218619 c 0
 486.482134217 679.289534564 437.286057059 695.998431284 384 695.998431284 c 2
 144 695.998431284 l 2
 139.696401995 695.998431284 136.001568716 692.305746097 136.001568716 688 c 2
 136.001568716 48 l 2
 136.001568716 43.6964019947 139.694253903 40.0015687157 144 40.0015687157 c 0
EndSplineSet
EndChar

StartChar: Q
Encoding: 81 81 49
Width: 736
VWidth: 0
Flags: HW
HStem: 40 656<282.729 453.271>
VStem: 120 496<233.016 502.984>
AnchorPoint: "above" 368 784 basechar 0
LayerCount: 2
Fore
SplineSet
577.998431284 3 m 0
 577.998431284 -1.30359800531 574.305746097 -4.99843128432 570 -4.99843128432 c 0
 569.672515938 -4.99843128432 569.345031876 -4.97847179493 569.019538664 -4.93855281614 c 0
 540.259151987 -1.41133558206 519.51768657 9.81296585691 504.18027207 25.1503803571 c 0
 492.706858587 36.62379384 484.32977518 50.1082168996 477.377383551 64.0698931576 c 1
 444.313392521 43.5675811403 407.238794386 32.0015687157 368 32.0015687157 c 0
 309.437707047 32.0015687157 255.696018301 57.7640974806 212.913056913 100.547058869 c 0
 151.283575285 162.176540497 112.001568716 259.161180346 112.001568716 368 c 0
 112.001568716 476.838819654 151.283575285 573.823459503 212.913056913 635.452941131 c 0
 255.696018301 678.235902519 309.437707047 703.998431284 368 703.998431284 c 0
 426.562292953 703.998431284 480.303981699 678.235902519 523.086943087 635.452941131 c 0
 584.716424715 573.823459503 623.998431284 476.838819654 623.998431284 368 c 0
 623.998431284 259.161180346 584.716424715 162.176540497 523.086943087 100.547058869 c 0
 512.937519445 90.397635227 502.171357107 81.2060928314 490.870405745 73.0891468211 c 1
 506.428348588 41.3265421371 526.742403192 16.3639750412 570.980461336 10.9385528161 c 0
 574.784666897 10.4719993039 577.998431284 7.02712778969 577.998431284 3 c 0
608.001568716 368 m 0
 608.001568716 473.031342194 569.899891172 566.012576048 511.773234588 624.139232632 c 0
 471.443882786 664.468584434 421.664396212 688.001568716 368 688.001568716 c 0
 314.335603788 688.001568716 264.556117214 664.468584434 224.226765412 624.139232632 c 0
 166.100108828 566.012576048 127.998431284 473.031342194 127.998431284 368 c 0
 127.998431284 262.968657806 166.100108828 169.987423952 224.226765412 111.860767368 c 0
 264.556117214 71.5314155664 314.335603788 47.9984312843 368 47.9984312843 c 0
 404.59286575 47.9984312843 439.379384127 58.9404475147 470.595089261 78.6886220213 c 1
 468.20463411 84.1582684629 465.941271428 89.6197831816 463.707592341 94.9837918916 c 0
 454.256914854 117.67886777 445.293871491 138.566151832 431.550293544 152.309729778 c 0
 427.338435182 156.52158814 422.679121439 160.107532031 417.345273292 162.99596418 c 0
 414.97267733 164.280793119 413.156842154 167.092237394 413.156842154 170.032226562 c 0
 413.156842154 174.335824567 416.849527341 178.030657846 421.155273438 178.030657846 c 0
 422.46801878 178.030657846 423.780764122 177.709934879 424.965273584 177.068488944 c 0
 453.150552982 161.805349669 466.128703814 130.797248177 478.475756085 101.146750787 c 0
 480.337616794 96.6756353431 482.189085047 92.2584758888 484.071609718 87.9228152939 c 1
 493.717145892 95.0551756013 502.970312894 103.057845674 511.773234588 111.860767368 c 0
 569.899891172 169.987423952 608.001568716 262.968657806 608.001568716 368 c 0
EndSplineSet
EndChar

StartChar: R
Encoding: 82 82 50
Width: 704
VWidth: 0
Flags: HW
AnchorPoint: "above" 352 784 basechar 0
LayerCount: 2
Fore
SplineSet
151.998431284 680.001568716 m 1
 408 680.001568716 l 2
 506.237235812 680.001568716 576.001568716 638.284080745 576.001568716 536 c 0
 576.001568716 433.692594504 506.257612334 391.998431284 408 391.998431284 c 2
 151.998431284 391.998431284 l 1
 151.998431284 680.001568716 l 1
144 40.0015687157 m 0
 148.303598005 40.0015687157 151.998431284 43.6942539034 151.998431284 48 c 2
 151.998431284 376.001568716 l 1
 408 376.001568716 l 2
 412.75651321 376.001568716 417.483906413 376.096911079 422.174044508 376.292406877 c 1
 564.651195599 44.8351456581 l 2
 565.807712818 42.1446368487 568.774624326 40.0015687157 572 40.0015687157 c 0
 576.305746097 40.0015687157 579.998431284 43.6964019947 579.998431284 48 c 0
 579.998431284 49.0786655834 579.78188899 50.1573311668 579.348804401 51.1648543419 c 2
 439.091739035 377.457332799 l 1
 483.200241186 381.745486316 522.950935128 395.832594411 551.113176154 423.994835437 c 0
 576.847816595 449.729475878 591.998431284 486.670364143 591.998431284 536 c 0
 591.998431284 585.329635857 576.847816595 622.270524122 551.113176154 648.005164563 c 0
 516.462686171 682.655654546 464.268956425 695.998431284 408 695.998431284 c 2
 144 695.998431284 l 2
 139.696401995 695.998431284 136.001568716 692.305746097 136.001568716 688 c 2
 136.001568716 48 l 2
 136.001568716 43.6964019947 139.694253903 40.0015687157 144 40.0015687157 c 0
EndSplineSet
EndChar

StartChar: S
Encoding: 83 83 51
Width: 672
VWidth: 0
Flags: HW
AnchorPoint: "bottom" 336 40 basechar 0
AnchorPoint: "above" 336 784 basechar 0
LayerCount: 2
Fore
SplineSet
112.001568716 168 m 0
 112.001568716 172.303598005 115.694253903 175.998431284 120 175.998431284 c 0
 123.205390793 175.998431284 126.161854277 173.878293646 127.328452184 171.211784544 c 2
 127.328452184 171.211784544 138.920132899 144.238450946 168.45376342 114.704820425 c 0
 200.907004365 82.2515794802 254.209870111 47.9984312843 336 47.9984312843 c 0
 408.198985639 47.9984312843 463.384232238 71.048149476 498.597582156 106.261499393 c 0
 528.184191905 135.848109143 544.001568716 174.257344583 544.001568716 216 c 0
 544.001568716 248.6243985 534.417088838 282.692803212 505.406899909 311.702992142 c 0
 476.933295442 340.176596609 428.907237 364.37535977 350.805574827 376.090609096 c 0
 256.9531707 390.168053684 200.215575138 417.559744297 167.260389994 450.514929441 c 0
 137.616157972 480.159161463 128.001568716 513.881393247 128.001568716 544 c 0
 128.001568716 585.052080763 143.425066813 619.582079219 169.556655262 645.713667667 c 0
 207.741011409 683.898023814 267.962059192 703.998431284 336 703.998431284 c 0
 418.142964341 703.998431284 470.339837988 672.973870511 501.656854249 641.656854249 c 0
 532.926631576 610.387076923 543.34532542 579.264448182 543.587269213 578.538616802 c 0
 543.861377261 577.716292662 543.998431284 576.858146331 543.998431284 576 c 0
 543.998431284 571.696401995 540.305746097 568.001568716 536 568.001568716 c 0
 532.517548878 568.001568716 529.413984383 570.457622415 528.412730787 573.461383198 c 2
 528.412730787 573.461383198 519.436602965 601.249688536 490.343145751 630.343145751 c 0
 461.660162012 659.026129489 413.857035659 688.001568716 336 688.001568716 c 0
 270.957302068 688.001568716 215.040112011 668.569707419 180.870363761 634.399959168 c 0
 157.5703518 611.099947208 143.998431284 580.878800317 143.998431284 544 c 0
 143.998431284 517.336133152 152.172245843 488.23049059 178.574098493 461.82863794 c 0
 208.06864771 432.334088723 261.280312265 405.696100401 353.194425173 391.909390904 c 0
 433.439731031 379.872595025 484.994010265 354.743298783 516.720608408 323.016700641 c 0
 549.167518392 290.569790656 559.998431284 251.850223519 559.998431284 216 c 0
 559.998431284 170.080952105 542.462621343 127.499121583 509.911290654 94.9477908944 c 0
 471.165698182 56.2021984221 411.613601335 32.0015687157 336 32.0015687157 c 0
 249.369077257 32.0015687157 191.868618904 68.6625479436 157.140054921 103.391111926 c 0
 125.892001151 134.639165696 112.929456785 164.19870933 112.671547816 164.788215456 c 0
 112.224895083 165.809135838 112.001568716 166.904567919 112.001568716 168 c 0
EndSplineSet
EndChar

StartChar: T
Encoding: 84 84 52
Width: 688
VWidth: 0
Flags: HW
AnchorPoint: "bottom" 344 48 basechar 0
AnchorPoint: "above" 344 784 basechar 0
LayerCount: 2
Fore
SplineSet
344 40.0015687157 m 0
 339.696401995 40.0015687157 336.001568716 43.6942539034 336.001568716 48 c 2
 336.001568716 680.001568716 l 1
 96 680.001568716 l 2
 91.6964019947 680.001568716 88.0015687157 683.694253903 88.0015687157 688 c 0
 88.0015687157 692.303598005 91.6942539034 695.998431284 96 695.998431284 c 2
 592 695.998431284 l 2
 596.303598005 695.998431284 599.998431284 692.305746097 599.998431284 688 c 0
 599.998431284 683.696401995 596.305746097 680.001568716 592 680.001568716 c 2
 351.998431284 680.001568716 l 1
 351.998431284 48 l 2
 351.998431284 43.6964019947 348.305746097 40.0015687157 344 40.0015687157 c 0
EndSplineSet
EndChar

StartChar: U
Encoding: 85 85 53
Width: 712
VWidth: 0
Flags: HW
AnchorPoint: "above" 356 784 basechar 0
LayerCount: 2
Fore
SplineSet
144 695.998431284 m 0
 148.303598005 695.998431284 151.998431284 692.305746097 151.998431284 688 c 2
 151.998431284 216 l 2
 151.998431284 175.668348802 169.272704653 138.498086632 198.463691649 109.307099636 c 0
 235.712921388 72.0578698971 292.379490362 47.9984312843 356 47.9984312843 c 0
 419.620509638 47.9984312843 476.287078612 72.0578698971 513.536308351 109.307099636 c 0
 542.727295347 138.498086632 560.001568716 175.668348802 560.001568716 216 c 2
 560.001568716 688 l 2
 560.001568716 692.303598005 563.694253903 695.998431284 568 695.998431284 c 0
 572.303598005 695.998431284 575.998431284 692.305746097 575.998431284 688 c 2
 575.998431284 216 l 2
 575.998431284 170.908989804 556.62017353 129.763547817 524.85001685 97.993391137 c 0
 484.325444764 57.468819051 423.652351209 32.0015687157 356 32.0015687157 c 0
 288.347648791 32.0015687157 227.674555236 57.468819051 187.14998315 97.993391137 c 0
 155.37982647 129.763547817 136.001568716 170.908989804 136.001568716 216 c 2
 136.001568716 688 l 2
 136.001568716 692.303598005 139.694253903 695.998431284 144 695.998431284 c 0
EndSplineSet
EndChar

StartChar: V
Encoding: 86 86 54
Width: 688
VWidth: 0
Flags: HW
AnchorPoint: "above" 344 784 basechar 0
LayerCount: 2
Fore
SplineSet
96 695.998431284 m 0
 91.6964019947 695.998431284 88.0015687157 692.305746097 88.0015687157 688 c 0
 88.0015687157 687.044652136 88.171429124 686.089304272 88.5111499408 685.183382094 c 2
 328.511149941 45.1833820937 l 2
 329.586998632 42.3144522515 332.629507164 40.0015687157 336 40.0015687157 c 2
 352 40.0015687157 l 2
 355.369412047 40.0015687157 358.412789402 42.3138870069 359.488850059 45.1833820937 c 2
 599.488850059 685.183382094 l 2
 599.828570876 686.089304272 599.998431284 687.044652136 599.998431284 688 c 0
 599.998431284 692.303598005 596.305746097 695.998431284 592 695.998431284 c 0
 588.630587953 695.998431284 585.587210598 693.686112993 584.511149941 690.816617906 c 2
 346.454329958 55.9984312843 l 1
 341.545670042 55.9984312843 l 1
 103.488850059 690.816617906 l 2
 102.413001368 693.685547749 99.3704928362 695.998431284 96 695.998431284 c 0
EndSplineSet
EndChar

StartChar: W
Encoding: 87 87 55
Width: 872
VWidth: 0
Flags: HW
AnchorPoint: "above" 436 784 basechar 0
LayerCount: 2
Fore
SplineSet
96 695.998431284 m 0
 91.6964019947 695.998431284 88.0015687157 692.305746097 88.0015687157 688 c 0
 88.0015687157 687.313605072 88.0892520833 686.627210144 88.2646188186 685.95914639 c 2
 256.264618819 45.9591463904 l 2
 257.120762983 42.697644811 260.329957403 40.0015687157 264 40.0015687157 c 2
 280 40.0015687157 l 2
 283.739179682 40.0015687157 286.985933209 42.7939913848 287.781043822 46.1418255449 c 2
 436 670.22164103 l 1
 584.218956178 46.1418255449 l 2
 585.013957087 42.7944532958 588.25887714 40.0015687157 592 40.0015687157 c 2
 608 40.0015687157 l 2
 611.668583126 40.0015687157 614.879055 42.6969514121 615.735381181 45.9591463904 c 2
 783.735381181 685.95914639 l 2
 783.910747917 686.627210144 783.998431284 687.313605072 783.998431284 688 c 0
 783.998431284 692.303598005 780.305746097 695.998431284 776 695.998431284 c 0
 772.331416874 695.998431284 769.120945 693.303048588 768.264618819 690.04085361 c 2
 601.828482958 55.9984312843 l 1
 598.322732825 55.9984312843 l 1
 447.781043822 689.858174455 l 2
 446.986042913 693.205546704 443.74112286 695.998431284 440 695.998431284 c 2
 432 695.998431284 l 2
 428.260820318 695.998431284 425.014066791 693.206008615 424.218956178 689.858174455 c 2
 273.677267175 55.9984312843 l 1
 270.171517042 55.9984312843 l 1
 103.735381181 690.04085361 l 2
 102.879237017 693.302355189 99.6700425967 695.998431284 96 695.998431284 c 0
EndSplineSet
EndChar

StartChar: X
Encoding: 88 88 56
Width: 632
VWidth: 0
Flags: HW
AnchorPoint: "above" 316 784 basechar 0
LayerCount: 2
Fore
SplineSet
536 695.998431284 m 0
 540.303598005 695.998431284 543.998431284 692.305746097 543.998431284 688 c 0
 543.998431284 686.415749624 543.531323906 684.831499249 542.597109149 683.472641421 c 2
 325.709668172 368 l 1
 542.597109149 52.5273585791 l 2
 543.531323906 51.1685007512 543.998431284 49.5842503756 543.998431284 48 c 0
 543.998431284 43.6964019947 540.305746097 40.0015687157 536 40.0015687157 c 0
 533.399150902 40.0015687157 530.806231004 41.4314193803 529.402890851 43.4726414209 c 2
 316 353.876846295 l 1
 102.597109149 43.4726414209 l 2
 101.194799197 41.4329178544 98.6003905102 40.0015687157 96 40.0015687157 c 0
 91.6964019947 40.0015687157 88.0015687157 43.6942539034 88.0015687157 48 c 0
 88.0015687157 49.5842503756 88.468676094 51.1685007512 89.4028908507 52.5273585791 c 2
 306.290331828 368 l 1
 89.4028908507 683.472641421 l 2
 88.468676094 684.831499249 88.0015687157 686.415749624 88.0015687157 688 c 0
 88.0015687157 692.303598005 91.6942539034 695.998431284 96 695.998431284 c 0
 98.6008490981 695.998431284 101.193768996 694.56858062 102.597109149 692.527358579 c 2
 316 382.123153705 l 1
 529.402890851 692.527358579 l 2
 530.805200803 694.567082146 533.39960949 695.998431284 536 695.998431284 c 0
EndSplineSet
EndChar

StartChar: Y
Encoding: 89 89 57
Width: 656
VWidth: 0
Flags: HW
AnchorPoint: "middle" 328 368 basechar 0
AnchorPoint: "above" 328 784 basechar 0
LayerCount: 2
Fore
SplineSet
328 40.0015687157 m 0
 332.305746097 40.0015687157 335.998431284 43.6964019947 335.998431284 48 c 2
 335.998431284 381.292719445 l 1
 566.365207018 683.152632476 l 2
 567.454023196 684.579357122 567.998431284 686.289678561 567.998431284 688 c 0
 567.998431284 692.303598005 564.305746097 695.998431284 560 695.998431284 c 0
 557.554830536 695.998431284 555.085001341 694.747640547 553.634792982 692.847367524 c 2
 328 397.187983617 l 1
 102.365207018 692.847367524 l 2
 100.916618967 694.745517384 98.4441389922 695.998431284 96 695.998431284 c 0
 91.6964019947 695.998431284 88.0015687157 692.305746097 88.0015687157 688 c 0
 88.0015687157 686.289678561 88.5459768043 684.579357122 89.6347929815 683.152632476 c 2
 320.001568716 381.292719445 l 1
 320.001568716 48 l 2
 320.001568716 43.6942539034 323.696401995 40.0015687157 328 40.0015687157 c 0
EndSplineSet
EndChar

StartChar: Z
Encoding: 90 90 58
Width: 632
VWidth: 0
Flags: HW
AnchorPoint: "above" 316 784 basechar 0
LayerCount: 2
Fore
SplineSet
96.0015687157 688 m 0
 96.0015687157 683.696401995 99.6942539034 680.001568716 104 680.001568716 c 2
 512.947632865 680.001568716 l 1
 89.3646526068 52.4712275918 l 2
 88.4559300127 51.1249718969 88.0015687157 49.5624859484 88.0015687157 48 c 0
 88.0015687157 43.6964019947 91.6942539034 40.0015687157 96 40.0015687157 c 2
 536 40.0015687157 l 2
 540.303598005 40.0015687157 543.998431284 43.6942539034 543.998431284 48 c 0
 543.998431284 52.3035980053 540.305746097 55.9984312843 536 55.9984312843 c 2
 111.052367135 55.9984312843 l 1
 534.635347393 683.528772408 l 2
 535.544069987 684.875028103 535.998431284 686.437514052 535.998431284 688 c 0
 535.998431284 692.303598005 532.305746097 695.998431284 528 695.998431284 c 2
 104 695.998431284 l 2
 99.6964019947 695.998431284 96.0015687157 692.305746097 96.0015687157 688 c 0
EndSplineSet
EndChar

StartChar: bracketleft
Encoding: 91 91 59
Width: 312
VWidth: 0
Flags: HW
LayerCount: 2
Fore
SplineSet
239.998431284 768 m 0
 239.998431284 772.303598005 236.305746097 775.998431284 232 775.998431284 c 2
 112 775.998431284 l 2
 107.696401995 775.998431284 104.001568716 772.305746097 104.001568716 768 c 2
 104.001568716 -32 l 2
 104.001568716 -36.3035980053 107.694253903 -39.9984312843 112 -39.9984312843 c 2
 232 -39.9984312843 l 2
 236.303598005 -39.9984312843 239.998431284 -36.3057460966 239.998431284 -32 c 0
 239.998431284 -27.6964019947 236.305746097 -24.0015687157 232 -24.0015687157 c 2
 119.998431284 -24.0015687157 l 1
 119.998431284 760.001568716 l 1
 232 760.001568716 l 2
 236.303598005 760.001568716 239.998431284 763.694253903 239.998431284 768 c 0
EndSplineSet
EndChar

StartChar: backslash
Encoding: 92 92 60
Width: 576
VWidth: 0
Flags: HW
LayerCount: 2
Fore
SplineSet
104.001568716 688 m 0
 104.001568716 692.303598005 107.694253903 695.998431284 112 695.998431284 c 0
 114.918441318 695.998431284 117.718669739 694.205973787 119.011456705 691.855452031 c 2
 471.011456705 51.855452031 l 2
 471.669439758 50.6591192071 471.998431284 49.3295596035 471.998431284 48 c 0
 471.998431284 43.6964019947 468.305746097 40.0015687157 464 40.0015687157 c 0
 461.081558682 40.0015687157 458.281330261 41.7940262127 456.988543295 44.144547969 c 2
 104.988543295 684.144547969 l 2
 104.330560242 685.340880793 104.001568716 686.670440396 104.001568716 688 c 0
EndSplineSet
EndChar

StartChar: bracketright
Encoding: 93 93 61
Width: 312
VWidth: 0
Flags: HW
LayerCount: 2
Fore
SplineSet
72.0015687157 768 m 0
 72.0015687157 763.696401995 75.6942539034 760.001568716 80 760.001568716 c 2
 192.001568716 760.001568716 l 1
 192.001568716 -24.0015687157 l 1
 80 -24.0015687157 l 2
 75.6964019947 -24.0015687157 72.0015687157 -27.6942539034 72.0015687157 -32 c 0
 72.0015687157 -36.3035980053 75.6942539034 -39.9984312843 80 -39.9984312843 c 2
 200 -39.9984312843 l 2
 204.303598005 -39.9984312843 207.998431284 -36.3057460966 207.998431284 -32 c 2
 207.998431284 768 l 2
 207.998431284 772.303598005 204.305746097 775.998431284 200 775.998431284 c 2
 80 775.998431284 l 2
 75.6964019947 775.998431284 72.0015687157 772.305746097 72.0015687157 768 c 0
EndSplineSet
EndChar

StartChar: asciicircum
Encoding: 94 94 62
Width: 512
VWidth: 0
Flags: HW
LayerCount: 2
Fore
SplineSet
104.001568716 448 m 0
 104.001568716 443.696401995 107.694253903 440.001568716 112 440.001568716 c 0
 114.798626304 440.001568716 117.523728291 441.654114948 118.862897312 443.886063316 c 2
 256 672.447901129 l 1
 393.137102688 443.886063316 l 2
 394.47566109 441.655132646 397.201288602 440.001568716 400 440.001568716 c 0
 404.303598005 440.001568716 407.998431284 443.694253903 407.998431284 448 c 0
 407.998431284 449.426116135 407.61991996 450.852232271 406.862897312 452.113936684 c 2
 262.862897312 692.113936684 l 2
 261.52433891 694.344867354 258.798711398 695.998431284 256 695.998431284 c 0
 253.201373696 695.998431284 250.476271709 694.345885052 249.137102688 692.113936684 c 2
 105.137102688 452.113936684 l 2
 104.38008004 450.852232271 104.001568716 449.426116135 104.001568716 448 c 0
EndSplineSet
EndChar

StartChar: underscore
Encoding: 95 95 63
Width: 576
VWidth: 0
Flags: HW
LayerCount: 2
Fore
SplineSet
535.998431284 -96 m 0
 535.998431284 -100.303598005 532.305746097 -103.998431284 528 -103.998431284 c 2
 48 -103.998431284 l 2
 43.6964019947 -103.998431284 40.0015687157 -100.305746097 40.0015687157 -96 c 0
 40.0015687157 -91.6964019947 43.6942539034 -88.0015687157 48 -88.0015687157 c 2
 528 -88.0015687157 l 2
 532.303598005 -88.0015687157 535.998431284 -91.6942539034 535.998431284 -96 c 0
EndSplineSet
EndChar

StartChar: grave
Encoding: 96 96 64
Width: 384
VWidth: 0
Flags: HW
LayerCount: 2
Fore
SplineSet
279.998431284 480 m 0
 279.998431284 475.696401995 276.305746097 472.001568716 272 472.001568716 c 0
 269.566972686 472.001568716 267.106637334 473.239138886 265.653387502 475.128363668 c 2
 105.653387502 683.128363668 l 2
 104.552174978 684.559939949 104.001568716 686.279969974 104.001568716 688 c 0
 104.001568716 692.303598005 107.694253903 695.998431284 112 695.998431284 c 0
 114.433027314 695.998431284 116.893362666 694.760861114 118.346612498 692.871636332 c 2
 278.346612498 484.871636332 l 2
 279.447825022 483.440060051 279.998431284 481.720030026 279.998431284 480 c 0
EndSplineSet
EndChar

StartChar: a
Encoding: 97 97 65
Width: 588
VWidth: 0
Flags: HW
AnchorPoint: "above" 294 576 basechar 0
LayerCount: 2
Fore
SplineSet
436.001568716 171.685957489 m 2
 436.001568716 356.324385418 l 2
 435.80833846 356.663455476 435.642815871 357.014735235 435.508233414 357.374765626 c 0
 424.129985535 387.813465641 407.373656634 414.226424489 387.009104195 434.590976928 c 0
 358.343256349 463.256824774 322.596106418 480.001568716 284 480.001568716 c 0
 245.420075768 480.001568716 209.677086751 463.247463774 181.009214374 434.579591397 c 0
 141.702071307 395.27244833 115.998431284 333.577475353 115.998431284 264 c 0
 115.998431284 194.422524647 141.702071307 132.72755167 181.009214374 93.4204086032 c 0
 209.677086751 64.7525362265 245.420075768 47.9984312843 284 47.9984312843 c 0
 322.57994942 47.9984312843 358.322749455 64.7525035588 386.990460925 93.4202150288 c 0
 407.358437083 113.788191187 424.119829481 140.201154081 435.503158891 170.627333084 c 0
 435.638946301 170.990275409 435.806186513 171.344333986 436.001568716 171.685957489 c 2
444 40.0015687157 m 0
 439.696401995 40.0015687157 436.001568716 43.6942539034 436.001568716 48 c 2
 436.001568716 133.123970026 l 1
 425.561434766 113.862985616 412.855645329 96.657982435 398.304169424 82.1065065298 c 0
 367.133414263 50.9357513687 327.422997356 32.0015687157 284 32.0015687157 c 0
 240.577022574 32.0015687157 200.866425949 50.935780031 169.695505875 82.1067001042 c 0
 126.981603058 124.820602922 100.001568716 190.521051508 100.001568716 264 c 0
 100.001568716 337.478948492 126.981603058 403.179397078 169.695505875 445.893299896 c 0
 200.866425949 477.064219969 240.577022574 495.998431284 284 495.998431284 c 0
 327.434646303 495.998431284 367.151225875 477.076272246 398.322812694 445.904685427 c 0
 412.867416954 431.360081167 425.566688229 414.162188629 436.001568716 394.905826517 c 1
 436.001568716 480 l 2
 436.001568716 484.303598005 439.694253903 487.998431284 444 487.998431284 c 0
 448.303598005 487.998431284 451.998431284 484.305746097 451.998431284 480 c 2
 451.998431284 48 l 2
 451.998431284 43.6964019947 448.305746097 40.0015687157 444 40.0015687157 c 0
EndSplineSet
EndChar

StartChar: b
Encoding: 98 98 66
Width: 588
VWidth: 0
Flags: HW
LayerCount: 2
Fore
SplineSet
128.001568716 48 m 0
 128.001568716 51.3902160199 136.001568716 77.4501404722 136.001568716 144 c 2
 136.001568716 688 l 2
 136.001568716 692.303598005 139.694253903 695.998431284 144 695.998431284 c 0
 148.303598005 695.998431284 151.998431284 692.305746097 151.998431284 688 c 2
 151.998431284 394.905826517 l 1
 162.433311771 414.162188629 175.132583046 431.360081167 189.677187306 445.904685427 c 0
 220.848774125 477.076272246 260.565353697 495.998431284 304 495.998431284 c 0
 347.422977426 495.998431284 387.133574051 477.064219969 418.304494125 445.893299896 c 0
 461.018396942 403.179397078 487.998431284 337.478948492 487.998431284 264 c 0
 487.998431284 190.521051508 461.018396942 124.820602922 418.304494125 82.1067001042 c 0
 387.133574051 50.935780031 347.422977426 32.0015687157 304 32.0015687157 c 0
 260.577002644 32.0015687157 220.866585737 50.9357513687 189.695830576 82.1065065298 c 0
 175.109162504 96.693174602 162.377119134 113.946220371 151.922723879 133.263751864 c 1
 151.103139748 75.7109327593 143.902252146 46.6243610538 143.758676138 46.0500570828 c 0
 142.931479496 42.7412705102 139.702460476 40.0015687157 136 40.0015687157 c 0
 131.696401995 40.0015687157 128.001568716 43.6942539034 128.001568716 48 c 0
151.998431284 356.324363629 m 2
 151.998431284 171.685935274 l 2
 152.193810198 171.344330506 152.361051559 170.990281127 152.496841109 170.627333084 c 0
 163.880170519 140.201154081 180.641562917 113.788191187 201.009539075 93.4202150288 c 0
 229.677250545 64.7525035588 265.42005058 47.9984312843 304 47.9984312843 c 0
 342.579924232 47.9984312843 378.322913249 64.7525362265 406.990785626 93.4204086032 c 0
 446.297928693 132.72755167 472.001568716 194.422524647 472.001568716 264 c 0
 472.001568716 333.577475353 446.297928693 395.27244833 406.990785626 434.579591397 c 0
 378.322913249 463.247463774 342.579924232 480.001568716 304 480.001568716 c 0
 265.403893582 480.001568716 229.656743651 463.256824774 200.990895805 434.590976928 c 0
 180.626343366 414.226424489 163.870014465 387.813465641 152.491766586 357.374765626 c 0
 152.357186254 357.01474092 152.191664783 356.663452145 151.998431284 356.324363629 c 2
EndSplineSet
EndChar

StartChar: c
Encoding: 99 99 67
Width: 528
VWidth: 0
Flags: HW
AnchorPoint: "middle" 280 264 basechar 0
AnchorPoint: "bottom" 280 40 basechar 0
AnchorPoint: "above" 280 576 basechar 0
LayerCount: 2
Fore
SplineSet
419.998431284 407.625 m 0
 419.998431284 403.321401995 416.305746097 399.626568716 412 399.626568716 c 0
 409.300336437 399.626568716 406.633966155 401.173578505 405.264799362 403.30540879 c 0
 397.435921443 415.495186642 388.616283977 426.505257988 379.007793769 436.113748196 c 0
 351.250244719 463.871297246 316.941632218 480.001568716 280 480.001568716 c 0
 243.059405194 480.001568716 208.753766822 463.872537365 180.997820063 436.116590605 c 0
 141.783666591 396.902437133 115.998431284 334.505317127 115.998431284 264 c 0
 115.998431284 193.494682873 141.783666591 131.097562867 180.997820063 91.8834093946 c 0
 208.753766822 64.1274626348 243.059405194 47.9984312843 280 47.9984312843 c 0
 316.938667999 47.9984312843 351.23950507 64.1257290571 378.992833617 91.8790576037 c 0
 391.913619174 104.799843161 403.405348815 120.255174773 412.985787003 137.703951932 c 0
 414.277410809 140.056376269 417.078730403 141.851946909 420 141.851946909 c 0
 424.303598005 141.851946909 427.998431284 138.159261722 427.998431284 133.853515625 c 0
 427.998431284 132.525813828 427.670358522 131.198112032 427.014212997 130.003079318 c 0
 416.76170012 111.330257785 404.403260293 94.6620672816 390.306542116 80.5653491047 c 0
 360.080216106 50.3390230948 321.814777388 32.0015687157 280 32.0015687157 c 0
 238.183196513 32.0015687157 199.913173692 50.3406387675 169.684111564 80.5697008957 c 0
 127.00614284 123.247669619 100.001568716 189.649169379 100.001568716 264 c 0
 100.001568716 338.350830621 127.00614284 404.752330381 169.684111564 447.430299104 c 0
 199.913173692 477.659361232 238.183196513 495.998431284 280 495.998431284 c 0
 321.817965821 495.998431284 360.090797842 477.65816112 390.321502268 447.427456695 c 0
 400.80522724 436.943731722 410.325838234 425.038199341 418.735200638 411.94459121 c 0
 419.577354402 410.633334679 419.998431284 409.129167339 419.998431284 407.625 c 0
EndSplineSet
EndChar

StartChar: d
Encoding: 100 100 68
Width: 592
VWidth: 0
Flags: HW
AnchorPoint: "above" 296 784 basechar 0
LayerCount: 2
Fore
SplineSet
463.998431284 48 m 0
 463.998431284 43.6964019947 460.305746097 40.0015687157 456 40.0015687157 c 0
 452.29898876 40.0015687157 449.068713756 42.740497503 448.241323862 46.0500570828 c 0
 448.09774787 46.6243610505 440.896860118 75.7109333615 440.077276598 133.263753676 c 1
 429.622881175 113.946221442 416.890837466 96.6931750507 402.304169424 82.1065065298 c 0
 371.133414263 50.9357513687 331.422997356 32.0015687157 288 32.0015687157 c 0
 244.577022574 32.0015687157 204.866425949 50.935780031 173.695505875 82.1067001042 c 0
 130.981603058 124.820602922 104.001568716 190.521051508 104.001568716 264 c 0
 104.001568716 337.478948492 130.981603058 403.179397078 173.695505875 445.893299896 c 0
 204.866425949 477.064219969 244.577022574 495.998431284 288 495.998431284 c 0
 331.434646303 495.998431284 371.151225875 477.076272246 402.322812694 445.904685427 c 0
 416.867416954 431.360081167 429.566688229 414.162188629 440.001568716 394.905826517 c 1
 440.001568716 688 l 2
 440.001568716 692.303598005 443.694253903 695.998431284 448 695.998431284 c 0
 452.303598005 695.998431284 455.998431284 692.305746097 455.998431284 688 c 2
 455.998431284 144 l 2
 455.998431284 77.50378131 463.998431284 51.3353360851 463.998431284 48 c 0
440.001568716 171.685957489 m 2
 440.001568716 356.324385418 l 2
 439.80833846 356.663455476 439.642815871 357.014735235 439.508233414 357.374765626 c 0
 428.129985535 387.813465641 411.373656634 414.226424489 391.009104195 434.590976928 c 0
 362.343256349 463.256824774 326.596106418 480.001568716 288 480.001568716 c 0
 249.420075768 480.001568716 213.677086751 463.247463774 185.009214374 434.579591397 c 0
 145.702071307 395.27244833 119.998431284 333.577475353 119.998431284 264 c 0
 119.998431284 194.422524647 145.702071307 132.72755167 185.009214374 93.4204086032 c 0
 213.677086751 64.7525362265 249.420075768 47.9984312843 288 47.9984312843 c 0
 326.57994942 47.9984312843 362.322749455 64.7525035588 390.990460925 93.4202150288 c 0
 411.358437083 113.788191187 428.119829481 140.201154081 439.503158891 170.627333084 c 0
 439.638946301 170.990275409 439.806186513 171.344333986 440.001568716 171.685957489 c 2
EndSplineSet
EndChar

StartChar: e
Encoding: 101 101 69
Width: 544
VWidth: 0
Flags: HW
AnchorPoint: "bottom" 272 40 basechar 0
AnchorPoint: "above" 272 576 basechar 0
LayerCount: 2
Fore
SplineSet
443.998431284 128 m 0
 443.998431284 132.303598005 440.305746097 135.998431284 436 135.998431284 c 0
 433.073786261 135.998431284 430.269333953 134.197564809 428.979346135 131.838682079 c 2
 428.979346135 131.838682079 421.53896284 117.945879418 404.210369357 100.617285935 c 0
 380.253273012 76.66018959 338.681213134 47.9984312843 276 47.9984312843 c 0
 240.017702533 47.9984312843 206.664826977 63.3164205494 179.654600233 90.3266472935 c 0
 141.32141289 128.659834637 115.998431284 190.659050144 115.998431284 264 c 0
 115.998431284 269.396908484 116.135554783 274.732401676 116.40489551 280.001568716 c 1
 436 280.001568716 l 2
 440.303598005 280.001568716 443.998431284 283.694253903 443.998431284 288 c 0
 443.998431284 336.828956415 436.263152046 377.784432375 409.980545942 419.807470054 c 0
 402.466110855 431.822753543 394.068449361 442.411730916 384.895773379 451.584406898 c 0
 354.867751675 481.612428602 316.84442103 495.998431284 276 495.998431284 c 0
 235.258051518 495.998431284 197.893141325 478.539310797 168.340891734 448.987061205 c 0
 126.432266157 407.078435628 100.001568716 340.966824001 100.001568716 264 c 0
 100.001568716 187.033175999 126.432266157 120.921564372 168.340891734 79.0129387945 c 0
 197.893141325 49.4606892031 235.258051518 32.0015687157 276 32.0015687157 c 0
 343.949370332 32.0015687157 389.548911468 63.3284110483 415.524077856 89.3035774364 c 0
 434.06246193 107.84196151 442.764220674 123.692402001 443.020653865 124.161317921 c 0
 443.672505478 125.353299343 443.998431284 126.676649671 443.998431284 128 c 0
427.929673976 295.998431284 m 1
 117.645455674 295.998431284 l 1
 123.836437347 355.297565161 147.035109296 405.05386177 179.654600233 437.673352706 c 0
 206.664826977 464.683579451 240.017702533 480.001568716 276 480.001568716 c 0
 312.996029775 480.001568716 346.638789876 467.213973403 373.58206488 440.270698399 c 0
 381.83584432 432.016918959 389.489743625 422.39146745 396.408125934 411.329248696 c 0
 419.473960917 374.449479287 427.129278771 339.415840382 427.929673976 295.998431284 c 1
EndSplineSet
EndChar

StartChar: f
Encoding: 102 102 70
Width: 376
VWidth: 0
Flags: HW
AnchorPoint: "above" 188 784 basechar 0
LayerCount: 2
Fore
SplineSet
299.998431284 480 m 0
 299.998431284 475.696401995 296.305746097 472.001568716 292 472.001568716 c 2
 187.998431284 472.001568716 l 1
 187.998431284 48 l 2
 187.998431284 43.6964019947 184.305746097 40.0015687157 180 40.0015687157 c 0
 175.696401995 40.0015687157 172.001568716 43.6942539034 172.001568716 48 c 2
 172.001568716 472.001568716 l 1
 84 472.001568716 l 2
 79.6964019947 472.001568716 76.0015687157 475.694253903 76.0015687157 480 c 0
 76.0015687157 484.303598005 79.6942539034 487.998431284 84 487.998431284 c 2
 172.001568716 487.998431284 l 1
 172.001568716 624 l 2
 172.001568716 648.487313566 181.888097353 667.795257958 195.81362764 681.720788245 c 0
 216.858570459 702.765731064 246.584649871 711.998431284 268 711.998431284 c 0
 285.268450436 711.998431284 301.631100542 707.838386732 301.949942917 707.758676138 c 0
 305.25872949 706.931479496 307.998431284 703.702460476 307.998431284 700 c 0
 307.998431284 695.696401995 304.305746097 692.001568716 300 692.001568716 c 0
 297.127700713 692.001568716 285.395951082 696.001568716 268 696.001568716 c 0
 250.821898023 696.001568716 224.499979875 687.779723482 207.127336139 670.407079746 c 0
 195.762093004 659.041836611 187.998431284 643.974145248 187.998431284 624 c 2
 187.998431284 487.998431284 l 1
 292 487.998431284 l 2
 296.303598005 487.998431284 299.998431284 484.305746097 299.998431284 480 c 0
EndSplineSet
EndChar

StartChar: g
Encoding: 103 103 71
Width: 588
VWidth: 0
Flags: HW
LayerCount: 2
Fore
SplineSet
436.001568716 171.685957489 m 2
 436.001568716 356.324385418 l 2
 435.80833846 356.663455476 435.642815871 357.014735235 435.508233414 357.374765626 c 0
 424.129985535 387.813465641 407.373656634 414.226424489 387.009104195 434.590976928 c 0
 358.343256349 463.256824774 322.596106418 480.001568716 284 480.001568716 c 0
 245.420075768 480.001568716 209.677086751 463.247463774 181.009214374 434.579591397 c 0
 141.702071307 395.27244833 115.998431284 333.577475353 115.998431284 264 c 0
 115.998431284 194.422524647 141.702071307 132.72755167 181.009214374 93.4204086032 c 0
 209.677086751 64.7525362265 245.420075768 47.9984312843 284 47.9984312843 c 0
 322.57994942 47.9984312843 358.322749455 64.7525035588 386.990460925 93.4202150288 c 0
 407.358437083 113.788191187 424.119829481 140.201154081 435.503158891 170.627333084 c 0
 435.638946301 170.990275409 435.806186513 171.344333986 436.001568716 171.685957489 c 2
316 -136.001568716 m 0
 394.644348604 -136.001568716 436.001568716 -73.2828972542 436.001568716 8.881784197e-16 c 2
 436.001568716 133.123970026 l 1
 425.561434766 113.862985616 412.855645329 96.657982435 398.304169424 82.1065065298 c 0
 367.133414263 50.9357513687 327.422997356 32.0015687157 284 32.0015687157 c 0
 240.577022574 32.0015687157 200.866425949 50.935780031 169.695505875 82.1067001042 c 0
 126.981603058 124.820602922 100.001568716 190.521051508 100.001568716 264 c 0
 100.001568716 337.478948492 126.981603058 403.179397078 169.695505875 445.893299896 c 0
 200.866425949 477.064219969 240.577022574 495.998431284 284 495.998431284 c 0
 327.434646303 495.998431284 367.151225875 477.076272246 398.322812694 445.904685427 c 0
 412.90280254 431.324695581 425.628469453 414.078491375 436.077689612 394.765243495 c 1
 436.89927882 452.298836544 444.097771975 481.375735404 444.241323862 481.949942917 c 0
 445.068520504 485.25872949 448.297539524 487.998431284 452 487.998431284 c 0
 456.303598005 487.998431284 459.998431284 484.305746097 459.998431284 480 c 0
 459.998431284 476.60978398 451.998431284 450.549859528 451.998431284 384 c 2
 451.998431284 -8.881784197e-16 l 2
 451.998431284 -42.8207237331 438.486648947 -86.1450769755 408.842333739 -115.789392184 c 0
 386.644174159 -137.987551764 355.585033117 -151.998431284 316 -151.998431284 c 0
 256.078330481 -151.998431284 215.745327783 -123.059036282 214.343145751 -121.656854249 c 0
 212.782094394 -120.095802893 212.001568716 -118.047901446 212.001568716 -116 c 0
 212.001568716 -111.696401995 215.694253903 -108.001568716 220 -108.001568716 c 0
 221.605745407 -108.001568716 223.211490815 -108.481437464 224.582544289 -109.44117496 c 2
 224.582544289 -109.44117496 262.203089526 -136.001568716 316 -136.001568716 c 0
EndSplineSet
EndChar

StartChar: h
Encoding: 104 104 72
Width: 584
VWidth: 0
Flags: HW
AnchorPoint: "above" 292 784 basechar 0
LayerCount: 2
Fore
SplineSet
144 40.0015687157 m 0
 139.696401995 40.0015687157 136.001568716 43.6942539034 136.001568716 48 c 2
 136.001568716 688 l 2
 136.001568716 692.303598005 139.694253903 695.998431284 144 695.998431284 c 0
 148.303598005 695.998431284 151.998431284 692.305746097 151.998431284 688 c 2
 151.998431284 401.582258265 l 1
 158.517618299 410.235790733 167.285040022 420.823600592 178.227078386 431.765638956 c 0
 208.733639417 462.272199987 256.678550447 495.998431284 320 495.998431284 c 0
 352.478396335 495.998431284 382.906528274 482.574191425 405.905303851 459.575415848 c 0
 431.62850831 433.852211388 447.998431284 396.239882292 447.998431284 352 c 2
 447.998431284 48 l 2
 447.998431284 43.6964019947 444.305746097 40.0015687157 440 40.0015687157 c 0
 435.696401995 40.0015687157 432.001568716 43.6942539034 432.001568716 48 c 2
 432.001568716 352 l 2
 432.001568716 392.218364908 417.163761289 425.689541411 394.591595352 448.261707349 c 0
 374.393678446 468.459624255 347.955005905 480.001568716 320 480.001568716 c 0
 262.706064938 480.001568716 218.449792536 449.360936108 189.540786885 420.451930457 c 0
 166.209379574 397.120523146 155.872752246 379.078960535 151.998431284 373.171653338 c 2
 151.998431284 48 l 2
 151.998431284 43.6964019947 148.305746097 40.0015687157 144 40.0015687157 c 0
EndSplineSet
EndChar

StartChar: i
Encoding: 105 105 73
Width: 288
VWidth: 0
Flags: HW
LayerCount: 2
Fore
SplineSet
144 711.998431284 m 0
 148.303598005 711.998431284 151.998431284 708.305746097 151.998431284 704 c 2
 151.998431284 656 l 2
 151.998431284 651.696401995 148.305746097 648.001568716 144 648.001568716 c 0
 139.696401995 648.001568716 136.001568716 651.694253903 136.001568716 656 c 2
 136.001568716 704 l 2
 136.001568716 708.303598005 139.694253903 711.998431284 144 711.998431284 c 0
144 487.998431284 m 0
 148.303598005 487.998431284 151.998431284 484.305746097 151.998431284 480 c 2
 151.998431284 48 l 2
 151.998431284 43.6964019947 148.305746097 40.0015687157 144 40.0015687157 c 0
 139.696401995 40.0015687157 136.001568716 43.6942539034 136.001568716 48 c 2
 136.001568716 480 l 2
 136.001568716 484.303598005 139.694253903 487.998431284 144 487.998431284 c 0
EndSplineSet
EndChar

StartChar: j
Encoding: 106 106 74
Width: 288
VWidth: 0
Flags: HW
LayerCount: 2
Fore
SplineSet
144 711.998431284 m 0
 148.303598005 711.998431284 151.998431284 708.305746097 151.998431284 704 c 2
 151.998431284 656 l 2
 151.998431284 651.696401995 148.305746097 648.001568716 144 648.001568716 c 0
 139.696401995 648.001568716 136.001568716 651.694253903 136.001568716 656 c 2
 136.001568716 704 l 2
 136.001568716 708.303598005 139.694253903 711.998431284 144 711.998431284 c 0
64 -136.001568716 m 0
 109.876359957 -136.001568716 136.001568716 -105.973495465 136.001568716 -64 c 2
 136.001568716 480 l 2
 136.001568716 484.303598005 139.694253903 487.998431284 144 487.998431284 c 0
 148.303598005 487.998431284 151.998431284 484.305746097 151.998431284 480 c 2
 151.998431284 -64 l 2
 151.998431284 -87.3094449774 144.480410375 -111.079930097 127.331279568 -128.229060904 c 0
 112.729896213 -142.830444258 91.5211747081 -151.998431284 64 -151.998431284 c 0
 54.7315495639 -151.998431284 46.3688994578 -149.838386732 46.0500570828 -149.758676138 c 0
 42.7412705102 -148.931479496 40.0015687157 -145.702460476 40.0015687157 -142 c 0
 40.0015687157 -137.696401995 43.6942539034 -134.001568716 48 -134.001568716 c 0
 50.7882481573 -134.001568716 54.7320337495 -136.001568716 64 -136.001568716 c 0
EndSplineSet
EndChar

StartChar: k
Encoding: 107 107 75
Width: 528
VWidth: 0
Flags: HW
AnchorPoint: "above" 264 784 basechar 0
LayerCount: 2
Fore
SplineSet
144 695.998431284 m 0
 148.303598005 695.998431284 151.998431284 692.305746097 151.998431284 688 c 2
 151.998431284 236.478846081 l 1
 380.098179798 485.400978276 l 2
 381.623233408 487.065248398 383.828107583 487.998431284 386 487.998431284 c 0
 390.303598005 487.998431284 393.998431284 484.305746097 393.998431284 480 c 0
 393.998431284 478.062178517 393.299560924 476.124357034 391.901820202 474.599021724 c 2
 270.207358853 341.79552241 l 1
 427.038342989 51.806155518 l 2
 427.678401852 50.6226504491 427.998431284 49.3113252246 427.998431284 48 c 0
 427.998431284 43.6964019947 424.305746097 40.0015687157 420 40.0015687157 c 0
 417.058758504 40.0015687157 414.246161989 41.818722071 412.961657011 44.193844482 c 2
 258.766210245 329.309953597 l 1
 151.998431284 212.795738382 l 1
 151.998431284 48 l 2
 151.998431284 43.6964019947 148.305746097 40.0015687157 144 40.0015687157 c 0
 139.696401995 40.0015687157 136.001568716 43.6942539034 136.001568716 48 c 2
 136.001568716 688 l 2
 136.001568716 692.303598005 139.694253903 695.998431284 144 695.998431284 c 0
EndSplineSet
EndChar

StartChar: l
Encoding: 108 108 76
Width: 288
VWidth: 0
Flags: HW
AnchorPoint: "above" 144 784 basechar 0
LayerCount: 2
Fore
SplineSet
159.998431284 48 m 0
 159.998431284 43.6964019947 156.305746097 40.0015687157 152 40.0015687157 c 0
 148.29898876 40.0015687157 145.068713756 42.740497503 144.241323862 46.0500570828 c 0
 144.089078911 46.6590368856 136.001568716 79.3273077798 136.001568716 144 c 2
 136.001568716 688 l 2
 136.001568716 692.303598005 139.694253903 695.998431284 144 695.998431284 c 0
 148.303598005 695.998431284 151.998431284 692.305746097 151.998431284 688 c 2
 151.998431284 144 l 2
 151.998431284 77.50378131 159.998431284 51.3353360851 159.998431284 48 c 0
EndSplineSet
EndChar

StartChar: m
Encoding: 109 109 77
Width: 864
VWidth: 0
Flags: HW
AnchorPoint: "above" 432 576 basechar 0
LayerCount: 2
Fore
SplineSet
144 487.998431284 m 0
 148.303598005 487.998431284 151.998431284 484.305746097 151.998431284 480 c 2
 151.998431284 403.670434953 l 1
 158.983229623 413.675808167 168.577816806 425.891525305 180.843145751 438.156854249 c 0
 209.493645136 466.807353635 253.174959487 495.998431284 312 495.998431284 c 0
 344.478396335 495.998431284 374.906528274 482.574191425 397.905303851 459.575415848 c 0
 414.729870083 442.750849616 427.553131678 420.840152958 434.411792976 395.315543087 c 1
 441.463259034 406.345868539 452.89571777 422.209426269 468.843145751 438.156854249 c 0
 497.493645136 466.807353635 541.174959487 495.998431284 600 495.998431284 c 0
 632.478396335 495.998431284 662.906528274 482.574191425 685.905303851 459.575415848 c 0
 711.62850831 433.852211388 727.998431284 396.239882292 727.998431284 352 c 2
 727.998431284 48 l 2
 727.998431284 43.6964019947 724.305746097 40.0015687157 720 40.0015687157 c 0
 715.696401995 40.0015687157 712.001568716 43.6942539034 712.001568716 48 c 2
 712.001568716 352 l 2
 712.001568716 392.218364908 697.163761289 425.689541411 674.591595352 448.261707349 c 0
 654.393678446 468.459624255 627.955005905 480.001568716 600 480.001568716 c 0
 546.825040513 480.001568716 507.006354864 453.692646365 480.156854249 426.843145751 c 0
 451.564068572 398.250360073 441.997376827 375.421896601 438.897795532 371.613544105 c 0
 439.623443679 365.239675369 439.998431137 358.695746687 439.998431284 352 c 2
 439.998431284 48 l 2
 439.998431284 43.6964019947 436.305746097 40.0015687157 432 40.0015687157 c 0
 427.696401995 40.0015687157 424.001568716 43.6942539034 424.001568716 48 c 2
 424.001568716 352 l 2
 424.001568716 392.218364908 409.163761289 425.689541411 386.591595352 448.261707349 c 0
 366.393678446 468.459624255 339.955005905 480.001568716 312 480.001568716 c 0
 258.825040513 480.001568716 219.006354864 453.692646365 192.156854249 426.843145751 c 0
 166.347468812 401.033760313 156.04023661 379.921051263 151.998431284 373.254222601 c 1
 151.998431284 48 l 2
 151.998431284 43.6964019947 148.305746097 40.0015687157 144 40.0015687157 c 0
 139.696401995 40.0015687157 136.001568716 43.6942539034 136.001568716 48 c 2
 136.001568716 480 l 2
 136.001568716 484.303598005 139.694253903 487.998431284 144 487.998431284 c 0
EndSplineSet
EndChar

StartChar: n
Encoding: 110 110 78
Width: 580
VWidth: 0
Flags: HW
AnchorPoint: "above" 290 576 basechar 0
LayerCount: 2
Fore
SplineSet
144 487.998431284 m 0
 148.303598005 487.998431284 151.998431284 484.305746097 151.998431284 480 c 2
 151.998431284 402.57731882 l 1
 158.789346551 411.939600015 168.031095719 423.399673902 179.706352579 435.074930762 c 0
 209.294738955 464.663317138 255.008588598 495.998431284 316 495.998431284 c 0
 348.478396335 495.998431284 378.906528274 482.574191425 401.905303851 459.575415848 c 0
 427.62850831 433.852211388 443.998431284 396.239882292 443.998431284 352 c 2
 443.998431284 48 l 2
 443.998431284 43.6964019947 440.305746097 40.0015687157 436 40.0015687157 c 0
 431.696401995 40.0015687157 428.001568716 43.6942539034 428.001568716 48 c 2
 428.001568716 352 l 2
 428.001568716 392.218364908 413.163761289 425.689541411 390.591595352 448.261707349 c 0
 370.393678446 468.459624255 343.955005905 480.001568716 316 480.001568716 c 0
 260.843263254 480.001568716 218.908278878 451.649440064 191.020061078 423.761222263 c 0
 166.375881768 399.117042954 155.968076614 379.507381596 151.998431284 373.213129892 c 2
 151.998431284 48 l 2
 151.998431284 43.6964019947 148.305746097 40.0015687157 144 40.0015687157 c 0
 139.696401995 40.0015687157 136.001568716 43.6942539034 136.001568716 48 c 2
 136.001568716 480 l 2
 136.001568716 484.303598005 139.694253903 487.998431284 144 487.998431284 c 0
EndSplineSet
EndChar

StartChar: o
Encoding: 111 111 79
Width: 568
VWidth: 0
Flags: HW
HStem: 40 448<207.697 360.303>
VStem: 108 352<157.228 370.772>
AnchorPoint: "middle" 284 264 basechar 0
AnchorPoint: "above" 284 576 basechar 0
LayerCount: 2
Fore
SplineSet
467.998431284 264 m 0
 467.998431284 190.521051508 441.018396942 124.820602922 398.304494125 82.1067001042 c 0
 367.133574051 50.935780031 327.422977426 32.0015687157 284 32.0015687157 c 0
 240.577022574 32.0015687157 200.866425949 50.935780031 169.695505875 82.1067001042 c 0
 126.981603058 124.820602922 100.001568716 190.521051508 100.001568716 264 c 0
 100.001568716 337.478948492 126.981603058 403.179397078 169.695505875 445.893299896 c 0
 200.866425949 477.064219969 240.577022574 495.998431284 284 495.998431284 c 0
 327.422977426 495.998431284 367.133574051 477.064219969 398.304494125 445.893299896 c 0
 441.018396942 403.179397078 467.998431284 337.478948492 467.998431284 264 c 0
452.001568716 264 m 0
 452.001568716 333.577475353 426.297928693 395.27244833 386.990785626 434.579591397 c 0
 358.322913249 463.247463774 322.579924232 480.001568716 284 480.001568716 c 0
 245.420075768 480.001568716 209.677086751 463.247463774 181.009214374 434.579591397 c 0
 141.702071307 395.27244833 115.998431284 333.577475353 115.998431284 264 c 0
 115.998431284 194.422524647 141.702071307 132.72755167 181.009214374 93.4204086032 c 0
 209.677086751 64.7525362265 245.420075768 47.9984312843 284 47.9984312843 c 0
 322.579924232 47.9984312843 358.322913249 64.7525362265 386.990785626 93.4204086032 c 0
 426.297928693 132.72755167 452.001568716 194.422524647 452.001568716 264 c 0
EndSplineSet
EndChar

StartChar: p
Encoding: 112 112 80
Width: 588
VWidth: 0
Flags: HW
AnchorPoint: "above" 294 576 basechar 0
LayerCount: 2
Fore
SplineSet
144 -151.998431284 m 0
 139.696401995 -151.998431284 136.001568716 -148.305746097 136.001568716 -144 c 2
 136.001568716 480 l 2
 136.001568716 484.303598005 139.694253903 487.998431284 144 487.998431284 c 0
 148.303598005 487.998431284 151.998431284 484.305746097 151.998431284 480 c 2
 151.998431284 394.905826517 l 1
 162.433311771 414.162188629 175.132583046 431.360081167 189.677187306 445.904685427 c 0
 220.848774125 477.076272246 260.565353697 495.998431284 304 495.998431284 c 0
 347.422977426 495.998431284 387.133574051 477.064219969 418.304494125 445.893299896 c 0
 461.018396942 403.179397078 487.998431284 337.478948492 487.998431284 264 c 0
 487.998431284 190.521051508 461.018396942 124.820602922 418.304494125 82.1067001042 c 0
 387.133574051 50.935780031 347.422977426 32.0015687157 304 32.0015687157 c 0
 260.577002644 32.0015687157 220.866585737 50.9357513687 189.695830576 82.1065065298 c 0
 175.144354671 96.657982435 162.438565234 113.862985616 151.998431284 133.123970026 c 1
 151.998431284 -144 l 2
 151.998431284 -148.303598005 148.305746097 -151.998431284 144 -151.998431284 c 0
151.998431284 171.685935274 m 2
 152.193810198 171.344330506 152.361051559 170.990281127 152.496841109 170.627333084 c 0
 163.880170519 140.201154081 180.641562917 113.788191187 201.009539075 93.4202150288 c 0
 229.677250545 64.7525035588 265.42005058 47.9984312843 304 47.9984312843 c 0
 342.579924232 47.9984312843 378.322913249 64.7525362265 406.990785626 93.4204086032 c 0
 446.297928693 132.72755167 472.001568716 194.422524647 472.001568716 264 c 0
 472.001568716 333.577475353 446.297928693 395.27244833 406.990785626 434.579591397 c 0
 378.322913249 463.247463774 342.579924232 480.001568716 304 480.001568716 c 0
 265.403893582 480.001568716 229.656743651 463.256824774 200.990895805 434.590976928 c 0
 180.626343366 414.226424489 163.870014465 387.813465641 152.491766586 357.374765626 c 0
 152.357186254 357.01474092 152.191664783 356.663452145 151.998431284 356.324363629 c 2
 151.998431284 171.685935274 l 2
EndSplineSet
EndChar

StartChar: q
Encoding: 113 113 81
Width: 588
VWidth: 0
Flags: HW
AnchorPoint: "above" 294 576 basechar 0
LayerCount: 2
Fore
SplineSet
459.998431284 480 m 0
 459.998431284 476.60978398 451.998431284 450.549859528 451.998431284 384 c 2
 451.998431284 -144 l 2
 451.998431284 -148.303598005 448.305746097 -151.998431284 444 -151.998431284 c 0
 439.696401995 -151.998431284 436.001568716 -148.305746097 436.001568716 -144 c 2
 436.001568716 133.123970026 l 1
 425.561434766 113.862985616 412.855645329 96.657982435 398.304169424 82.1065065298 c 0
 367.133414263 50.9357513687 327.422997356 32.0015687157 284 32.0015687157 c 0
 240.577022574 32.0015687157 200.866425949 50.935780031 169.695505875 82.1067001042 c 0
 126.981603058 124.820602922 100.001568716 190.521051508 100.001568716 264 c 0
 100.001568716 337.478948492 126.981603058 403.179397078 169.695505875 445.893299896 c 0
 200.866425949 477.064219969 240.577022574 495.998431284 284 495.998431284 c 0
 327.434646303 495.998431284 367.151225875 477.076272246 398.322812694 445.904685427 c 0
 412.90280254 431.324695581 425.628469453 414.078491375 436.077689612 394.765243495 c 1
 436.89927882 452.298836544 444.097771975 481.375735404 444.241323862 481.949942917 c 0
 445.068520504 485.25872949 448.297539524 487.998431284 452 487.998431284 c 0
 456.303598005 487.998431284 459.998431284 484.305746097 459.998431284 480 c 0
436.001568716 171.685957489 m 2
 436.001568716 356.324385418 l 2
 435.80833846 356.663455476 435.642815871 357.014735235 435.508233414 357.374765626 c 0
 424.129985535 387.813465641 407.373656634 414.226424489 387.009104195 434.590976928 c 0
 358.343256349 463.256824774 322.596106418 480.001568716 284 480.001568716 c 0
 245.420075768 480.001568716 209.677086751 463.247463774 181.009214374 434.579591397 c 0
 141.702071307 395.27244833 115.998431284 333.577475353 115.998431284 264 c 0
 115.998431284 194.422524647 141.702071307 132.72755167 181.009214374 93.4204086032 c 0
 209.677086751 64.7525362265 245.420075768 47.9984312843 284 47.9984312843 c 0
 322.57994942 47.9984312843 358.322749455 64.7525035588 386.990460925 93.4202150288 c 0
 407.358437083 113.788191187 424.119829481 140.201154081 435.503158891 170.627333084 c 0
 435.638946301 170.990275409 435.806186513 171.344333986 436.001568716 171.685957489 c 2
EndSplineSet
EndChar

StartChar: r
Encoding: 114 114 82
Width: 424
VWidth: 0
Flags: HW
AnchorPoint: "above" 212 576 basechar 0
LayerCount: 2
Fore
SplineSet
144 40.0015687157 m 0
 139.696401995 40.0015687157 136.001568716 43.6942539034 136.001568716 48 c 2
 136.001568716 480 l 2
 136.001568716 484.303598005 139.694253903 487.998431284 144 487.998431284 c 0
 148.303598005 487.998431284 151.998431284 484.305746097 151.998431284 480 c 2
 151.998431284 310.720732112 l 1
 174.092029611 361.638666298 202.096380389 409.895931566 235.560173466 443.359724643 c 0
 262.485039343 470.28459052 293.480675183 487.998431284 328 487.998431284 c 0
 332.303598005 487.998431284 335.998431284 484.305746097 335.998431284 480 c 0
 335.998431284 475.696401995 332.305746097 472.001568716 328 472.001568716 c 0
 299.297619574 472.001568716 272.067780189 457.239914368 246.873881965 432.046016144 c 0
 208.359628745 393.531762924 175.85231522 331.485955856 152.488850059 269.183382094 c 0
 152.354836952 268.826013807 152.19030828 268.477273382 151.998431284 268.140556442 c 2
 151.998431284 48 l 2
 151.998431284 43.6964019947 148.305746097 40.0015687157 144 40.0015687157 c 0
EndSplineSet
EndChar

StartChar: s
Encoding: 115 115 83
Width: 496
VWidth: 0
Flags: HW
AnchorPoint: "bottom" 248 40 basechar 0
LayerCount: 2
Fore
SplineSet
100.001568716 112 m 0
 100.001568716 116.303598005 103.694253903 119.998431284 108 119.998431284 c 0
 110.416106082 119.998431284 112.862967552 118.779365891 114.320459132 116.905448236 c 2
 114.320459132 116.905448236 118.07199183 112.024118572 125.853828295 104.242282106 c 0
 146.080274255 84.0158361466 190.577542307 47.9984312843 248 47.9984312843 c 0
 293.88296751 47.9984312843 327.631556753 62.5382152646 349.456468608 84.3631271197 c 0
 369.598211992 104.504870504 380.001568716 131.263469603 380.001568716 160 c 0
 380.001568716 185.572726766 374.623364779 209.808502384 355.337923733 229.09394343 c 0
 336.787092003 247.64477516 304.055650898 262.69557094 247.245830937 268.036937942 c 0
 195.062328104 272.94344291 160.846827742 289.455909538 139.347771897 310.954965383 c 0
 115.274817143 335.027920138 108.001568716 364.447199952 108.001568716 388 c 0
 108.001568716 412.636112433 119.075102443 435.681909255 137.35585835 453.962665162 c 0
 162.824145378 479.430952189 202.39920572 495.998431284 248 495.998431284 c 0
 319.990600122 495.998431284 363.891324955 459.973403952 379.59562976 444.269099147 c 0
 383.898528119 439.966200789 386.124692801 437.154762435 386.296194507 436.936487537 c 0
 387.431019025 435.492165424 387.998431284 433.746082712 387.998431284 432 c 0
 387.998431284 427.696401995 384.305746097 424.001568716 380 424.001568716 c 0
 377.599428099 424.001568716 375.165199904 425.203555942 373.703805493 427.063512463 c 2
 373.703805493 427.063512463 372.2069502 429.030361709 368.281921261 432.955390648 c 0
 354.353573004 446.883738905 314.295114164 480.001568716 248 480.001568716 c 0
 206.280294832 480.001568716 170.734647124 464.714036937 148.669566849 442.648956663 c 0
 132.830411156 426.80980097 123.998431284 407.65740129 123.998431284 388 c 0
 123.998431284 367.634061417 130.231319091 342.698835188 150.661480396 322.268673882 c 0
 168.924004616 304.006149662 199.213850749 288.621044079 248.754169063 283.963062058 c 0
 307.590422613 278.431165928 344.367485652 262.691798509 366.651632232 240.407651929 c 0
 389.996629909 217.062654252 395.998431284 187.720442263 395.998431284 160 c 0
 395.998431284 127.323163917 384.072359694 96.3516012081 360.770177107 73.0494186207 c 0
 335.491584575 47.7708260886 297.315110102 32.0015687157 248 32.0015687157 c 0
 183.76728528 32.0015687157 135.974422535 71.4942708688 114.540119796 92.9285736073 c 0
 106.310305108 101.158388296 101.843767955 106.883402663 101.679540868 107.094551764 c 0
 100.560892767 108.532813541 100.001568716 110.26640677 100.001568716 112 c 0
EndSplineSet
EndChar

StartChar: t
Encoding: 116 116 84
Width: 344
VWidth: 0
Flags: HW
AnchorPoint: "bottom" 172 48 basechar 0
AnchorPoint: "above" 172 736 basechar 0
LayerCount: 2
Fore
SplineSet
267.998431284 480 m 0
 267.998431284 475.696401995 264.305746097 472.001568716 260 472.001568716 c 2
 179.998431284 472.001568716 l 1
 179.998431284 48 l 2
 179.998431284 43.6964019947 176.305746097 40.0015687157 172 40.0015687157 c 0
 167.696401995 40.0015687157 164.001568716 43.6942539034 164.001568716 48 c 2
 164.001568716 472.001568716 l 1
 84 472.001568716 l 2
 79.6964019947 472.001568716 76.0015687157 475.694253903 76.0015687157 480 c 0
 76.0015687157 484.303598005 79.6942539034 487.998431284 84 487.998431284 c 2
 164.001568716 487.998431284 l 1
 164.001568716 640 l 2
 164.001568716 644.303598005 167.694253903 647.998431284 172 647.998431284 c 0
 176.303598005 647.998431284 179.998431284 644.305746097 179.998431284 640 c 2
 179.998431284 487.998431284 l 1
 260 487.998431284 l 2
 264.303598005 487.998431284 267.998431284 484.305746097 267.998431284 480 c 0
EndSplineSet
EndChar

StartChar: u
Encoding: 117 117 85
Width: 580
VWidth: 0
Flags: HW
AnchorPoint: "above" 290 576 basechar 0
LayerCount: 2
Fore
SplineSet
436 40.0015687157 m 0
 431.696401995 40.0015687157 428.001568716 43.6942539034 428.001568716 48 c 2
 428.001568716 125.42268118 l 1
 421.210653449 116.060399985 411.968904281 104.600326098 400.293647421 92.9250692378 c 0
 370.705261045 63.336682862 324.991411402 32.0015687157 264 32.0015687157 c 0
 231.521603665 32.0015687157 201.093471726 45.4258085752 178.094696149 68.424584152 c 0
 152.37149169 94.1477886116 136.001568716 131.760117708 136.001568716 176 c 2
 136.001568716 480 l 2
 136.001568716 484.303598005 139.694253903 487.998431284 144 487.998431284 c 0
 148.303598005 487.998431284 151.998431284 484.305746097 151.998431284 480 c 2
 151.998431284 176 l 2
 151.998431284 135.781635092 166.836238711 102.310458589 189.408404648 79.738292651 c 0
 209.606321554 59.5403757452 236.044994095 47.9984312843 264 47.9984312843 c 0
 319.156736746 47.9984312843 361.091721122 76.3505599364 388.979938922 104.238777737 c 0
 413.624118232 128.882957046 424.031923386 148.492618404 428.001568716 154.786870108 c 2
 428.001568716 480 l 2
 428.001568716 484.303598005 431.694253903 487.998431284 436 487.998431284 c 0
 440.303598005 487.998431284 443.998431284 484.305746097 443.998431284 480 c 2
 443.998431284 48 l 2
 443.998431284 43.6964019947 440.305746097 40.0015687157 436 40.0015687157 c 0
EndSplineSet
EndChar

StartChar: v
Encoding: 118 118 86
Width: 496
VWidth: 0
Flags: HW
AnchorPoint: "above" 248 576 basechar 0
LayerCount: 2
Fore
SplineSet
96 487.998431284 m 0
 91.6964019947 487.998431284 88.0015687157 484.305746097 88.0015687157 480 c 0
 88.0015687157 479.185990135 88.1248872705 478.371980269 88.3715243801 477.588544745 c 2
 224.37152438 45.5885447448 l 2
 225.33775502 42.5193415352 228.467115332 40.0015687157 232 40.0015687157 c 2
 264 40.0015687157 l 2
 267.531396297 40.0015687157 270.662112737 42.5189214706 271.62847562 45.5885447448 c 2
 407.62847562 477.588544745 l 2
 407.87511273 478.371980269 407.998431284 479.185990135 407.998431284 480 c 0
 407.998431284 484.303598005 404.305746097 487.998431284 400 487.998431284 c 0
 396.468603703 487.998431284 393.337887263 485.481078529 392.37152438 482.411455255 c 2
 258.130387204 55.9984312843 l 1
 237.869612796 55.9984312843 l 1
 103.62847562 482.411455255 l 2
 102.66224498 485.480658465 99.5328846676 487.998431284 96 487.998431284 c 0
EndSplineSet
EndChar

StartChar: w
Encoding: 119 119 87
Width: 696
VWidth: 0
Flags: HW
AnchorPoint: "above" 348 576 basechar 0
LayerCount: 2
Fore
SplineSet
96 487.998431284 m 0
 91.6964019947 487.998431284 88.0015687157 484.305746097 88.0015687157 480 c 0
 88.0015687157 479.321645819 88.087209789 478.643291639 88.2584919356 477.982631931 c 2
 200.258491936 45.9826319306 l 2
 201.107232367 42.708918838 204.321536761 40.0015687157 208 40.0015687157 c 2
 224 40.0015687157 l 2
 227.581172875 40.0015687157 230.740150322 42.5824160872 231.668770396 45.72051151 c 2
 345.976430181 432.001568716 l 1
 350.023569819 432.001568716 l 1
 464.331229604 45.72051151 l 2
 465.259699281 42.5829243259 468.417346196 40.0015687157 472 40.0015687157 c 2
 488 40.0015687157 l 2
 491.677006322 40.0015687157 494.892582658 42.7082053643 495.741508064 45.9826319306 c 2
 607.741508064 477.982631931 l 2
 607.912790211 478.643291639 607.998431284 479.321645819 607.998431284 480 c 0
 607.998431284 484.303598005 604.305746097 487.998431284 600 487.998431284 c 0
 596.322993678 487.998431284 593.107417342 485.291794636 592.258491936 482.017368069 c 2
 481.809137954 55.9984312843 l 1
 477.976430181 55.9984312843 l 1
 363.668770396 442.27948849 l 2
 362.740300719 445.417075674 359.582653804 447.998431284 356 447.998431284 c 2
 340 447.998431284 l 2
 336.418827125 447.998431284 333.259849678 445.417583913 332.331229604 442.27948849 c 2
 218.023569819 55.9984312843 l 1
 214.190862046 55.9984312843 l 1
 103.741508064 482.017368069 l 2
 102.892767633 485.291081162 99.6784632387 487.998431284 96 487.998431284 c 0
EndSplineSet
EndChar

StartChar: x
Encoding: 120 120 88
Width: 496
VWidth: 0
Flags: HW
AnchorPoint: "above" 248 576 basechar 0
LayerCount: 2
Fore
SplineSet
96 40.0015687157 m 0
 91.6964019947 40.0015687157 88.0015687157 43.6942539034 88.0015687157 48 c 0
 88.0015687157 49.5148106836 88.4286256801 51.0296213672 89.282739609 52.3473971432 c 2
 238.464982201 282.514285714 l 1
 113.282739609 475.652602857 l 2
 112.42862568 476.970378633 112.001568716 478.485189316 112.001568716 480 c 0
 112.001568716 484.303598005 115.694253903 487.998431284 120 487.998431284 c 0
 122.686127472 487.998431284 125.344194911 486.465841027 126.717260391 484.347397143 c 2
 248 297.225456032 l 1
 369.282739609 484.347397143 l 2
 370.655196144 486.464901511 373.313914539 487.998431284 376 487.998431284 c 0
 380.303598005 487.998431284 383.998431284 484.305746097 383.998431284 480 c 0
 383.998431284 478.485189316 383.57137432 476.970378633 382.717260391 475.652602857 c 2
 257.535017799 282.514285714 l 1
 406.717260391 52.3473971432 l 2
 407.57137432 51.0296213672 407.998431284 49.5148106836 407.998431284 48 c 0
 407.998431284 43.6964019947 404.305746097 40.0015687157 400 40.0015687157 c 0
 397.313872528 40.0015687157 394.655805089 41.5341589728 393.282739609 43.6526028568 c 2
 248 267.803115396 l 1
 102.717260391 43.6526028568 l 2
 101.344803856 41.535098489 98.6860854608 40.0015687157 96 40.0015687157 c 0
EndSplineSet
EndChar

StartChar: y
Encoding: 121 121 89
Width: 496
VWidth: 0
Flags: HW
AnchorPoint: "above" 248 576 basechar 0
LayerCount: 2
Fore
SplineSet
96 -136.001568716 m 0
 98.7215958155 -136.001568716 103.985775092 -138.001568716 120 -138.001568716 c 0
 145.282049313 -138.001568716 164.946404071 -127.597708381 180.855630137 -111.688482315 c 0
 201.759501939 -90.7846105129 215.723025913 -60.1505612423 224.395262079 -33.5144073015 c 2
 246.301517076 33.7690901898 l 1
 88.464995091 477.309696276 l 2
 88.1560441741 478.17788746 88.0015687157 479.08894373 88.0015687157 480 c 0
 88.0015687157 484.303598005 91.6942539034 487.998431284 96 487.998431284 c 0
 99.4227926131 487.998431284 102.493998399 485.615663789 103.535004909 482.690303724 c 2
 254.416588922 58.6939537144 l 1
 392.395281082 482.485651065 l 2
 393.382054712 485.516455785 396.495553613 487.998431284 400 487.998431284 c 0
 404.303598005 487.998431284 407.998431284 484.305746097 407.998431284 480 c 0
 407.998431284 479.160260938 407.867193829 478.320521876 407.604718918 477.514348935 c 2
 239.604737921 -38.4855926985 l 2
 223.455126607 -88.0892670685 188.976547599 -153.998431284 120 -153.998431284 c 0
 104.967386792 -153.998431284 94.7572972894 -151.911459864 94.3778209696 -151.833344732 c 0
 90.9078157272 -151.119044786 88.0015687157 -147.82235191 88.0015687157 -144 c 0
 88.0015687157 -139.696401995 91.6942539034 -136.001568716 96 -136.001568716 c 0
EndSplineSet
EndChar

StartChar: z
Encoding: 122 122 90
Width: 504
VWidth: 0
Flags: HW
AnchorPoint: "above" 252 576 basechar 0
LayerCount: 2
Fore
SplineSet
403.998431284 48 m 0
 403.998431284 52.3035980053 400.305746097 55.9984312843 396 55.9984312843 c 2
 122.719186224 55.9984312843 l 1
 394.717260391 475.652602857 l 2
 395.57137432 476.970378633 395.998431284 478.485189316 395.998431284 480 c 0
 395.998431284 484.303598005 392.305746097 487.998431284 388 487.998431284 c 2
 116 487.998431284 l 2
 111.696401995 487.998431284 108.001568716 484.305746097 108.001568716 480 c 0
 108.001568716 475.696401995 111.694253903 472.001568716 116 472.001568716 c 2
 373.280813776 472.001568716 l 1
 101.282739609 52.3473971432 l 2
 100.42862568 51.0296213672 100.001568716 49.5148106836 100.001568716 48 c 0
 100.001568716 43.6964019947 103.694253903 40.0015687157 108 40.0015687157 c 2
 396 40.0015687157 l 2
 400.303598005 40.0015687157 403.998431284 43.6942539034 403.998431284 48 c 0
EndSplineSet
EndChar

StartChar: braceleft
Encoding: 123 123 91
Width: 432
VWidth: 0
Flags: HW
LayerCount: 2
Fore
SplineSet
232.928738957 98.7498067754 m 0
 232.928738957 144.105966403 246.981712635 192.933589894 246.981712635 237.27285226 c 0
 246.981712635 268.197597754 240.064624025 296.167012425 216.923755422 319.307881028 c 0
 201.140262219 335.091374231 177.254717657 349.225826778 141.604591942 360.366491064 c 0
 139.540420868 361.011544525 137.724581797 362.633308184 136.752568435 364.699244105 c 0
 136.272305116 365.713851292 136.001567479 366.83446444 136.001568716 368 c 0
 136.001568716 369.182810247 136.280507591 370.319635488 136.774449842 371.346405167 c 0
 137.751600448 373.390208609 139.555591847 374.993197084 141.604591942 375.633508936 c 0
 177.254717657 386.774173222 201.140262219 400.908625769 216.923755422 416.692118972 c 0
 240.064624025 439.832987575 246.981712635 467.802402246 246.981712635 498.72714774 c 0
 246.981712635 543.042285225 232.928738957 591.918422778 232.928738957 637.250193225 c 0
 232.928738957 670.972315016 240.619886695 703.478940143 267.762536079 730.621589527 c 0
 285.935196387 748.794249835 312.274328021 763.96780146 349.604591942 775.633508936 c 0
 350.383092952 775.876790501 351.191546476 775.998431284 352 775.998431284 c 0
 356.303598005 775.998431284 359.998431284 772.305746097 359.998431284 768 c 0
 359.998431284 764.462495681 357.473351202 761.328348297 354.395408058 760.366491064 c 0
 318.745282343 749.225826778 294.859737781 735.091374231 279.076244578 719.307881028 c 0
 255.935375975 696.167012425 249.018287365 668.197597754 249.018287365 637.27285226 c 0
 249.018287365 592.957714775 263.071261043 544.081577222 263.071261043 498.749806775 c 0
 263.071261043 465.027684984 255.380113305 432.521059857 228.237463921 405.378410473 c 0
 213.800027714 390.940974265 194.208197884 378.396471498 168.045590344 368.000000004 c 1
 194.208197884 357.603528483 213.80002772 345.059025712 228.237463921 330.621589527 c 0
 255.380113305 303.478940143 263.071261043 270.972315016 263.071261043 237.250193225 c 0
 263.071261043 191.894033597 249.018287365 143.066410106 249.018287365 98.7271477399 c 0
 249.018287365 67.8024022456 255.935375975 39.8329875751 279.076244578 16.6921189721 c 0
 294.859737781 0.908625768616 318.745282343 -13.2258267782 354.395408058 -24.3664910643 c 0
 357.47292094 -25.32821384 359.998431284 -28.4610080129 359.998431284 -32 c 0
 359.998431284 -36.3035980053 356.305746097 -39.9984312843 352 -39.9984312843 c 0
 351.191546476 -39.9984312843 350.383092952 -39.8767905014 349.604591942 -39.6335089357 c 0
 312.274328021 -27.9678014605 285.935196387 -12.7942498347 267.762536079 5.37841047308 c 0
 240.619886695 32.5210598571 232.928738957 65.027684984 232.928738957 98.7498067754 c 0
EndSplineSet
EndChar

StartChar: bar
Encoding: 124 124 92
Width: 288
VWidth: 0
Flags: HW
LayerCount: 2
Fore
SplineSet
144 -39.9984312843 m 0
 139.696401995 -39.9984312843 136.001568716 -36.3057460966 136.001568716 -32 c 2
 136.001568716 768 l 2
 136.001568716 772.303598005 139.694253903 775.998431284 144 775.998431284 c 0
 148.303598005 775.998431284 151.998431284 772.305746097 151.998431284 768 c 2
 151.998431284 -32 l 2
 151.998431284 -36.3035980053 148.305746097 -39.9984312843 144 -39.9984312843 c 0
EndSplineSet
EndChar

StartChar: braceright
Encoding: 125 125 93
Width: 432
VWidth: 0
Flags: HW
LayerCount: 2
Fore
SplineSet
182.981712635 98.7271477399 m 0
 182.981712635 143.042285225 168.928738957 191.918422778 168.928738957 237.250193225 c 0
 168.928738957 270.972315016 176.619886695 303.478940143 203.762536079 330.621589527 c 0
 218.199972266 345.059025714 237.79180206 357.603528466 263.954409523 368.000000004 c 1
 237.79180206 378.396471514 218.199972272 390.940974263 203.762536079 405.378410473 c 0
 176.619886695 432.521059857 168.928738957 465.027684984 168.928738957 498.749806775 c 0
 168.928738957 544.105966403 182.981712635 592.933589894 182.981712635 637.27285226 c 0
 182.981712635 668.197597754 176.064624025 696.167012425 152.923755422 719.307881028 c 0
 137.140262219 735.091374231 113.254717657 749.225826778 77.6045919417 760.366491064 c 0
 74.5270790596 761.32821384 72.0015687157 764.461008013 72.0015687157 768 c 0
 72.0015687157 772.303598005 75.6942539034 775.998431284 80 775.998431284 c 0
 80.8084535239 775.998431284 81.6169070478 775.876790501 82.3954080583 775.633508936 c 0
 119.725671979 763.96780146 146.064803613 748.794249835 164.237463921 730.621589527 c 0
 191.380113305 703.478940143 199.071261043 670.972315016 199.071261043 637.250193225 c 0
 199.071261043 591.894033597 185.018287365 543.066410106 185.018287365 498.72714774 c 0
 185.018287365 467.802402246 191.935375975 439.832987575 215.076244578 416.692118972 c 0
 230.859737781 400.908625769 254.745282343 386.774173222 290.395408058 375.633508936 c 0
 292.459579132 374.988455475 294.275418203 373.366691816 295.247431565 371.300755895 c 0
 295.727694884 370.286148708 295.998432521 369.16553556 295.998431284 368 c 0
 295.998431284 366.817189753 295.719492409 365.680364512 295.225550158 364.653594833 c 0
 294.248399552 362.609791391 292.444408153 361.006802916 290.395408058 360.366491064 c 0
 254.745282343 349.225826778 230.859737781 335.091374231 215.076244578 319.307881028 c 0
 191.935375975 296.167012425 185.018287365 268.197597754 185.018287365 237.27285226 c 0
 185.018287365 192.957714775 199.071261043 144.081577222 199.071261043 98.7498067754 c 0
 199.071261043 65.027684984 191.380113305 32.5210598571 164.237463921 5.37841047308 c 0
 146.064803613 -12.7942498347 119.725671979 -27.9678014605 82.3954080583 -39.6335089357 c 0
 81.6169070478 -39.8767905014 80.8084535239 -39.9984312843 80 -39.9984312843 c 0
 75.6964019947 -39.9984312843 72.0015687157 -36.3057460966 72.0015687157 -32 c 0
 72.0015687157 -28.4624956808 74.5266487982 -25.3283482967 77.6045919417 -24.3664910643 c 0
 113.254717657 -13.2258267782 137.140262219 0.908625768616 152.923755422 16.6921189721 c 0
 176.064624025 39.8329875751 182.981712635 67.8024022456 182.981712635 98.7271477399 c 0
EndSplineSet
EndChar

StartChar: asciitilde
Encoding: 126 126 94
Width: 648
VWidth: 0
Flags: HW
LayerCount: 2
Fore
SplineSet
438.165310332 227.874123397 m 0
 364.551423803 227.874123397 272.777944804 283.825257241 201.70795775 283.825257241 c 0
 177.79645711 283.825257241 156.699149935 277.358901013 139.636098736 260.295849814 c 0
 128.937793626 249.597544704 119.341508534 234.385370605 111.500151047 213.21370539 c 0
 110.431793813 210.329140857 107.382684385 208.001568716 104 208.001568716 c 0
 99.6964019947 208.001568716 96.0015687157 211.694253903 96.0015687157 216 c 0
 96.0015687157 216.944695092 96.167662128 217.889390183 96.4998489528 218.78629461 c 0
 104.93867466 241.571124019 115.598238235 258.885406311 128.322390237 271.609558313 c 0
 149.274109711 292.561277787 174.52744986 300.125876603 201.834689668 300.125876603 c 0
 275.448576197 300.125876603 367.222055196 244.174742759 438.29204225 244.174742759 c 0
 462.20354289 244.174742759 483.300850065 250.641098987 500.363901264 267.704150186 c 0
 511.062206374 278.402455296 520.658491466 293.614629395 528.499848953 314.78629461 c 0
 529.568206187 317.670859143 532.617315615 319.998431284 536 319.998431284 c 0
 540.303598005 319.998431284 543.998431284 316.305746097 543.998431284 312 c 0
 543.998431284 311.055304908 543.832337872 310.110609817 543.500151047 309.21370539 c 0
 535.06132534 286.428875981 524.401761765 269.114593689 511.677609763 256.390441687 c 0
 490.725890289 235.438722213 465.47255014 227.874123397 438.165310332 227.874123397 c 0
EndSplineSet
EndChar

StartChar: tildecomb
Encoding: 771 771 95
Width: 0
VWidth: 0
Flags: HW
AnchorPoint: "above" 0 728 mark 0
LayerCount: 2
Fore
SplineSet
144 895.998431284 m 0
 148.303598005 895.998431284 151.998431284 892.305746097 151.998431284 888 c 0
 151.998431284 887.344702161 151.918512925 886.689404321 151.758676205 886.05005735 c 0
 151.597282941 885.404484197 145.629988193 861.036279694 125.464854249 840.871145751 c 0
 111.96081893 827.367110431 91.8963740772 816.001568716 64 816.001568716 c 0
 28.8156535176 816.001568716 10.2859811447 834.400310356 -5.65685424949 850.343145751 c 0
 -21.7140188553 866.400310356 -35.1843464824 880.001568716 -64 880.001568716 c 0
 -87.3036259228 880.001568716 -103.07918107 870.887110431 -114.151145751 859.815145751 c 0
 -131.152889898 842.813401603 -136.241323863 822.050057077 -136.241323863 822.050057077 c 2
 -137.068520507 818.741270508 -140.297539526 816.001568716 -144 816.001568716 c 0
 -148.303598005 816.001568716 -151.998431284 819.694253903 -151.998431284 824 c 0
 -151.998431284 824.655297932 -151.918512902 825.310595865 -151.758676137 825.949942923 c 0
 -151.597282986 826.595515526 -145.629988129 850.963720369 -125.464854249 871.128854249 c 0
 -111.96081893 884.632889569 -91.8963740772 895.998431284 -64 895.998431284 c 0
 -28.8156535176 895.998431284 -10.2859811447 877.599689644 5.65685424949 861.656854249 c 0
 21.7140188553 845.599689644 35.1843464824 831.998431284 64 831.998431284 c 0
 87.3036259228 831.998431284 103.07918107 841.112889569 114.151145751 852.184854249 c 0
 131.152890082 869.186598581 136.241323795 889.94994265 136.241323795 889.94994265 c 2
 137.068520351 893.258729362 140.29753943 895.998431284 144 895.998431284 c 0
EndSplineSet
EndChar

StartChar: dotlessi
Encoding: 305 305 96
Width: 288
VWidth: 0
Flags: HW
AnchorPoint: "above" 144 576 basechar 0
LayerCount: 2
Fore
SplineSet
144 487.998431284 m 0
 148.303598005 487.998431284 151.998431284 484.305746097 151.998431284 480 c 2
 151.998431284 48 l 2
 151.998431284 43.6964019947 148.305746097 40.0015687157 144 40.0015687157 c 0
 139.696401995 40.0015687157 136.001568716 43.6942539034 136.001568716 48 c 2
 136.001568716 480 l 2
 136.001568716 484.303598005 139.694253903 487.998431284 144 487.998431284 c 0
EndSplineSet
EndChar

StartChar: uni0237
Encoding: 567 567 97
Width: 288
VWidth: 0
Flags: HW
AnchorPoint: "above" 144 576 basechar 0
LayerCount: 2
Fore
SplineSet
64 -136.001568716 m 0
 109.876359957 -136.001568716 136.001568716 -105.973495465 136.001568716 -64 c 2
 136.001568716 480 l 2
 136.001568716 484.303598005 139.694253903 487.998431284 144 487.998431284 c 0
 148.303598005 487.998431284 151.998431284 484.305746097 151.998431284 480 c 2
 151.998431284 -64 l 2
 151.998431284 -87.3094449774 144.480410375 -111.079930097 127.331279568 -128.229060904 c 0
 112.729896213 -142.830444258 91.5211747081 -151.998431284 64 -151.998431284 c 0
 54.7315495639 -151.998431284 46.3688994578 -149.838386732 46.0500570828 -149.758676138 c 0
 42.7412705102 -148.931479496 40.0015687157 -145.702460476 40.0015687157 -142 c 0
 40.0015687157 -137.696401995 43.6942539034 -134.001568716 48 -134.001568716 c 0
 50.7882481573 -134.001568716 54.7320337495 -136.001568716 64 -136.001568716 c 0
EndSplineSet
EndChar

StartChar: gravecomb
Encoding: 768 768 98
Width: 0
VWidth: 0
Flags: HW
AnchorPoint: "above" 0 720 mark 0
LayerCount: 2
Fore
SplineSet
103.998431284 816 m 0
 103.998431284 811.696401995 100.305746097 808.001568716 96 808.001568716 c 0
 94.7716051496 808.001568716 93.5432102992 808.282399727 92.4198862534 808.84406175 c 2
 -99.5801137466 904.84406175 l 2
 -102.068184031 906.088096892 -103.998431284 908.955474678 -103.998431284 912 c 0
 -103.998431284 916.303598005 -100.305746097 919.998431284 -96 919.998431284 c 0
 -94.7716051496 919.998431284 -93.5432102992 919.717600273 -92.4198862534 919.15593825 c 2
 99.5801137466 823.15593825 l 2
 102.068184031 821.911903108 103.998431284 819.044525322 103.998431284 816 c 0
EndSplineSet
EndChar

StartChar: acutecomb
Encoding: 769 769 99
Width: 0
VWidth: 0
Flags: H
AnchorPoint: "above" 0 720 mark 0
LayerCount: 2
Fore
SplineSet
96 919.998431284 m 0
 100.303598005 919.998431284 103.998431284 916.305746097 103.998431284 912 c 0
 103.998431284 908.956083603 102.068851201 906.088430477 99.5801137466 904.84406175 c 2
 -92.4198862534 808.84406175 l 2
 -93.5432102992 808.282399727 -94.7716051496 808.001568716 -96 808.001568716 c 0
 -100.303598005 808.001568716 -103.998431284 811.694253903 -103.998431284 816 c 0
 -103.998431284 819.043916397 -102.068851201 821.911569523 -99.5801137466 823.15593825 c 2
 92.4198862534 919.15593825 l 2
 93.5432102992 919.717600273 94.7716051496 919.998431284 96 919.998431284 c 0
EndSplineSet
EndChar

StartChar: uni0302
Encoding: 770 770 100
Width: 0
VWidth: 0
Flags: H
AnchorPoint: "above" 0 736 mark 0
LayerCount: 2
Fore
SplineSet
119.998431284 832 m 0
 119.998431284 827.696401995 116.305746097 824.001568716 112 824.001568716 c 0
 110.370015847 824.001568716 108.740031694 824.496034055 107.355528744 825.484964734 c 2
 4.4408920985e-16 902.167485265 l 1
 -107.355528744 825.484964734 l 2
 -108.740031694 824.496034055 -110.370015847 824.001568716 -112 824.001568716 c 0
 -116.303598005 824.001568716 -119.998431284 827.694253903 -119.998431284 832 c 0
 -119.998431284 834.542895723 -118.630637403 837.096345162 -116.644471256 838.515035266 c 2
 -4.64447125623 918.515035266 l 2
 -3.25996830609 919.503965945 -1.62998415305 919.998431284 0 919.998431284 c 0
 1.62998415305 919.998431284 3.25996830609 919.503965945 4.64447125623 918.515035266 c 2
 116.644471256 838.515035266 l 2
 118.629240811 837.097342727 119.998431284 834.542391989 119.998431284 832 c 0
EndSplineSet
EndChar

StartChar: uni0308
Encoding: 776 776 101
Width: 0
VWidth: 0
Flags: H
AnchorPoint: "above" 0 720 mark 0
LayerCount: 2
Fore
SplineSet
96 871.998431284 m 0
 100.303598005 871.998431284 103.998431284 868.305746097 103.998431284 864 c 2
 103.998431284 816 l 2
 103.998431284 811.696401995 100.305746097 808.001568716 96 808.001568716 c 0
 91.6964019947 808.001568716 88.0015687157 811.694253903 88.0015687157 816 c 2
 88.0015687157 864 l 2
 88.0015687157 868.303598005 91.6942539034 871.998431284 96 871.998431284 c 0
-96 871.998431284 m 0
 -91.6964019947 871.998431284 -88.0015687157 868.305746097 -88.0015687157 864 c 2
 -88.0015687157 816 l 2
 -88.0015687157 811.696401995 -91.6942539034 808.001568716 -96 808.001568716 c 0
 -100.303598005 808.001568716 -103.998431284 811.694253903 -103.998431284 816 c 2
 -103.998431284 864 l 2
 -103.998431284 868.303598005 -100.305746097 871.998431284 -96 871.998431284 c 0
EndSplineSet
EndChar

StartChar: uni030A
Encoding: 778 778 102
Width: 0
VWidth: 0
Flags: H
HStem: 816 160<-55.1865 55.1865>
VStem: -80 160<840.814 951.186>
AnchorPoint: "above" 0 720 mark 0
LayerCount: 2
Fore
SplineSet
8.881784197e-16 983.998431284 m 0
 48.5859923524 983.998431284 87.9984312843 944.585892003 87.9984312843 896 c 0
 87.9984312843 847.414007648 48.5858920031 808.001568716 -8.881784197e-16 808.001568716 c 0
 -48.5859923524 808.001568716 -87.9984312843 847.414107997 -87.9984312843 896 c 0
 -87.9984312843 944.585992352 -48.5858920031 983.998431284 8.881784197e-16 983.998431284 c 0
8.881784197e-16 823.998431284 m 0
 39.7343201476 823.998431284 72.0015687157 856.265579503 72.0015687157 896 c 0
 72.0015687157 935.734320148 39.7344204969 968.001568716 -8.881784197e-16 968.001568716 c 0
 -39.7343201476 968.001568716 -72.0015687157 935.734420497 -72.0015687157 896 c 0
 -72.0015687157 856.265679852 -39.7344204969 823.998431284 8.881784197e-16 823.998431284 c 0
EndSplineSet
EndChar

StartChar: uni0327
Encoding: 807 807 103
Width: 0
VWidth: 0
Flags: H
AnchorPoint: "bottom" 0 40 mark 0
LayerCount: 2
Fore
SplineSet
-71.9984312843 -200 m 0
 -71.9984312843 -204.303598005 -68.3057460966 -207.998431284 -64 -207.998431284 c 0
 -9.3563689226 -207.998431284 32.6525398464 -201.213808071 55.3874725385 -178.478875379 c 0
 66.2775958931 -167.588752024 71.9984312843 -153.178298664 71.9984312843 -136 c 0
 71.9984312843 -118.821701336 66.2775958931 -104.411247976 55.3874725385 -93.5211246213 c 0
 34.5911238017 -72.7247758846 -2.33239453315 -65.274575606 -50.3014935974 -64.155240002 c 1
 6.94820421259 36.0317311656 l 2
 7.64835559374 37.2569960826 7.99843128432 38.6284980413 7.99843128432 40 c 0
 7.99843128432 44.3035980053 4.30574609663 47.9984312843 0 47.9984312843 c 0
 -2.8673758512 47.9984312843 -5.63170044903 46.2721504206 -6.94820421259 43.9682688344 c 2
 -70.9482042126 -68.0317311656 l 2
 -71.6483555937 -69.2569960826 -71.9984312843 -70.6284980413 -71.9984312843 -72 c 0
 -71.9984312843 -76.3035980053 -68.3057460966 -79.9984312843 -64 -79.9984312843 c 0
 -9.93171559414 -79.9984312843 27.2255897 -87.9866587808 44.0737640395 -104.83483312 c 0
 51.8581505567 -112.619219637 56.0015687157 -122.405447954 56.0015687157 -136 c 0
 56.0015687157 -149.594552046 51.8581505567 -159.380780363 44.0737640395 -167.16516688 c 0
 27.2255897 -184.013341219 -9.93171559414 -192.001568716 -64 -192.001568716 c 0
 -68.3035980053 -192.001568716 -71.9984312843 -195.694253903 -71.9984312843 -200 c 0
EndSplineSet
EndChar

StartChar: dieresis
Encoding: 168 168 104
Width: 480
VWidth: 0
Flags: HW
AnchorPoint: "above" 240 544 mark 0
LayerCount: 2
Fore
SplineSet
336 695.998431284 m 0
 340.303598005 695.998431284 343.998431284 692.305746097 343.998431284 688 c 2
 343.998431284 640 l 2
 343.998431284 635.696401995 340.305746097 632.001568716 336 632.001568716 c 0
 331.696401995 632.001568716 328.001568716 635.694253903 328.001568716 640 c 2
 328.001568716 688 l 2
 328.001568716 692.303598005 331.694253903 695.998431284 336 695.998431284 c 0
144 695.998431284 m 0
 148.303598005 695.998431284 151.998431284 692.305746097 151.998431284 688 c 2
 151.998431284 640 l 2
 151.998431284 635.696401995 148.305746097 632.001568716 144 632.001568716 c 0
 139.696401995 632.001568716 136.001568716 635.694253903 136.001568716 640 c 2
 136.001568716 688 l 2
 136.001568716 692.303598005 139.694253903 695.998431284 144 695.998431284 c 0
EndSplineSet
EndChar

StartChar: cedilla
Encoding: 184 184 106
Width: 320
VWidth: 0
Flags: HW
AnchorPoint: "bottom" 160 40 mark 0
LayerCount: 2
Fore
SplineSet
88.0015687157 -200 m 0
 88.0015687157 -204.303598005 91.6942539034 -207.998431284 96 -207.998431284 c 0
 150.643631077 -207.998431284 192.652539846 -201.213808071 215.387472538 -178.478875379 c 0
 226.277595893 -167.588752024 231.998431284 -153.178298664 231.998431284 -136 c 0
 231.998431284 -118.821701336 226.277595893 -104.411247976 215.387472538 -93.5211246213 c 0
 194.591123802 -72.7247758846 157.667605467 -65.274575606 109.698506403 -64.155240002 c 1
 166.948204213 36.0317311656 l 2
 167.648355594 37.2569960826 167.998431284 38.6284980413 167.998431284 40 c 0
 167.998431284 44.3035980053 164.305746097 47.9984312843 160 47.9984312843 c 0
 157.132624149 47.9984312843 154.368299551 46.2721504206 153.051795787 43.9682688344 c 2
 89.0517957874 -68.0317311656 l 2
 88.3516444063 -69.2569960826 88.0015687157 -70.6284980413 88.0015687157 -72 c 0
 88.0015687157 -76.3035980053 91.6942539034 -79.9984312843 96 -79.9984312843 c 0
 150.068284406 -79.9984312843 187.2255897 -87.9866587808 204.07376404 -104.83483312 c 0
 211.858150557 -112.619219637 216.001568716 -122.405447954 216.001568716 -136 c 0
 216.001568716 -149.594552046 211.858150557 -159.380780363 204.07376404 -167.16516688 c 0
 187.2255897 -184.013341219 150.068284406 -192.001568716 96 -192.001568716 c 0
 91.6964019947 -192.001568716 88.0015687157 -195.694253903 88.0015687157 -200 c 0
EndSplineSet
EndChar

StartChar: minus
Encoding: 8722 8722 161
Width: 640
VWidth: 0
Flags: HW
LayerCount: 2
Fore
SplineSet
543.998431284 368 m 0
 543.998431284 363.696401995 540.305746097 360.001568716 536 360.001568716 c 2
 104 360.001568716 l 2
 99.6964019947 360.001568716 96.0015687157 363.694253903 96.0015687157 368 c 0
 96.0015687157 372.303598005 99.6942539034 375.998431284 104 375.998431284 c 2
 536 375.998431284 l 2
 540.303598005 375.998431284 543.998431284 372.305746097 543.998431284 368 c 0
EndSplineSet
EndChar

StartChar: degree
Encoding: 176 176 164
Width: 480
VWidth: 32
Flags: HW
HStem: 432 256<168.45 311.55>
VStem: 112 256<488.45 631.55>
AnchorPoint: "above" 240 336 mark 0
LayerCount: 2
Fore
SplineSet
240 695.998431284 m 0
 315.082086102 695.998431284 375.998431284 635.081985753 375.998431284 560 c 0
 375.998431284 484.917913898 315.081985753 424.001568716 240 424.001568716 c 0
 164.917913898 424.001568716 104.001568716 484.918014247 104.001568716 560 c 0
 104.001568716 635.082086102 164.918014247 695.998431284 240 695.998431284 c 0
240 439.998431284 m 0
 306.230413898 439.998431284 360.001568716 493.769485753 360.001568716 560 c 0
 360.001568716 626.230413898 306.230514247 680.001568716 240 680.001568716 c 0
 173.769586102 680.001568716 119.998431284 626.230514247 119.998431284 560 c 0
 119.998431284 493.769586102 173.769485753 439.998431284 240 439.998431284 c 0
EndSplineSet
EndChar

StartChar: uni00B2
Encoding: 178 178 165
Width: 432
VWidth: 0
Flags: HW
LayerCount: 2
Fore
SplineSet
112 748.001568716 m 0
 116.303598005 748.001568716 119.998431284 751.694253903 119.998431284 756 c 0
 119.998431284 776.726232756 126.929222143 792.318004207 138.412537877 803.801319941 c 0
 154.09994491 819.488726975 179.372145103 828.001568716 209 828.001568716 c 0
 237.55011794 828.001568716 261.44816365 818.030033341 277.158684032 802.319512959 c 0
 290.360438073 789.117758918 298.001568716 771.767561159 298.001568716 752 c 0
 298.001568716 735.378426978 294.279550778 725.236644446 282.744934362 713.70202803 c 0
 274.556595999 705.513689667 261.985775776 696.683661191 243.896957708 685.8694221 c 0
 205.430975688 662.873454588 167.755295246 641.109933223 145.799268169 619.153906146 c 0
 119.945870631 593.300508608 108.001568716 562.009646536 108.001568716 512 c 0
 108.001568716 507.696401995 111.694253903 504.001568716 116 504.001568716 c 2
 320 504.001568716 l 2
 324.303598005 504.001568716 327.998431284 507.694253903 327.998431284 512 c 0
 327.998431284 516.303598005 324.305746097 519.998431284 320 519.998431284 c 2
 116 519.998431284 l 1
 123.998431284 512 l 1
 123.998431284 559.458880373 134.502413249 585.229634228 157.112976668 607.840197647 c 0
 175.68335769 626.410578669 203.458153846 643.12783905 241.276954478 665.670907215 c 0
 244.799631118 667.770707798 248.408208124 669.921709647 252.103042292 672.1305779 c 0
 270.633644019 683.208933424 284.183778092 692.513454762 294.058642861 702.388319531 c 0
 308.372309743 716.701986413 313.998431284 732.26238804 313.998431284 752 c 0
 313.998431284 808.114825907 265.323147865 843.998431284 209 843.998431284 c 0
 152.29460452 843.998431284 104.001568716 814.74717459 104.001568716 756 c 0
 104.001568716 751.696401995 107.694253903 748.001568716 112 748.001568716 c 0
EndSplineSet
EndChar

StartChar: uni00B3
Encoding: 179 179 166
Width: 432
VWidth: 0
Flags: HW
LayerCount: 2
Fore
SplineSet
115.721679688 572.882220346 m 0
 111.418081683 572.882220346 107.723248404 569.189535159 107.723248404 564.883789062 c 0
 107.723248404 563.60134711 108.029335148 562.318905159 108.641508638 561.156021924 c 0
 127.140416767 526.015542144 167.577999634 500.001568716 215 500.001568716 c 0
 277.171793844 500.001568716 333.998431284 545.36323698 333.998431284 608 c 0
 333.998431284 671.367851572 286.380668351 717.665421168 220.709709602 717.996642564 c 1
 230.973313155 725.321009413 239.913114998 733.004640509 247.686139663 740.777665126 c 0
 291.689601271 784.781126734 297.998431284 829.626778649 297.998431284 832 c 0
 297.998431284 836.303598005 294.305746097 839.998431284 290 839.998431284 c 2
 106 839.998431284 l 2
 101.696401995 839.998431284 98.0015687157 836.305746097 98.0015687157 832 c 0
 98.0015687157 827.696401995 101.694253903 824.001568716 106 824.001568716 c 2
 280.051139403 824.001568716 l 1
 276.117002412 809.75012391 265.143536292 780.862478753 236.372431164 752.091373625 c 0
 219.836659861 735.555602321 197.404222111 719.261705501 166.88117276 706.368417747 c 0
 164.167513955 705.222136999 162.001568716 702.245891834 162.001568716 699 c 0
 162.001568716 694.696401995 165.694253903 691.001568716 170 691.001568716 c 0
 171.035726762 691.001568716 172.071453523 691.201214197 173.044200135 691.60050516 c 0
 186.007340485 696.921587479 205.551117842 702.001568716 220 702.001568716 c 0
 277.587013998 702.001568716 318.001568716 663.095663086 318.001568716 608 c 0
 318.001568716 554.552234913 268.520025876 515.998431284 215 515.998431284 c 0
 173.689834964 515.998431284 138.731439756 538.3517486 122.801850738 568.6115562 c 0
 121.531184651 571.025310333 118.699433951 572.882220346 115.721679688 572.882220346 c 0
EndSplineSet
EndChar

StartChar: uni00B9
Encoding: 185 185 167
Width: 216
VWidth: 0
Flags: HW
LayerCount: 2
Fore
SplineSet
108 839.998431284 m 0
 112.303598005 839.998431284 115.998431284 836.305746097 115.998431284 832 c 2
 115.998431284 512 l 2
 115.998431284 507.696401995 112.305746097 504.001568716 108 504.001568716 c 0
 103.696401995 504.001568716 100.001568716 507.694253903 100.001568716 512 c 2
 100.001568716 832 l 2
 100.001568716 836.303598005 103.694253903 839.998431284 108 839.998431284 c 0
EndSplineSet
EndChar

StartChar: minute
Encoding: 8242 8242 168
Width: 256
VWidth: 0
Flags: HW
LayerCount: 2
Fore
SplineSet
112 472.001568716 m 0
 107.696401995 472.001568716 104.001568716 475.694253903 104.001568716 480 c 0
 104.001568716 480.409394279 104.032761391 480.818788557 104.095146742 481.224293339 c 2
 136.095146742 689.224293339 l 2
 136.660856238 692.901405059 140.047915784 695.998431284 144 695.998431284 c 0
 148.303598005 695.998431284 151.998431284 692.305746097 151.998431284 688 c 0
 151.998431284 687.590605721 151.967238609 687.181211443 151.904853258 686.775706661 c 2
 119.904853258 478.775706661 l 2
 119.339143762 475.098594941 115.952084216 472.001568716 112 472.001568716 c 0
EndSplineSet
EndChar

StartChar: second
Encoding: 8243 8243 169
Width: 416
VWidth: 0
Flags: HW
LayerCount: 2
Fore
SplineSet
112 472.001568716 m 0
 107.696401995 472.001568716 104.001568716 475.694253903 104.001568716 480 c 0
 104.001568716 480.409394279 104.032761391 480.818788557 104.095146742 481.224293339 c 2
 136.095146742 689.224293339 l 2
 136.660856238 692.901405059 140.047915784 695.998431284 144 695.998431284 c 0
 148.303598005 695.998431284 151.998431284 692.305746097 151.998431284 688 c 0
 151.998431284 687.590605721 151.967238609 687.181211443 151.904853258 686.775706661 c 2
 119.904853258 478.775706661 l 2
 119.339143762 475.098594941 115.952084216 472.001568716 112 472.001568716 c 0
272 472.001568716 m 0
 267.696401995 472.001568716 264.001568716 475.694253903 264.001568716 480 c 0
 264.001568716 480.409394279 264.032761391 480.818788557 264.095146742 481.224293339 c 2
 296.095146742 689.224293339 l 2
 296.660856238 692.901405059 300.047915784 695.998431284 304 695.998431284 c 0
 308.303598005 695.998431284 311.998431284 692.305746097 311.998431284 688 c 0
 311.998431284 687.590605721 311.967238609 687.181211443 311.904853258 686.775706661 c 2
 279.904853258 478.775706661 l 2
 279.339143762 475.098594941 275.952084216 472.001568716 272 472.001568716 c 0
EndSplineSet
EndChar

StartChar: uni2034
Encoding: 8244 8244 170
Width: 576
VWidth: 0
Flags: HW
LayerCount: 2
Fore
SplineSet
112 472.001568716 m 0
 107.696401995 472.001568716 104.001568716 475.694253903 104.001568716 480 c 0
 104.001568716 480.409394279 104.032761391 480.818788557 104.095146742 481.224293339 c 2
 136.095146742 689.224293339 l 2
 136.660856238 692.901405059 140.047915784 695.998431284 144 695.998431284 c 0
 148.303598005 695.998431284 151.998431284 692.305746097 151.998431284 688 c 0
 151.998431284 687.590605721 151.967238609 687.181211443 151.904853258 686.775706661 c 2
 119.904853258 478.775706661 l 2
 119.339143762 475.098594941 115.952084216 472.001568716 112 472.001568716 c 0
272 472.001568716 m 0
 267.696401995 472.001568716 264.001568716 475.694253903 264.001568716 480 c 0
 264.001568716 480.409394279 264.032761391 480.818788557 264.095146742 481.224293339 c 2
 296.095146742 689.224293339 l 2
 296.660856238 692.901405059 300.047915784 695.998431284 304 695.998431284 c 0
 308.303598005 695.998431284 311.998431284 692.305746097 311.998431284 688 c 0
 311.998431284 687.590605721 311.967238609 687.181211443 311.904853258 686.775706661 c 2
 279.904853258 478.775706661 l 2
 279.339143762 475.098594941 275.952084216 472.001568716 272 472.001568716 c 0
432 472.001568716 m 0
 427.696401995 472.001568716 424.001568716 475.694253903 424.001568716 480 c 0
 424.001568716 480.409394279 424.032761391 480.818788557 424.095146742 481.224293339 c 2
 456.095146742 689.224293339 l 2
 456.660856238 692.901405059 460.047915784 695.998431284 464 695.998431284 c 0
 468.303598005 695.998431284 471.998431284 692.305746097 471.998431284 688 c 0
 471.998431284 687.590605721 471.967238609 687.181211443 471.904853258 686.775706661 c 2
 439.904853258 478.775706661 l 2
 439.339143762 475.098594941 435.952084216 472.001568716 432 472.001568716 c 0
EndSplineSet
EndChar

StartChar: uni00AD
Encoding: 173 173 171
Width: 416
VWidth: 32
Flags: HW
LayerCount: 2
Fore
SplineSet
343.998431284 264 m 0
 343.998431284 259.696401995 340.305746097 256.001568716 336 256.001568716 c 2
 80 256.001568716 l 2
 75.6964019947 256.001568716 72.0015687157 259.694253903 72.0015687157 264 c 0
 72.0015687157 268.303598005 75.6942539034 271.998431284 80 271.998431284 c 2
 336 271.998431284 l 2
 340.303598005 271.998431284 343.998431284 268.305746097 343.998431284 264 c 0
EndSplineSet
EndChar

StartChar: endash
Encoding: 8211 8211 173
Width: 512
VWidth: 0
Flags: HW
LayerCount: 2
Fore
SplineSet
471.998431284 264 m 0
 471.998431284 259.696401995 468.305746097 256.001568716 464 256.001568716 c 2
 48 256.001568716 l 2
 43.6964019947 256.001568716 40.0015687157 259.694253903 40.0015687157 264 c 0
 40.0015687157 268.303598005 43.6942539034 271.998431284 48 271.998431284 c 2
 464 271.998431284 l 2
 468.303598005 271.998431284 471.998431284 268.305746097 471.998431284 264 c 0
EndSplineSet
EndChar

StartChar: emdash
Encoding: 8212 8212 174
Width: 1024
VWidth: 0
Flags: H
LayerCount: 2
Fore
SplineSet
983.998431284 264 m 0
 983.998431284 259.696401995 980.305746097 256.001568716 976 256.001568716 c 2
 48 256.001568716 l 2
 43.6964019947 256.001568716 40.0015687157 259.694253903 40.0015687157 264 c 0
 40.0015687157 268.303598005 43.6942539034 271.998431284 48 271.998431284 c 2
 976 271.998431284 l 2
 980.303598005 271.998431284 983.998431284 268.305746097 983.998431284 264 c 0
EndSplineSet
EndChar

StartChar: figuredash
Encoding: 8210 8210 190
Width: 672
VWidth: 0
Flags: HW
LayerCount: 2
Fore
SplineSet
631.998431284 368 m 0
 631.998431284 363.696401995 628.305746097 360.001568716 624 360.001568716 c 2
 48 360.001568716 l 2
 43.6964019947 360.001568716 40.0015687157 363.694253903 40.0015687157 368 c 0
 40.0015687157 372.303598005 43.6942539034 375.998431284 48 375.998431284 c 2
 624 375.998431284 l 2
 628.303598005 375.998431284 631.998431284 372.305746097 631.998431284 368 c 0
EndSplineSet
EndChar

StartChar: uni2057
Encoding: 8279 8279 191
Width: 736
VWidth: 0
Flags: HW
LayerCount: 2
Fore
SplineSet
112 472.001568716 m 0
 107.696401995 472.001568716 104.001568716 475.694253903 104.001568716 480 c 0
 104.001568716 480.409394279 104.032761391 480.818788557 104.095146742 481.224293339 c 2
 136.095146742 689.224293339 l 2
 136.660856238 692.901405059 140.047915784 695.998431284 144 695.998431284 c 0
 148.303598005 695.998431284 151.998431284 692.305746097 151.998431284 688 c 0
 151.998431284 687.590605721 151.967238609 687.181211443 151.904853258 686.775706661 c 2
 119.904853258 478.775706661 l 2
 119.339143762 475.098594941 115.952084216 472.001568716 112 472.001568716 c 0
272 472.001568716 m 0
 267.696401995 472.001568716 264.001568716 475.694253903 264.001568716 480 c 0
 264.001568716 480.409394279 264.032761391 480.818788557 264.095146742 481.224293339 c 2
 296.095146742 689.224293339 l 2
 296.660856238 692.901405059 300.047915784 695.998431284 304 695.998431284 c 0
 308.303598005 695.998431284 311.998431284 692.305746097 311.998431284 688 c 0
 311.998431284 687.590605721 311.967238609 687.181211443 311.904853258 686.775706661 c 2
 279.904853258 478.775706661 l 2
 279.339143762 475.098594941 275.952084216 472.001568716 272 472.001568716 c 0
432 472.001568716 m 0
 427.696401995 472.001568716 424.001568716 475.694253903 424.001568716 480 c 0
 424.001568716 480.409394279 424.032761391 480.818788557 424.095146742 481.224293339 c 2
 456.095146742 689.224293339 l 2
 456.660856238 692.901405059 460.047915784 695.998431284 464 695.998431284 c 0
 468.303598005 695.998431284 471.998431284 692.305746097 471.998431284 688 c 0
 471.998431284 687.590605721 471.967238609 687.181211443 471.904853258 686.775706661 c 2
 439.904853258 478.775706661 l 2
 439.339143762 475.098594941 435.952084216 472.001568716 432 472.001568716 c 0
592 472.001568716 m 0
 587.696401995 472.001568716 584.001568716 475.694253903 584.001568716 480 c 0
 584.001568716 480.409394279 584.032761391 480.818788557 584.095146742 481.224293339 c 2
 616.095146742 689.224293339 l 2
 616.660856238 692.901405059 620.047915784 695.998431284 624 695.998431284 c 0
 628.303598005 695.998431284 631.998431284 692.305746097 631.998431284 688 c 0
 631.998431284 687.590605721 631.967238609 687.181211443 631.904853258 686.775706661 c 2
 599.904853258 478.775706661 l 2
 599.339143762 475.098594941 595.952084216 472.001568716 592 472.001568716 c 0
EndSplineSet
EndChar

StartChar: copyright
Encoding: 169 169 192
Width: 736
VWidth: 0
Flags: HW
HStem: 48 640<250.702 485.298>
VStem: 48 640<250.702 485.298>
LayerCount: 2
Fore
SplineSet
458.001568716 284 m 0
 458.001568716 288.303598005 461.694253903 291.998431284 466 291.998431284 c 0
 470.303598005 291.998431284 473.998431284 288.305746097 473.998431284 284 c 0
 473.998431284 278.42597515 471.675163657 271.791539776 467.57948414 263.217003138 c 0
 451.815927477 230.215105996 418.241864928 196.001568716 368 196.001568716 c 0
 337.647152591 196.001568716 309.807312868 209.473031298 287.773365055 231.506979112 c 0
 256.091497659 263.188846507 236.001568716 312.647661903 236.001568716 368 c 0
 236.001568716 423.371089797 255.93772065 472.864371873 287.628246592 504.554897814 c 0
 309.633097779 526.559749001 337.494433743 539.998431284 368 539.998431284 c 0
 402.506044768 539.998431284 426.467837996 525.430747046 441.744302809 510.154282233 c 0
 458.792760626 493.105824416 465.278960052 475.389665623 465.509128518 474.761933561 c 0
 465.835330362 473.872292334 465.998431284 472.936146167 465.998431284 472 c 0
 465.998431284 467.696401995 462.305746097 464.001568716 458 464.001568716 c 0
 454.608645092 464.001568716 451.553372499 466.340336936 450.490871482 469.238066439 c 2
 450.490871482 469.238066439 445.273061883 483.998106162 430.43059431 498.840573734 c 0
 417.46117435 511.809993695 397.716177455 524.001568716 368 524.001568716 c 0
 342.392352438 524.001568716 318.493211218 512.792445443 298.941955091 493.241189315 c 0
 270.754246558 465.053480783 251.998431284 419.563587592 251.998431284 368 c 0
 251.998431284 316.491300367 270.883635941 271.024125223 299.087073553 242.820687611 c 0
 318.684048367 223.223712797 342.58042945 211.998431284 368 211.998431284 c 0
 395.586109225 211.998431284 416.219960388 224.092992407 431.025652341 238.89868436 c 0
 448.056099342 255.929131362 456.756945083 275.693597734 458.001568716 284 c 0
368 695.998431284 m 0
 549.065502637 695.998431284 695.998431284 549.065401925 695.998431284 368 c 0
 695.998431284 186.934497363 549.065401925 40.0015687157 368 40.0015687157 c 0
 186.934497363 40.0015687157 40.0015687157 186.934598075 40.0015687157 368 c 0
 40.0015687157 549.065502637 186.934598075 695.998431284 368 695.998431284 c 0
368 55.9984312843 m 0
 540.213794239 55.9984312843 680.001568716 195.786105049 680.001568716 368 c 0
 680.001568716 540.213794239 540.213894951 680.001568716 368 680.001568716 c 0
 195.786205761 680.001568716 55.9984312843 540.213894951 55.9984312843 368 c 0
 55.9984312843 195.786205761 195.786105049 55.9984312843 368 55.9984312843 c 0
EndSplineSet
EndChar

StartChar: registered
Encoding: 174 174 193
Width: 736
VWidth: 0
Flags: HW
HStem: 48 640<250.702 485.298>
VStem: 48 640<250.702 485.298>
LayerCount: 2
Fore
SplineSet
271.998431284 520.001568716 m 1
 396 520.001568716 l 2
 443.425098639 520.001568716 476.001568716 500.923324668 476.001568716 452 c 0
 476.001568716 403.058706523 443.43087815 383.998431284 396 383.998431284 c 2
 271.998431284 383.998431284 l 1
 271.998431284 520.001568716 l 1
264 200.001568716 m 0
 268.303598005 200.001568716 271.998431284 203.694253903 271.998431284 208 c 2
 271.998431284 368.001568716 l 1
 396 368.001568716 l 2
 397.500912195 368.001568716 398.997896756 368.020016215 400.489894547 368.057616855 c 2
 470.651195599 204.835145658 l 2
 471.807712818 202.144636849 474.774624326 200.001568716 478 200.001568716 c 0
 482.305746097 200.001568716 485.998431284 203.696401995 485.998431284 208 c 0
 485.998431284 209.078665583 485.78188899 210.157331167 485.348804401 211.164854342 c 2
 417.343865554 369.370788466 l 1
 437.902289974 372.151762445 456.613645049 379.397620441 470.385015202 393.168990594 c 0
 484.094241151 406.878216543 491.998431284 426.505625525 491.998431284 452 c 0
 491.998431284 477.494374475 484.094241151 497.121783457 470.385015202 510.831009406 c 0
 451.962344486 529.253680122 424.699180467 535.998431284 396 535.998431284 c 2
 264 535.998431284 l 2
 259.696401995 535.998431284 256.001568716 532.305746097 256.001568716 528 c 2
 256.001568716 208 l 2
 256.001568716 203.696401995 259.694253903 200.001568716 264 200.001568716 c 0
368 55.9984312843 m 0
 540.213794239 55.9984312843 680.001568716 195.786105049 680.001568716 368 c 0
 680.001568716 540.213794239 540.213894951 680.001568716 368 680.001568716 c 0
 195.786205761 680.001568716 55.9984312843 540.213894951 55.9984312843 368 c 0
 55.9984312843 195.786205761 195.786105049 55.9984312843 368 55.9984312843 c 0
368 695.998431284 m 0
 549.065502637 695.998431284 695.998431284 549.065401925 695.998431284 368 c 0
 695.998431284 186.934497363 549.065401925 40.0015687157 368 40.0015687157 c 0
 186.934497363 40.0015687157 40.0015687157 186.934598075 40.0015687157 368 c 0
 40.0015687157 549.065502637 186.934598075 695.998431284 368 695.998431284 c 0
EndSplineSet
EndChar

StartChar: brokenbar
Encoding: 166 166 194
Width: 288
VWidth: 0
Flags: HW
LayerCount: 2
Fore
SplineSet
144 456.001568716 m 0
 139.696401995 456.001568716 136.001568716 459.694253903 136.001568716 464 c 2
 136.001568716 768 l 2
 136.001568716 772.303598005 139.694253903 775.998431284 144 775.998431284 c 0
 148.303598005 775.998431284 151.998431284 772.305746097 151.998431284 768 c 2
 151.998431284 464 l 2
 151.998431284 459.696401995 148.305746097 456.001568716 144 456.001568716 c 0
144 -39.9984312843 m 0
 139.696401995 -39.9984312843 136.001568716 -36.3057460966 136.001568716 -32 c 2
 136.001568716 272 l 2
 136.001568716 276.303598005 139.694253903 279.998431284 144 279.998431284 c 0
 148.303598005 279.998431284 151.998431284 276.305746097 151.998431284 272 c 2
 151.998431284 -32 l 2
 151.998431284 -36.3035980053 148.305746097 -39.9984312843 144 -39.9984312843 c 0
EndSplineSet
EndChar

StartChar: plusminus
Encoding: 177 177 195
Width: 640
VWidth: 0
Flags: HW
LayerCount: 2
Fore
SplineSet
96.0015687157 464 m 0
 96.0015687157 468.303598005 99.6942539034 471.998431284 104 471.998431284 c 2
 312.001568716 471.998431284 l 1
 312.001568716 680 l 2
 312.001568716 684.303598005 315.694253903 687.998431284 320 687.998431284 c 0
 324.303598005 687.998431284 327.998431284 684.305746097 327.998431284 680 c 2
 327.998431284 471.998431284 l 1
 536 471.998431284 l 2
 540.303598005 471.998431284 543.998431284 468.305746097 543.998431284 464 c 0
 543.998431284 459.696401995 540.305746097 456.001568716 536 456.001568716 c 2
 327.998431284 456.001568716 l 1
 327.998431284 248 l 2
 327.998431284 243.696401995 324.305746097 240.001568716 320 240.001568716 c 0
 315.696401995 240.001568716 312.001568716 243.694253903 312.001568716 248 c 2
 312.001568716 456.001568716 l 1
 104 456.001568716 l 2
 99.6964019947 456.001568716 96.0015687157 459.694253903 96.0015687157 464 c 0
96.0015687157 56 m 0
 96.0015687157 60.3035980053 99.6942539034 63.9984312843 104 63.9984312843 c 2
 536 63.9984312843 l 2
 540.303598005 63.9984312843 543.998431284 60.3057460966 543.998431284 56 c 0
 543.998431284 51.6964019947 540.305746097 48.0015687157 536 48.0015687157 c 2
 104 48.0015687157 l 2
 99.6964019947 48.0015687157 96.0015687157 51.6942539034 96.0015687157 56 c 0
EndSplineSet
EndChar

StartChar: divide
Encoding: 247 247 196
Width: 640
VWidth: 0
Flags: HW
HStem: 128 48<297.906 342.094> 560 48<297.906 342.094>
VStem: 296 48<129.906 174.094 561.906 606.094>
LayerCount: 2
Fore
SplineSet
543.998431284 368 m 0
 543.998431284 363.696401995 540.305746097 360.001568716 536 360.001568716 c 2
 104 360.001568716 l 2
 99.6964019947 360.001568716 96.0015687157 363.694253903 96.0015687157 368 c 0
 96.0015687157 372.303598005 99.6942539034 375.998431284 104 375.998431284 c 2
 536 375.998431284 l 2
 540.303598005 375.998431284 543.998431284 372.305746097 543.998431284 368 c 0
328 615.998431284 m 0
 340.74001548 615.998431284 351.998431284 604.733540447 351.998431284 592 c 0
 351.998431284 571.25998452 332.733540447 552.001568716 312 552.001568716 c 0
 299.25998452 552.001568716 288.001568716 563.266459553 288.001568716 576 c 0
 288.001568716 596.74001548 307.266459553 615.998431284 328 615.998431284 c 0
328 183.998431284 m 0
 340.74001548 183.998431284 351.998431284 172.733540447 351.998431284 160 c 0
 351.998431284 139.25998452 332.733540447 120.001568716 312 120.001568716 c 0
 299.25998452 120.001568716 288.001568716 131.266459553 288.001568716 144 c 0
 288.001568716 164.74001548 307.266459553 183.998431284 328 183.998431284 c 0
EndSplineSet
EndChar

StartChar: uni2070
Encoding: 8304 8304 197
Width: 432
VWidth: 0
Flags: HW
HStem: 508 328<154.278 277.722>
VStem: 92 248<580.306 763.694>
LayerCount: 2
Fore
SplineSet
347.998431284 672 m 0
 347.998431284 616.628910203 328.06227935 567.135628127 296.371753408 535.445102186 c 0
 274.366902221 513.440250999 246.505566257 500.001568716 216 500.001568716 c 0
 185.494433743 500.001568716 157.633097779 513.440250999 135.628246592 535.445102186 c 0
 103.93772065 567.135628127 84.0015687157 616.628910203 84.0015687157 672 c 0
 84.0015687157 727.371089797 103.93772065 776.864371873 135.628246592 808.554897814 c 0
 157.633097779 830.559749001 185.494433743 843.998431284 216 843.998431284 c 0
 246.505566257 843.998431284 274.366902221 830.559749001 296.371753408 808.554897814 c 0
 328.06227935 776.864371873 347.998431284 727.371089797 347.998431284 672 c 0
332.001568716 672 m 0
 332.001568716 723.563587592 313.245753442 769.053480783 285.058044909 797.241189315 c 0
 265.506788782 816.792445443 241.607647562 828.001568716 216 828.001568716 c 0
 190.392352438 828.001568716 166.493211218 816.792445443 146.941955091 797.241189315 c 0
 118.754246558 769.053480783 99.9984312843 723.563587592 99.9984312843 672 c 0
 99.9984312843 620.436412408 118.754246558 574.946519217 146.941955091 546.758810685 c 0
 166.493211218 527.207554557 190.392352438 515.998431284 216 515.998431284 c 0
 241.607647562 515.998431284 265.506788782 527.207554557 285.058044909 546.758810685 c 0
 313.245753442 574.946519217 332.001568716 620.436412408 332.001568716 672 c 0
EndSplineSet
EndChar

StartChar: uni2074
Encoding: 8308 8308 198
Width: 432
VWidth: 0
Flags: HW
LayerCount: 2
Fore
SplineSet
351.998431284 624 m 0
 351.998431284 628.303598005 348.305746097 631.998431284 344 631.998431284 c 2
 295.998431284 631.998431284 l 1
 295.998431284 832 l 2
 295.998431284 836.303598005 292.305746097 839.998431284 288 839.998431284 c 2
 257 839.998431284 l 2
 254.741097506 839.998431284 252.445648728 838.964997507 250.942768959 837.226371892 c 2
 97.9427689588 660.226371892 l 2
 96.6486354634 658.729237064 96.0015687157 656.864618532 96.0015687157 655 c 2
 96.0015687157 624 l 2
 96.0015687157 619.696401995 99.6942539034 616.001568716 104 616.001568716 c 2
 280.001568716 616.001568716 l 1
 280.001568716 512 l 2
 280.001568716 507.696401995 283.694253903 504.001568716 288 504.001568716 c 0
 292.303598005 504.001568716 295.998431284 507.694253903 295.998431284 512 c 2
 295.998431284 616.001568716 l 1
 344 616.001568716 l 2
 348.303598005 616.001568716 351.998431284 619.694253903 351.998431284 624 c 0
280.001568716 824.001568716 m 1
 280.001568716 631.998431284 l 1
 111.998431284 631.998431284 l 1
 111.998431284 652.01933035 l 1
 260.661044109 824.001568716 l 1
 280.001568716 824.001568716 l 1
EndSplineSet
EndChar

StartChar: uni2075
Encoding: 8309 8309 199
Width: 432
VWidth: 0
Flags: HW
LayerCount: 2
Fore
SplineSet
112 573.849993784 m 0
 107.696401995 573.849993784 104.001568716 570.157308597 104.001568716 565.8515625 c 0
 104.001568716 564.525119941 104.329019463 563.198677382 104.983920957 562.00452678 c 0
 110.510962517 551.926492036 117.417936236 542.736318634 125.471255725 534.682999145 c 0
 146.89749462 513.256760251 176.360073471 500.001568716 209 500.001568716 c 0
 275.016660504 500.001568716 327.998431284 554.01052514 327.998431284 620 c 0
 327.998431284 685.990806856 275.017791298 739.998431284 209 739.998431284 c 0
 178.235304692 739.998431284 149.645312504 729.075775221 126.447562519 709.595913098 c 1
 139.159302032 824.001568716 l 1
 292 824.001568716 l 2
 296.303598005 824.001568716 299.998431284 827.694253903 299.998431284 832 c 0
 299.998431284 836.303598005 296.305746097 839.998431284 292 839.998431284 c 2
 132 839.998431284 l 2
 127.947528455 839.998431284 124.478942442 836.742631554 124.050823986 832.889565452 c 2
 108.050823986 688.889565452 l 2
 108.017987139 688.594033829 108.001568716 688.297016914 108.001568716 688 c 0
 108.001568716 683.696401995 111.694253903 680.001568716 116 680.001568716 c 0
 118.271593184 680.001568716 120.579488249 681.049487218 122.079132637 682.799072338 c 0
 124.252984159 685.335232447 126.500826322 687.762940324 128.817005923 690.079119926 c 0
 150.608505874 711.870619876 178.574320792 724.001568716 209 724.001568716 c 0
 266.144999245 724.001568716 312.001568716 677.164101544 312.001568716 620 c 0
 312.001568716 562.834568421 266.146382106 515.998431284 209 515.998431284 c 0
 180.805461399 515.998431284 155.348704161 527.432967707 136.784964224 545.996707644 c 0
 129.822094259 552.959577609 123.817908286 560.942919181 119.016079043 569.69859822 c 0
 117.725022446 572.052717166 114.922847632 573.849993784 112 573.849993784 c 0
EndSplineSet
EndChar

StartChar: uni2076
Encoding: 8310 8310 200
Width: 432
VWidth: 0
Flags: HW
LayerCount: 2
Fore
SplineSet
307 792.001568716 m 0
 311.303598005 792.001568716 314.998431284 795.694253903 314.998431284 800 c 0
 314.998431284 801.547825458 314.552556347 803.095650916 313.660806474 804.433275725 c 0
 313.423661339 804.788993427 310.954071875 808.439636624 305.960854249 813.432854249 c 0
 294.338203186 825.055505313 268.783710102 843.998431284 227 843.998431284 c 0
 204.782817816 843.998431284 172.902136065 834.314760241 146.284416024 807.697040201 c 0
 119.638573444 781.051197621 99.0015687157 737.786396464 99.0015687157 672 c 0
 99.0015687157 604.305453189 118.571264642 561.070919456 144.777345325 534.864838773 c 0
 171.251332928 508.39085117 203.551398739 500.001568716 227 500.001568716 c 0
 261.90368627 500.001568716 289.689940311 512.427502647 308.584800344 531.322362681 c 0
 327.161402436 549.898964773 336.998431284 574.459571964 336.998431284 599 c 0
 336.998431284 623.40680726 326.299385228 646.296008813 308.758592225 663.836801815 c 0
 288.01195889 684.583435151 257.609116438 697.998431284 223 697.998431284 c 0
 190.556282422 697.998431284 162.336323854 689.001153328 142.645116734 669.309946208 c 0
 131.331730525 657.996559999 123.191352897 643.464885834 118.626522065 625.906615686 c 1
 116.296755022 639.565934441 114.998431282 654.867762686 114.998431284 672 c 0
 114.998431284 734.376821125 134.298796227 773.084003406 157.598124523 796.383331702 c 0
 181.003869373 819.789076552 209.185854752 828.001568716 227 828.001568716 c 0
 263.616289898 828.001568716 285.101796814 811.664494687 294.647145751 802.119145751 c 0
 300.368518061 796.39777344 299.400728851 796.28556265 301.343145751 794.343145751 c 0
 302.904197107 792.782094394 304.952098554 792.001568716 307 792.001568716 c 0
129.621037773 586.742015007 m 0
 130.088753419 587.74530738 130.351946914 588.850818654 130.351946909 590 c 0
 130.351946909 621.239774664 139.280213236 643.317625712 153.958825233 657.996237709 c 0
 169.793938952 673.831351428 193.407356179 682.001568716 223 682.001568716 c 0
 253.402511532 682.001568716 279.793079716 670.174897326 297.444883726 652.523093317 c 0
 312.382396898 637.585580144 321.001568716 618.583890364 321.001568716 599 c 0
 321.001568716 578.777486436 312.825524539 558.190503874 297.271091845 542.63607118 c 0
 281.506617122 526.871596456 258.012746659 515.998431284 227 515.998431284 c 0
 207.190150406 515.998431284 179.030334071 523.239267025 156.091053824 546.178547272 c 0
 146.025541038 556.244060058 136.781638395 569.469114125 129.621037773 586.742015007 c 0
EndSplineSet
EndChar

StartChar: uni2077
Encoding: 8311 8311 201
Width: 432
VWidth: 0
Flags: HW
LayerCount: 2
Fore
SplineSet
92.0015687157 832 m 0
 92.0015687157 827.696401995 95.6942539034 824.001568716 100 824.001568716 c 2
 316.001568716 824.001568716 l 1
 316.001568716 807.519242283 l 1
 308.808074043 802.974541511 293.001793503 792.072147193 274.567944416 773.638298106 c 0
 233.677278777 732.747632467 180.001568716 654.651552829 180.001568716 528 c 2
 180.001568716 512 l 2
 180.001568716 507.696401995 183.694253903 504.001568716 188 504.001568716 c 0
 192.303598005 504.001568716 195.998431284 507.694253903 195.998431284 512 c 2
 195.998431284 528 l 2
 195.998431284 649.79565214 247.25694444 723.699881132 285.881652915 762.324589607 c 0
 311.813503761 788.256440453 327.039476323 794.725767824 329.656854249 797.343145751 c 0
 331.217905606 798.904197107 331.998431284 800.952098554 331.998431284 803 c 2
 331.998431284 832 l 2
 331.998431284 836.303598005 328.305746097 839.998431284 324 839.998431284 c 2
 100 839.998431284 l 2
 95.6964019947 839.998431284 92.0015687157 836.305746097 92.0015687157 832 c 0
EndSplineSet
EndChar

StartChar: uni2078
Encoding: 8312 8312 202
Width: 432
VWidth: 0
Flags: HW
LayerCount: 2
Fore
SplineSet
254.785780517 685.447680454 m 1
 244.501467445 687.748606792 233.236089749 688.998431217 221 688.998431284 c 0
 185.796785448 688.998431284 157.465103488 700.551674105 140.458817086 717.557960508 c 0
 128.497301175 729.519476419 121.998431284 744.126583954 121.998431284 760 c 0
 121.998431284 775.115460851 128.278912384 789.118882874 139.774386784 800.614357274 c 0
 156.066858496 816.906828986 183.042180372 828.001568716 216 828.001568716 c 0
 247.166189249 828.001568716 275.227327247 816.488196234 292.234723091 799.48080039 c 0
 303.614708261 788.10081522 310.001568716 774.491626407 310.001568716 760 c 0
 310.001568716 740.926041214 297.435493775 722.444785539 283.354483444 708.363775208 c 0
 270.144901409 695.154193173 259.565368096 688.615914686 254.785780517 685.447680454 c 1
172.577455342 680.388591144 m 1
 187.094992478 675.602489782 203.417063664 673.001568716 221 673.001568716 c 0
 256.466541666 673.001568716 281.168672488 661.627428239 296.738057199 646.058043528 c 0
 311.120320035 631.675780692 318.001568716 613.341977288 318.001568716 596 c 0
 318.001568716 577.254525488 310.635160968 558.997712197 296.271830342 544.634381571 c 0
 279.43655712 527.799108349 252.620691711 515.998431284 216 515.998431284 c 0
 183.323196125 515.998431284 156.700864163 528.491765038 138.864533944 546.328095257 c 0
 122.826846961 562.365782239 113.998431284 582.685313647 113.998431284 602 c 0
 113.998431284 626.482838958 124.893966501 644.276151674 137.604936315 656.987121487 c 0
 153.623516014 673.005701186 166.446137683 677.362939552 172.577455342 680.388591144 c 1
153.137713858 688.660389465 m 1
 145.444921369 684.268202554 135.60676141 677.616363581 126.291227816 668.300829986 c 0
 111.507541136 653.517143307 98.0015687157 631.658006112 98.0015687157 602 c 0
 98.0015687157 577.795698759 108.864008514 553.701203688 127.550825445 535.014386758 c 0
 148.398278972 514.16693323 179.117090423 500.001568716 216 500.001568716 c 0
 256.102350028 500.001568716 287.287413314 513.022547545 307.585538841 533.320673072 c 0
 324.874393629 550.60952786 333.998431284 572.95025407 333.998431284 596 c 0
 333.998431284 617.581272023 325.481534532 639.941983193 308.051765698 657.371752027 c 0
 299.061144694 666.362373031 287.776041721 673.943049875 274.232239558 679.426914251 c 1
 280.068614621 683.788108651 287.372098426 689.753973192 294.668191943 697.050066709 c 0
 309.898025871 712.279900637 325.998431284 733.989572985 325.998431284 760 c 0
 325.998431284 779.448176878 317.331303808 797.011636672 303.54843159 810.794508889 c 0
 282.999711601 831.343228878 250.985997454 843.998431284 216 843.998431284 c 0
 179.525073536 843.998431284 148.384438747 831.851826235 128.460678285 811.928065773 c 0
 114.375837821 797.843225309 106.001568716 779.793284312 106.001568716 760 c 0
 106.001568716 739.511313531 114.559740781 720.829619815 129.145108587 706.244252009 c 0
 135.935061062 699.454299534 144.000454243 693.541121292 153.137713858 688.660389465 c 1
EndSplineSet
EndChar

StartChar: uni2079
Encoding: 8313 8313 203
Width: 432
VWidth: 0
Flags: HW
LayerCount: 2
Fore
SplineSet
302.378962223 757.257984951 m 0
 301.911246591 756.25469259 301.648053105 755.149181334 301.648053091 754 c 0
 301.648053091 722.760225336 292.719786764 700.682374288 278.041174767 686.003762291 c 0
 262.206061048 670.168648572 238.592643821 661.998431284 209 661.998431284 c 0
 178.597488468 661.998431284 152.206920284 673.825102674 134.555116274 691.476906683 c 0
 119.617603102 706.414419856 110.998431284 725.416109636 110.998431284 745 c 0
 110.998431284 765.222513564 119.174475461 785.809496126 134.728908155 801.36392882 c 0
 150.493382878 817.128403544 173.987253341 828.001568716 205 828.001568716 c 0
 224.809849594 828.001568716 252.969665929 820.760732975 275.908946176 797.821452728 c 0
 285.974458969 787.755939935 295.218361617 774.530885858 302.378962223 757.257984951 c 0
125 551.998431284 m 0
 120.696401995 551.998431284 117.001568716 548.305746097 117.001568716 544 c 0
 117.001568716 542.452174542 117.447443653 540.904349084 118.339193526 539.566724275 c 0
 118.576338661 539.211006573 121.045928125 535.560363376 126.039145751 530.567145751 c 0
 137.661796814 518.944494687 163.216289898 500.001568716 205 500.001568716 c 0
 227.217182184 500.001568716 259.097863935 509.685239759 285.715583976 536.302959799 c 0
 312.361426556 562.948802379 332.998431284 606.213603536 332.998431284 672 c 0
 332.998431284 739.694546811 313.428735358 782.929080544 287.222654675 809.135161227 c 0
 260.748667072 835.60914883 228.448601261 843.998431284 205 843.998431284 c 0
 170.09631373 843.998431284 142.310059689 831.572497353 123.415199656 812.677637319 c 0
 104.838597564 794.101035227 95.0015687157 769.540428036 95.0015687157 745 c 0
 95.0015687157 720.59319274 105.700614772 697.703991187 123.241407775 680.163198185 c 0
 143.98804111 659.416564849 174.390883562 646.001568716 209 646.001568716 c 0
 241.443717578 646.001568716 269.663676146 654.998846672 289.354883266 674.690053792 c 0
 300.668269475 686.003440001 308.808647103 700.535114166 313.373477935 718.093384314 c 1
 315.703244978 704.434065559 317.001568718 689.132237314 317.001568716 672 c 0
 317.001568716 609.623178875 297.701203773 570.915996594 274.401875477 547.616668298 c 0
 250.996130627 524.210923448 222.814145248 515.998431284 205 515.998431284 c 0
 168.383710102 515.998431284 146.898203186 532.335505313 137.352854249 541.880854249 c 0
 131.631481939 547.60222656 132.599271149 547.71443735 130.656854249 549.656854249 c 0
 129.095802893 551.217905606 127.047901446 551.998431284 125 551.998431284 c 0
EndSplineSet
EndChar

StartChar: uni2080
Encoding: 8320 8320 204
Width: 432
VWidth: 0
Flags: HW
HStem: -100 328<154.278 277.722>
VStem: 92 248<-27.6937 155.694>
LayerCount: 2
Fore
SplineSet
347.998431284 64 m 0
 347.998431284 8.62891020297 328.06227935 -40.8643718725 296.371753408 -72.5548978144 c 0
 274.366902221 -94.5597490012 246.505566257 -107.998431284 216 -107.998431284 c 0
 185.494433743 -107.998431284 157.633097779 -94.5597490012 135.628246592 -72.5548978144 c 0
 103.93772065 -40.8643718725 84.0015687157 8.62891020297 84.0015687157 64 c 0
 84.0015687157 119.371089797 103.93772065 168.864371873 135.628246592 200.554897814 c 0
 157.633097779 222.559749001 185.494433743 235.998431284 216 235.998431284 c 0
 246.505566257 235.998431284 274.366902221 222.559749001 296.371753408 200.554897814 c 0
 328.06227935 168.864371873 347.998431284 119.371089797 347.998431284 64 c 0
332.001568716 64 m 0
 332.001568716 115.563587592 313.245753442 161.053480783 285.058044909 189.241189315 c 0
 265.506788782 208.792445443 241.607647562 220.001568716 216 220.001568716 c 0
 190.392352438 220.001568716 166.493211218 208.792445443 146.941955091 189.241189315 c 0
 118.754246558 161.053480783 99.9984312843 115.563587592 99.9984312843 64 c 0
 99.9984312843 12.4364124081 118.754246558 -33.0534807825 146.941955091 -61.2411893154 c 0
 166.493211218 -80.7924454428 190.392352438 -92.0015687157 216 -92.0015687157 c 0
 241.607647562 -92.0015687157 265.506788782 -80.7924454428 285.058044909 -61.2411893154 c 0
 313.245753442 -33.0534807825 332.001568716 12.4364124081 332.001568716 64 c 0
EndSplineSet
EndChar

StartChar: uni2081
Encoding: 8321 8321 205
Width: 216
VWidth: 0
Flags: HW
LayerCount: 2
Fore
SplineSet
108 231.998431284 m 0
 112.303598005 231.998431284 115.998431284 228.305746097 115.998431284 224 c 2
 115.998431284 -96 l 2
 115.998431284 -100.303598005 112.305746097 -103.998431284 108 -103.998431284 c 0
 103.696401995 -103.998431284 100.001568716 -100.305746097 100.001568716 -96 c 2
 100.001568716 224 l 2
 100.001568716 228.303598005 103.694253903 231.998431284 108 231.998431284 c 0
EndSplineSet
EndChar

StartChar: uni2082
Encoding: 8322 8322 206
Width: 432
VWidth: 0
Flags: HW
LayerCount: 2
Fore
SplineSet
112 140.001568716 m 0
 116.303598005 140.001568716 119.998431284 143.694253903 119.998431284 148 c 0
 119.998431284 168.726232756 126.929222143 184.318004207 138.412537877 195.801319941 c 0
 154.09994491 211.488726975 179.372145103 220.001568716 209 220.001568716 c 0
 237.55011794 220.001568716 261.44816365 210.030033341 277.158684032 194.319512959 c 0
 290.360438073 181.117758918 298.001568716 163.767561159 298.001568716 144 c 0
 298.001568716 127.378426978 294.279550778 117.236644446 282.744934362 105.70202803 c 0
 274.556595999 97.5136896669 261.985775776 88.6836611912 243.896957708 77.8694221002 c 0
 205.430975688 54.8734545881 167.755295246 33.1099332228 145.799268169 11.1539061459 c 0
 119.945870631 -14.6994913923 108.001568716 -45.9903534639 108.001568716 -96 c 0
 108.001568716 -100.303598005 111.694253903 -103.998431284 116 -103.998431284 c 2
 320 -103.998431284 l 2
 324.303598005 -103.998431284 327.998431284 -100.305746097 327.998431284 -96 c 0
 327.998431284 -91.6964019947 324.305746097 -88.0015687157 320 -88.0015687157 c 2
 124.103553079 -88.0015687157 l 1
 125.25029295 -45.5790758761 135.806433034 -21.4663459871 157.112976668 -0.15980235308 c 0
 175.68335769 18.4105786688 203.458153846 35.1278390505 241.276954478 57.6709072152 c 0
 244.799631118 59.770707798 248.408208124 61.9217096474 252.103042292 64.1305778998 c 0
 270.633644019 75.2089334247 284.183778092 84.5134547625 294.058642861 94.3883195313 c 0
 308.372309743 108.701986413 313.998431284 124.26238804 313.998431284 144 c 0
 313.998431284 200.114825907 265.323147865 235.998431284 209 235.998431284 c 0
 152.29460452 235.998431284 104.001568716 206.74717459 104.001568716 148 c 0
 104.001568716 143.696401995 107.694253903 140.001568716 112 140.001568716 c 0
EndSplineSet
EndChar

StartChar: uni2083
Encoding: 8323 8323 207
Width: 432
VWidth: 0
Flags: HW
LayerCount: 2
Fore
SplineSet
111.721679688 -35.1177796532 m 0
 107.418081683 -35.1177796532 103.723248404 -38.8104648409 103.723248404 -43.1162109375 c 0
 103.723248404 -44.3986528891 104.029335148 -45.6810948407 104.641508638 -46.8439780755 c 0
 123.140416767 -81.9844578561 163.577999634 -107.998431284 211 -107.998431284 c 0
 273.171793844 -107.998431284 329.998431284 -62.6367630197 329.998431284 -8.881784197e-16 c 0
 329.998431284 63.3678515717 282.380668351 109.665421168 216.709709602 109.996642564 c 1
 226.973313155 117.321009413 235.913114998 125.004640509 243.686139663 132.777665126 c 0
 287.689601271 176.781126734 293.998431284 221.626778649 293.998431284 224 c 0
 293.998431284 228.303598005 290.305746097 231.998431284 286 231.998431284 c 2
 102 231.998431284 l 2
 97.6964019947 231.998431284 94.0015687157 228.305746097 94.0015687157 224 c 0
 94.0015687157 219.696401995 97.6942539034 216.001568716 102 216.001568716 c 2
 276.051139403 216.001568716 l 1
 272.117002412 201.75012391 261.143536292 172.862478753 232.372431164 144.091373625 c 0
 215.836659861 127.555602321 193.404222111 111.261705501 162.88117276 98.3684177468 c 0
 160.167513955 97.2221369986 158.001568716 94.2458918337 158.001568716 91 c 0
 158.001568716 86.6964019947 161.694253903 83.0015687157 166 83.0015687157 c 0
 167.035726762 83.0015687157 168.071453523 83.2012141972 169.044200135 83.6005051604 c 0
 182.007340485 88.9215874794 201.551117842 94.0015687157 216 94.0015687157 c 0
 273.587013998 94.0015687157 314.001568716 55.0956630864 314.001568716 8.881784197e-16 c 0
 314.001568716 -53.4477650867 264.520025876 -92.0015687157 211 -92.0015687157 c 0
 169.689834963 -92.0015687157 134.731439756 -69.6482513998 118.801850738 -39.3884437995 c 0
 117.531184651 -36.9746896668 114.699433951 -35.1177796532 111.721679688 -35.1177796532 c 0
EndSplineSet
EndChar

StartChar: uni2084
Encoding: 8324 8324 208
Width: 432
VWidth: 0
Flags: HW
LayerCount: 2
Fore
SplineSet
351.998431284 16 m 0
 351.998431284 20.3035980053 348.305746097 23.9984312843 344 23.9984312843 c 2
 295.998431284 23.9984312843 l 1
 295.998431284 224 l 2
 295.998431284 228.303598005 292.305746097 231.998431284 288 231.998431284 c 2
 257 231.998431284 l 2
 254.741097506 231.998431284 252.445648728 230.964997507 250.942768959 229.226371892 c 2
 97.9427689588 52.2263718918 l 2
 96.6486354634 50.7292370638 96.0015687157 48.8646185319 96.0015687157 47 c 2
 96.0015687157 16 l 2
 96.0015687157 11.6964019947 99.6942539034 8.00156871568 104 8.00156871568 c 2
 280.001568716 8.00156871568 l 1
 280.001568716 -96 l 2
 280.001568716 -100.303598005 283.694253903 -103.998431284 288 -103.998431284 c 0
 292.303598005 -103.998431284 295.998431284 -100.305746097 295.998431284 -96 c 2
 295.998431284 8.00156871568 l 1
 344 8.00156871568 l 2
 348.303598005 8.00156871568 351.998431284 11.6942539034 351.998431284 16 c 0
280.001568716 216.001568716 m 1
 280.001568716 23.9984312843 l 1
 111.998431284 23.9984312843 l 1
 111.998431284 44.0193303502 l 1
 260.661044109 216.001568716 l 1
 280.001568716 216.001568716 l 1
EndSplineSet
EndChar

